<svg width="150" height="150" viewBox="0 0 150 150" fill="none" xmlns="http://www.w3.org/2000/svg">
<g clip-path="url(#clip0)">
<path d="M143.232 24.6094H112.5C111.299 24.6094 110.303 25.6055 110.303 26.8066C110.303 28.0078 111.299 29.0039 112.5 29.0039H143.232C144.551 29.0039 145.605 30.0586 145.605 31.377V115.986C145.605 117.305 144.551 118.359 143.232 118.359H6.76758C5.44922 118.359 4.39453 117.305 4.39453 115.986V31.377C4.39453 30.0586 5.44922 29.0039 6.76758 29.0039H55.0488V33.3984H10.9863C9.78516 33.3984 8.78906 34.3945 8.78906 35.5957V105.996C8.78906 107.197 9.78516 108.193 10.9863 108.193C12.1875 108.193 13.1836 107.197 13.1836 105.996V37.793H55.0488V49.5703L45.6445 54.0527C44.8828 54.4043 44.3848 55.1953 44.3848 56.0449V91.875C44.3848 92.7246 44.8828 93.4863 45.6445 93.8672L74.0625 107.432C74.6777 107.725 75.3809 107.695 75.9668 107.432L102.803 94.5117C103.887 93.9844 104.355 92.666 103.828 91.582C103.301 90.498 101.982 90.0293 100.898 90.5566L77.2266 101.982V71.0156L101.25 59.5312V90.498L97.998 92.0508C96.9141 92.5781 96.4453 93.8965 96.9727 94.9805C97.5 96.0645 98.8184 96.5332 99.9023 96.0059L104.414 93.8379C105.176 93.4863 105.674 92.6953 105.674 91.8457V56.0449C105.674 55.1953 105.176 54.4336 104.414 54.0527L95.0098 49.5703V37.793H136.816V109.57H13.1836V103.037C13.1836 101.836 12.1875 100.84 10.9863 100.84C9.78516 100.84 8.78906 101.836 8.78906 103.037V111.768C8.78906 112.969 9.78516 113.965 10.9863 113.965H139.014C140.215 113.965 141.211 112.969 141.211 111.768V35.5957C141.211 34.3945 140.215 33.3984 139.014 33.3984H94.9512V29.0039H123.662C124.863 29.0039 125.859 28.0078 125.859 26.8066C125.859 25.6055 124.863 24.6094 123.662 24.6094H94.9512V20.2148H114.668C115.869 20.2148 116.865 19.2188 116.865 18.0176V12.8027C119.414 11.8945 121.26 9.46289 121.26 6.5918C121.26 2.95898 118.301 0 114.668 0C111.035 0 108.076 2.95898 108.076 6.5918C108.076 9.46289 109.922 11.8945 112.471 12.8027V15.8203H92.7539C91.5527 15.8203 90.5566 16.8164 90.5566 18.0176V24.6094H77.1973V12.8027C79.7461 11.8945 81.5918 9.46289 81.5918 6.5918C81.5918 2.95898 78.6328 0 75 0C71.3672 0 68.4082 2.95898 68.4082 6.5918C68.4082 9.46289 70.2539 11.8945 72.8027 12.8027V24.6094H59.4434V18.0176C59.4434 16.8164 58.4473 15.8203 57.2461 15.8203H37.5293V12.8027C40.0781 11.8945 41.9238 9.46289 41.9238 6.5918C41.9238 2.95898 38.9648 0 35.332 0C31.6992 0 28.7402 2.95898 28.7402 6.5918C28.7402 9.46289 30.5859 11.8945 33.1348 12.8027V18.0176C33.1348 19.2188 34.1309 20.2148 35.332 20.2148H55.0488V24.6094H6.76758C3.04688 24.6094 0 27.6562 0 31.377V115.986C0 119.707 3.04688 122.754 6.76758 122.754H54.4043C53.5547 130.811 48.2227 135.527 46.5527 136.816H37.207C33.5742 136.816 30.6152 139.775 30.6152 143.408C30.6152 147.041 33.5742 150 37.207 150H112.793C116.426 150 119.385 147.041 119.385 143.408C119.385 139.775 116.426 136.816 112.793 136.816H103.477C101.807 135.527 96.4746 130.781 95.625 122.754H143.262C146.982 122.754 150.029 119.707 150.029 115.986V31.377C150 27.6562 146.953 24.6094 143.232 24.6094ZM114.668 4.39453C115.869 4.39453 116.865 5.39062 116.865 6.5918C116.865 7.79297 115.869 8.78906 114.668 8.78906C113.467 8.78906 112.471 7.79297 112.471 6.5918C112.471 5.39062 113.438 4.39453 114.668 4.39453ZM75 4.39453C76.2012 4.39453 77.1973 5.39062 77.1973 6.5918C77.1973 7.79297 76.2012 8.78906 75 8.78906C73.7988 8.78906 72.8027 7.79297 72.8027 6.5918C72.8027 5.39062 73.7988 4.39453 75 4.39453ZM35.332 4.39453C36.5332 4.39453 37.5293 5.39062 37.5293 6.5918C37.5293 7.79297 36.5332 8.78906 35.332 8.78906C34.1309 8.78906 33.1348 7.79297 33.1348 6.5918C33.1348 5.39062 34.1309 4.39453 35.332 4.39453ZM59.4434 37.793H72.8027V41.1035L59.4434 47.4902V37.793ZM98.3203 56.0449L75 67.1777L51.6797 56.0449L75 44.9121L98.3203 56.0449ZM48.7793 59.5312L72.8027 71.0156V101.982L48.7793 90.498V59.5312ZM90.5566 47.4902L77.1973 41.1035V37.793H90.5566V47.4902ZM90.5566 29.0039V33.3984H77.1973V29.0039H90.5566ZM72.8027 29.0039V33.3984H59.4434V29.0039H72.8027ZM114.99 143.408C114.99 144.609 113.994 145.605 112.793 145.605H37.207C36.0059 145.605 35.0098 144.609 35.0098 143.408C35.0098 142.207 36.0059 141.211 37.207 141.211H112.793C113.994 141.211 114.99 142.207 114.99 143.408ZM97.1484 136.816H52.8516C55.4297 133.799 58.2715 129.111 58.8281 122.754H91.1719C91.7285 129.111 94.5703 133.799 97.1484 136.816Z" fill="#414554"/>
</g>
<defs>
<clipPath id="clip0">
<rect width="150" height="150" fill="white"/>
</clipPath>
</defs>
</svg>
