<svg width="71" height="71" viewBox="0 0 71 71" fill="none" xmlns="http://www.w3.org/2000/svg">
<path d="M65.9805 0.718875C65.5589 0.261813 64.9687 0 64.3431 0H6.65556C6.0343 0 5.43968 0.261813 5.01812 0.718875C4.60099 1.18037 4.39243 1.79275 4.44568 2.40956L9.69968 62.3158C9.77955 63.2388 10.4186 64.0065 11.3061 64.2594L34.8958 70.9157C35.0955 70.9734 35.2952 71 35.4993 71C35.7034 71 35.9076 70.9734 36.1028 70.9201L59.6837 64.2683C60.5712 64.0154 61.2057 63.2433 61.2901 62.3247L66.5529 2.414C66.6108 1.79275 66.4021 1.18037 65.9805 0.718875ZM57.0079 60.4077L35.4993 66.4737L13.9863 60.4033L9.07843 4.4375H61.9202L57.0079 60.4077Z" fill="#414554"/>
<path d="M51.0305 31.0625H22.1868V17.75H51.0305C52.2553 17.75 53.2493 16.756 53.2493 15.5312C53.2493 14.3065 52.2553 13.3125 51.0305 13.3125H19.968C18.7433 13.3125 17.7493 14.3065 17.7493 15.5312V33.2812C17.7493 34.506 18.7433 35.5 19.968 35.5H48.4745L46.8105 47.1396L35.4993 50.9114L24.4055 47.215V42.1562C24.4055 40.9315 23.4115 39.9375 22.1868 39.9375C20.962 39.9375 19.968 40.9315 19.968 42.1562V48.8125C19.968 49.7666 20.5804 50.6141 21.4856 50.9203L34.7981 55.3578C35.0245 55.4288 35.2641 55.4688 35.4993 55.4688C35.7389 55.4688 35.9696 55.4288 36.2004 55.3534L49.5129 50.9159C50.3116 50.6496 50.8885 49.9574 51.0083 49.1231L53.2271 33.5919C53.3203 32.9573 53.1295 32.3094 52.7079 31.8258C52.2863 31.3421 51.674 31.0625 51.0305 31.0625Z" fill="#414554"/>
</svg>
