<svg width="154" height="154" viewBox="0 0 154 154" fill="none" xmlns="http://www.w3.org/2000/svg">
<g clip-path="url(#clip0)">
<path d="M154 64.5806H148.419L140.1 68.9577C139.163 68.4411 138.19 68.0032 137.139 67.7401L126.675 65.1216V63.9318C131.304 60.7008 134.129 55.3632 134.129 49.6774V45.3355C134.129 35.6862 126.568 27.6112 117.276 27.3299C116.804 27.3177 116.339 27.3347 115.872 27.3578L118.585 21.0062L105.432 7.8567L97.6787 12.9033C94.7327 11.2441 91.617 9.95246 88.3812 9.04648L86.4661 0H67.5363L65.6213 9.04891C62.3854 9.95489 59.2672 11.2466 56.3237 12.9057L48.5701 7.85912L35.4279 21.0013L38.0949 27.3578C37.993 27.3529 37.896 27.3347 37.7941 27.3323C33.0374 27.194 28.5572 28.9296 25.154 32.2333C21.746 35.5346 19.871 39.9651 19.871 44.7097V49.6774C19.871 55.3632 22.6932 60.6984 27.3226 63.9294V65.1216L20.4968 66.828L8.12473 59.6129H0V111.082L24.4361 119.226H29.1952L29.7895 117.145L37.2799 121.641C37.4024 125.713 40.6685 128.99 44.7376 129.133C44.8807 133.185 48.1371 136.442 52.1892 136.585C52.3323 140.637 55.5887 143.894 59.6408 144.037C59.7888 148.183 63.1847 151.516 67.3653 151.516C68.9177 151.516 70.4398 151.032 71.7194 150.17L73.9194 152.113C75.2984 153.327 77.074 154 78.9175 154H79.3771C83.5105 154 86.8736 150.659 86.9258 146.539C91.0142 146.487 94.3252 143.176 94.3774 139.087C98.4683 139.035 101.782 135.719 101.829 131.628C105.957 131.531 109.29 128.158 109.29 124.007C109.29 123.757 109.278 123.511 109.253 123.262L154 100.89V64.5806ZM129.161 45.3355V49.6774C129.161 54.086 126.779 58.2048 122.944 60.4255L121.702 61.1435L121.712 69.0038L134.122 72.1038L106.806 86.4807V79.7895C106.806 76.4506 105.458 73.3931 103.249 71.1336L111.774 69.0038V61.1374L110.535 60.4206C106.702 58.2048 104.323 54.086 104.323 49.6774V44.7097C104.323 41.3223 105.662 38.1543 108.096 35.7954C110.527 33.4377 113.754 32.1666 117.126 32.2976C123.762 32.4965 129.161 38.346 129.161 45.3355ZM80.7452 84.528L69.5011 80.9344C64.3769 79.2922 58.8306 79.0473 53.5852 80.2091L52.1613 80.5245V79.7895C52.1613 76.3645 54.4839 73.3906 57.8046 72.5586L72.0323 69.0038V61.1374L70.7927 60.4206C66.9602 58.2048 64.5806 54.086 64.5806 49.6774V44.7097C64.5806 41.3223 65.9196 38.1543 68.3538 35.7954C70.7855 33.4377 74.0322 32.1666 77.3845 32.2976C84.0198 32.4965 89.4194 38.346 89.4194 45.3355V49.6774C89.4194 54.086 87.0374 58.2048 83.2024 60.4255L81.9605 61.1435L81.9702 69.0038L96.1954 72.5586C99.5161 73.3906 101.839 76.3645 101.839 79.7895V89.0967L101.225 89.4194H99.7029L84.4322 85.0556C83.2291 84.7148 81.9896 84.5753 80.7452 84.528ZM52.718 37.1756C57.3825 28.1376 66.771 22.3548 77 22.3548C87.132 22.3548 96.4804 28.06 101.18 36.9755C99.9976 39.3466 99.3548 41.9723 99.3548 44.7097V49.6774C99.3548 55.3632 102.177 60.6984 106.806 63.9294V65.1216L96.871 67.6091L86.9331 65.1216V63.9318C91.5624 60.7008 94.3871 55.3632 94.3871 49.6774V45.3355C94.3871 35.6862 86.8263 27.6112 77.5336 27.3299C72.7794 27.1904 68.2968 28.9272 64.8936 32.2309C61.4879 35.5346 59.6129 39.9651 59.6129 44.7097V49.6774C59.6129 55.3632 62.4352 60.6984 67.0645 63.9294V65.1216L57.129 67.6091L47.1911 65.1216V63.9318C51.8205 60.7008 54.6452 55.3632 54.6452 49.6774V45.3355C54.6452 42.4126 53.9417 39.6376 52.718 37.1756ZM41.2944 22.1535L49.2299 14.218L56.2146 18.7637L57.5511 17.9438C60.8997 15.8917 64.5188 14.389 68.3064 13.483L69.8346 13.1167L71.5629 4.96774H82.4395L84.163 13.1143L85.6911 13.4794C89.4788 14.3866 93.0979 15.8893 96.4465 17.9414L97.783 18.7612L104.768 14.2156L112.694 22.1438L109.876 28.7404C107.959 29.5651 106.181 30.7258 104.633 32.226C104.531 32.3255 104.444 32.4322 104.344 32.5341C98.4925 23.2317 88.1471 17.3871 77 17.3871C65.7729 17.3871 55.3983 23.2863 49.561 32.6833C47.9989 31.0484 46.1408 29.724 44.0814 28.7986L41.2944 22.1535ZM32.2903 69.0038V61.1374L31.0508 60.4206C27.2183 58.2048 24.8387 54.086 24.8387 49.6774V44.7097C24.8387 41.3223 26.1777 38.1543 28.6118 35.7954C31.0435 33.4377 34.2769 32.1666 37.6425 32.2976C44.2779 32.4965 49.6774 38.346 49.6774 45.3355V49.6774C49.6774 54.086 47.2954 58.2048 43.4605 60.4255L42.2185 61.1435L42.2282 69.0038L50.7508 71.1336C48.5422 73.3931 47.1936 76.4506 47.1936 79.7895V81.6294L39.446 83.3516L39.6473 82.6481L39.7419 78.0576L26.6422 70.4156L32.2903 69.0038ZM4.96774 64.5806H6.77849L24.6422 75L15.6285 111.054L4.96774 107.499V64.5806ZM25.2414 114.258L20.3525 112.629L29.1091 77.6064L34.7742 80.9102V81.6197L25.45 114.258H25.2414ZM42.2258 121.409C42.2258 120.676 42.5217 119.958 43.0408 119.439L47.407 115.073C47.9261 114.554 48.6441 114.258 49.3766 114.258C50.9121 114.258 52.1613 115.507 52.1613 117.043C52.1613 117.775 51.8654 118.493 51.3463 119.012L46.9801 123.379C46.461 123.898 45.743 124.194 45.0105 124.194C43.475 124.194 42.2258 122.944 42.2258 121.409ZM49.6774 128.861C49.6774 128.128 49.9734 127.41 50.4924 126.891L54.8586 122.525C55.3777 122.006 56.0957 121.71 56.8283 121.71C58.3637 121.71 59.6129 122.959 59.6129 124.494C59.6129 125.227 59.317 125.945 58.7979 126.464L54.4317 130.83C53.9126 131.349 53.1946 131.645 52.4621 131.645C50.9266 131.645 49.6774 130.396 49.6774 128.861ZM57.129 136.312C57.129 135.58 57.425 134.862 57.9441 134.342L62.3102 129.976C62.8293 129.457 63.5473 129.161 64.2799 129.161C65.8153 129.161 67.0645 130.411 67.0645 131.946C67.0645 132.678 66.7686 133.396 66.2495 133.916L61.8833 138.282C61.3642 138.801 60.6462 139.097 59.9137 139.097C58.3782 139.097 57.129 137.848 57.129 136.312ZM67.3653 146.548C65.8299 146.548 64.5806 145.299 64.5806 143.764C64.5806 143.031 64.8766 142.313 65.3957 141.794L69.7618 137.428C70.2809 136.909 70.9989 136.613 71.7315 136.613C73.2669 136.613 74.5161 137.862 74.5161 139.398C74.5161 140.13 74.2202 140.848 73.7011 141.367L69.3349 145.733C68.8158 146.252 68.0978 146.548 67.3653 146.548ZM79.3771 149.032H78.9175C78.2844 149.032 77.678 148.802 77.2062 148.383L75.3481 146.745L77.2135 144.88C77.8793 144.214 78.396 143.422 78.778 142.572L81.0363 144.451C81.6269 144.944 81.9677 145.669 81.9677 146.442C81.9677 147.87 80.8059 149.032 79.3771 149.032ZM101.652 126.677H101.223C100.599 126.677 99.9904 126.457 99.5137 126.056L86.0441 114.832L82.8616 118.65L95.9419 129.548C96.5302 130.041 96.871 130.766 96.871 131.538C96.871 132.967 95.7091 134.129 94.2804 134.129H93.7382C93.1355 134.129 92.546 133.916 92.0815 133.527L78.59 122.286L75.4076 126.104L88.4879 137.003C89.0786 137.492 89.4194 138.217 89.4194 138.99C89.4194 140.419 88.2575 141.581 86.8288 141.581C85.8755 141.581 84.9464 141.242 84.2151 140.635L78.6713 136.014C77.45 133.518 74.9406 131.777 72.0019 131.673C71.8588 127.621 68.6024 124.365 64.5503 124.221C64.4072 120.169 61.1508 116.913 57.0987 116.77C56.9532 112.623 53.5573 109.29 49.3766 109.29C47.3354 109.29 45.3379 110.117 43.8947 111.561L39.5285 115.927C39.2677 116.188 39.0518 116.484 38.8323 116.777L31.2024 112.199L37.8912 88.7887L54.6597 85.0605C59.0586 84.0769 63.6965 84.2903 67.9863 85.6632L71.6454 86.8336L59.2406 93.036C56.4062 94.4562 54.6452 97.3076 54.6452 100.478V100.969C54.6452 105.557 58.3782 109.29 62.9664 109.29C64.4739 109.29 65.9572 108.88 67.2464 108.103L76.4955 102.557C78.3535 101.443 80.8471 101.687 82.4517 103.13L103.438 122.018C104 122.527 104.323 123.25 104.323 124.007C104.323 125.48 103.126 126.677 101.652 126.677ZM149.032 97.8194L107.186 118.744C107.05 118.6 106.908 118.463 106.759 118.33L85.776 99.4422C83.9374 97.783 81.5602 96.871 79.0836 96.871C77.2729 96.871 75.4949 97.3634 73.9376 98.2973L64.685 103.846C64.1659 104.159 63.5728 104.323 62.9664 104.323C61.1156 104.323 59.6129 102.82 59.6129 100.969V100.478C59.6129 99.1984 60.3236 98.051 61.4661 97.4798L75.3214 90.5521C77.6925 89.3648 80.5075 89.0992 83.0629 89.8341L98.672 94.2925L102.452 94.3871L149.032 69.871V97.8194Z" fill="#5B616A"/>
</g>
<defs>
<clipPath id="clip0">
<rect width="154" height="154" fill="white"/>
</clipPath>
</defs>
</svg>
