<svg width="144" height="144" viewBox="0 0 144 144" fill="none" xmlns="http://www.w3.org/2000/svg">
<g clip-path="url(#clip0)">
<path d="M8.9187 107.938C11.2676 109.348 63.7712 140.871 66.4069 142.453C69.839 144.514 74.1335 144.517 77.5712 142.453C79.084 141.545 133.41 108.927 135.06 107.936C138.305 105.988 140.32 102.427 140.321 98.643C140.321 95.1142 140.321 81.2802 140.321 79.0697C140.321 77.9052 139.376 76.9603 138.211 76.9603C137.046 76.9603 136.101 77.9052 136.101 79.0697V81.3362L118.246 92.0567V75.9221L136.101 65.2017V84.6771C136.101 85.8417 137.046 86.7865 138.211 86.7865C139.376 86.7865 140.321 85.8417 140.321 84.6771C140.321 81.8613 140.321 47.5829 140.321 45.3615C140.32 41.5613 138.321 38.0259 135.059 36.067C130.946 33.5973 112.942 22.7879 110.073 21.0652C109.074 20.4653 107.778 20.7894 107.178 21.7881C106.578 22.7868 106.902 24.0831 107.901 24.683L112.039 27.167L94.0627 37.96C82.9973 31.3165 87.3578 33.9346 76.0858 27.167C88.4213 19.7611 84.5837 22.065 94.0616 16.374L109.97 25.925C110.968 26.5238 112.264 26.2008 112.865 25.2021C113.465 24.2034 113.14 22.9071 112.142 22.3072C99.8734 14.9398 105.63 18.3977 77.5701 1.55019C74.1269 -0.517441 69.8489 -0.516342 66.4069 1.55019C64.6633 2.59718 8.9187 36.0659 8.9187 36.0659C5.65027 38.0281 3.65625 41.5668 3.65625 45.3626V98.6419C3.65625 102.428 5.67224 105.99 8.9187 107.938ZM29.9498 57.3992C43.7519 65.6862 41.8557 64.5469 47.8048 68.1196V84.2531L29.9498 73.5337V57.3992ZM114.027 73.5337L96.1721 84.2542V68.1196L114.027 57.3992V73.5337ZM91.9534 70.652V86.7865L74.0984 97.507V81.3725C75.9463 80.2628 89.1134 72.3571 91.9534 70.652ZM69.8785 81.3725V97.507L52.0236 86.7865V70.652C53.8517 71.7495 68.157 80.3386 69.8785 81.3725ZM52.0236 91.7073L69.8785 102.428V118.562L52.0236 107.842V91.7073ZM74.0984 102.428L91.9534 91.7073V107.842L74.0984 118.561V102.428ZM29.9498 78.4545L47.8048 89.1749V105.309L29.9498 94.589V78.4545ZM114.027 94.589L96.1721 105.309V89.1749L114.027 78.4545V94.589ZM89.9648 66.9254L71.9879 77.7173L54.0121 66.9254L71.9879 56.1325C74.3005 57.5211 87.4687 65.4269 89.9648 66.9254ZM67.89 53.6726L49.9142 64.4656C48.1772 63.4219 33.7621 54.768 31.9384 53.6726L49.9142 42.8797L67.89 53.6726ZM25.7311 71.0003L7.8761 60.2798V45.3626C7.8761 44.9747 7.91016 44.588 7.97717 44.2068L25.7311 54.8657V71.0003ZM118.246 71.0003V54.8657L136 44.2068C136.067 44.588 136.101 44.9736 136.101 45.3615V60.2798L118.246 71.0003ZM94.0627 64.4645C91.7501 63.0769 78.5819 55.1701 76.0869 53.6715C78.6116 52.1554 91.7358 44.276 94.0627 42.8797L112.039 53.6715L94.0627 64.4645ZM89.9648 40.4187C87.4852 41.9074 74.4631 49.7263 71.9879 51.2117L54.0121 40.4187C56.4719 38.9422 69.5402 31.0957 71.9879 29.6257C79.6564 34.2301 80.811 34.9234 89.9648 40.4187ZM49.9142 16.3729L67.89 27.1659C65.4302 28.6425 52.3619 36.4889 49.9142 37.9589C47.3324 36.4087 33.4951 28.1008 31.9384 27.1659L49.9142 16.3729ZM25.7311 75.9221V92.0556L7.8761 81.3362V65.2017L25.7311 75.9221ZM7.875 98.6419V86.257L25.7311 96.9763V113.111L11.0896 104.322C9.10767 103.131 7.875 100.954 7.875 98.6419ZM29.9498 99.5098L47.8048 110.23V126.364L29.9498 115.644V99.5098ZM52.0236 128.897V112.763L69.8785 123.483V139.436C69.427 139.285 68.9908 139.084 68.5778 138.836L52.0236 128.897ZM75.3992 138.836C74.9872 139.084 74.5499 139.285 74.0984 139.436V123.483L91.9534 112.763V128.897L75.3992 138.836ZM96.1721 110.23L114.027 99.5098V115.644L96.1721 126.364V110.23ZM136.102 98.6419C136.101 100.953 134.87 103.13 132.89 104.32L118.246 113.111V96.9763L136.101 86.257V98.6419H136.102ZM133.976 40.5011L116.136 51.2117C110.631 47.9059 113.297 49.5066 98.1606 40.4187L116.136 29.6268L132.887 39.6837C133.278 39.9177 133.643 40.1924 133.976 40.5011ZM68.5788 5.16798C70.6816 3.90456 73.2953 3.90456 75.3992 5.16798L89.9648 13.9131C81.5449 18.9679 88.2631 14.9337 71.9879 24.705L54.0121 13.9131L68.5788 5.16798ZM11.0885 39.6837C11.172 39.6332 23.9821 31.9428 27.8405 29.6268L45.8163 40.4187C30.8254 49.4198 33.4028 47.8718 27.8405 51.2117L10.0009 40.5011C10.3337 40.1924 10.6985 39.9177 11.0885 39.6837Z" fill="#4C505E"/>
<path d="M38 48V60" stroke="#4C505E" stroke-width="4"/>
<path d="M46 43L46 64" stroke="#4C505E" stroke-width="4"/>
<path d="M54 43L54 64M62 47.5L62 60" stroke="#4C505E" stroke-width="4"/>
</g>
<defs>
<clipPath id="clip0">
<rect width="144" height="144" fill="white"/>
</clipPath>
</defs>
</svg>
