<svg width="133" height="133" viewBox="0 0 133 133" fill="none" xmlns="http://www.w3.org/2000/svg">
<path d="M14.3652 7.4812C11.2221 7.4812 8.65039 10.0529 8.65039 13.196C8.65039 16.3392 11.2221 18.9109 14.3652 18.9109C17.5084 18.9109 20.0801 16.3392 20.0801 13.196C20.0801 10.0529 17.5084 7.4812 14.3652 7.4812ZM14.3652 15.0144C13.3521 15.0144 12.5469 14.2091 12.5469 13.196C12.5469 12.183 13.3521 11.3777 14.3652 11.3777C15.3783 11.3777 16.1836 12.183 16.1836 13.196C16.1836 14.1832 15.3523 15.0144 14.3652 15.0144Z" fill="#4C505E"/>
<path d="M28.9121 7.4812C25.7689 7.4812 23.1973 10.0529 23.1973 13.196C23.1973 16.3392 25.7689 18.9109 28.9121 18.9109C32.0553 18.9109 34.627 16.3392 34.627 13.196C34.627 10.0529 32.0553 7.4812 28.9121 7.4812ZM28.9121 15.0144C27.899 15.0144 27.0938 14.2091 27.0938 13.196C27.0938 12.183 27.899 11.3777 28.9121 11.3777C29.9252 11.3777 30.7305 12.183 30.7305 13.196C30.7305 14.1832 29.8992 15.0144 28.9121 15.0144Z" fill="#4C505E"/>
<path d="M43.4326 7.4812C40.2895 7.4812 37.7178 10.0529 37.7178 13.196C37.7178 16.3392 40.2895 18.9109 43.4326 18.9109C46.5758 18.9109 49.1475 16.3392 49.1475 13.196C49.1475 10.0529 46.6018 7.4812 43.4326 7.4812ZM43.4326 15.0144C42.4195 15.0144 41.6143 14.2091 41.6143 13.196C41.6143 12.183 42.4195 11.3777 43.4326 11.3777C44.4457 11.3777 45.251 12.183 45.251 13.196C45.251 14.1832 44.4457 15.0144 43.4326 15.0144Z" fill="#4C505E"/>
<path d="M124.428 0H8.57227C3.84453 0 0 3.84453 0 8.57227V102.763C0 107.049 3.16914 110.608 7.27344 111.232C7.68906 111.31 8.13066 111.336 8.57227 111.336H46.4461V118.323H40.5754C36.6529 118.323 33.4578 121.518 33.4578 125.441V129.623C33.4578 131.415 34.9125 132.87 36.7049 132.87H85.2031C86.2682 132.87 87.1514 131.987 87.1514 130.922C87.1514 129.857 86.2682 128.974 85.2031 128.974H37.3543V125.415C37.3543 123.648 38.809 122.194 40.5754 122.194H92.2947C94.0611 122.194 95.5158 123.648 95.5158 125.415V128.974H81.5664C80.5014 128.974 79.6182 129.857 79.6182 130.922C79.6182 131.987 80.5014 132.87 81.5664 132.87H96.1652C97.9576 132.87 99.4123 131.415 99.4123 129.623V125.415C99.4123 121.492 96.2172 118.297 92.2947 118.297H86.424V111.31H124.298C124.739 111.31 125.181 111.284 125.597 111.206C129.701 110.582 132.87 107.023 132.87 102.737V93.4117L133 8.57227C133 3.84453 129.155 0 124.428 0ZM82.5275 118.297H50.3426V111.31H82.5275V118.297ZM128.948 102.737C128.948 105.153 127.103 107.153 124.739 107.387C124.584 107.413 124.428 107.413 124.272 107.413H8.57227C8.41641 107.413 8.26055 107.413 8.10469 107.387C5.74082 107.153 3.89648 105.153 3.89648 102.737V95.36H128.974V102.737H128.948ZM128.948 91.4635H3.89648V26.4701H128.974V91.4635H128.948ZM128.948 22.5736H4.02637V8.57227C4.02637 6.00059 6.13047 3.89648 8.70215 3.89648H124.272C126.844 3.89648 128.948 6.00059 128.948 8.57227V22.5736Z" fill="#4C505E"/>
<path d="M10.6245 35.536H15.7938C16.8589 35.536 17.7421 34.6527 17.7421 33.5877C17.7421 32.5227 16.8589 31.6395 15.7938 31.6395H10.6245C9.55947 31.6395 8.67627 32.5227 8.67627 33.5877C8.67627 34.6527 9.55947 35.536 10.6245 35.536Z" fill="#4C505E"/>
<path d="M22.3916 35.536H53.9791C55.0441 35.536 55.9273 34.6527 55.9273 33.5877C55.9273 32.5227 55.0441 31.6395 53.9791 31.6395H22.3916C21.3266 31.6395 20.4434 32.5227 20.4434 33.5877C20.4434 34.6527 21.3006 35.536 22.3916 35.536Z" fill="#4C505E"/>
<path d="M51.7195 44.1082C52.7846 44.1082 53.6678 43.225 53.6678 42.16C53.6678 41.0949 52.7846 40.2117 51.7195 40.2117H38.9131C37.848 40.2117 36.9648 41.0949 36.9648 42.16C36.9648 43.225 37.848 44.1082 38.9131 44.1082H51.7195Z" fill="#4C505E"/>
<path d="M34.6269 42.16C34.6269 41.0949 33.7437 40.2117 32.6786 40.2117H28.2886C27.2235 40.2117 26.3403 41.0949 26.3403 42.16C26.3403 43.225 27.2235 44.1082 28.2886 44.1082H32.6786C33.7437 44.1082 34.6269 43.225 34.6269 42.16Z" fill="#4C505E"/>
<path d="M10.6245 44.1082H21.4048C22.4698 44.1082 23.353 43.225 23.353 42.16C23.353 41.0949 22.4698 40.2117 21.4048 40.2117H10.6245C9.55947 40.2117 8.67627 41.0949 8.67627 42.16C8.67627 43.225 9.55947 44.1082 10.6245 44.1082Z" fill="#4C505E"/>
<path d="M55.3563 84.3199H52.7066V67.4871C52.7066 65.5908 51.174 64.0582 49.2777 64.0582H35.4582C33.5619 64.0582 32.0293 65.5908 32.0293 67.4871V86.2682C32.0293 87.3332 32.9125 88.2164 33.9775 88.2164H120.661C121.726 88.2164 122.61 87.3332 122.61 86.2682V57.1225C122.61 55.2262 121.077 53.6936 119.181 53.6936H105.361C103.465 53.6936 101.932 55.2262 101.932 57.1225V84.3199H99.2826V37.1465C99.2826 36.0815 98.3994 35.1983 97.3344 35.1983C96.2693 35.1983 95.3861 36.0815 95.3861 37.1465V84.3199H82.5277V35.2762H95.3861V41.5106C95.3861 42.5756 96.2693 43.4588 97.3344 43.4588C98.3994 43.4588 99.2826 42.5756 99.2826 41.5106V34.8086C99.2826 32.9123 97.75 31.3797 95.8537 31.3797H82.0861C80.1898 31.3797 78.6572 32.9123 78.6572 34.8086V84.3459H76.0076V50.1088C76.0076 48.2125 74.475 46.6799 72.5787 46.6799H58.7592C56.8629 46.6799 55.3303 48.2125 55.3303 50.1088L55.3563 84.3199ZM48.8102 84.3199H35.9518V67.9807H48.8102V84.3199ZM105.855 57.5901H118.713V84.3199H105.855V57.5901ZM59.2268 50.5764H72.0852V84.3199H59.2268V50.5764Z" fill="#4C505E"/>
</svg>
