<svg width="24" height="30" viewBox="0 0 24 30" fill="none" xmlns="http://www.w3.org/2000/svg">
<path d="M20.5547 30H20.3947C19.5551 30 18.8096 29.4949 18.4954 28.7131C18.3517 28.3559 18.01 28.125 17.625 28.125C17.24 28.125 16.8983 28.3559 16.7545 28.7133C16.4404 29.4949 15.6949 30 14.8553 30H14.7697C13.9301 30 13.1846 29.4949 12.8704 28.7131C12.7267 28.3559 12.385 28.125 12 28.125C11.615 28.125 11.2733 28.3559 11.1295 28.7133C10.8154 29.4949 10.0699 30 9.23027 30H9.14473C8.30508 30 7.55959 29.4949 7.24535 28.7131C7.10174 28.3559 6.76002 28.125 6.375 28.125C5.98998 28.125 5.64826 28.3559 5.50453 28.7133C5.19041 29.4949 4.44492 30 3.60527 30H3.44531C1.95914 30 0.75 28.7909 0.75 27.3047V2.69531C0.75 1.20914 1.95914 0 3.44531 0H3.60527C4.44492 0 5.19041 0.505137 5.50465 1.28689C5.64826 1.64408 5.98998 1.875 6.375 1.875C6.76002 1.875 7.10174 1.64408 7.24547 1.28666C7.55959 0.505137 8.30508 0 9.14473 0H9.23027C10.0699 0 10.8154 0.505137 11.1296 1.28689C11.2733 1.64408 11.615 1.875 12 1.875C12.385 1.875 12.7267 1.64408 12.8705 1.28666C13.1846 0.505137 13.9301 0 14.7697 0H14.8553C15.6949 0 16.4404 0.505137 16.7546 1.28689C16.8983 1.64408 17.24 1.875 17.625 1.875C18.01 1.875 18.3517 1.64408 18.4955 1.28666C18.8096 0.505137 19.5551 0 20.3947 0H20.5547C22.0409 0 23.25 1.20914 23.25 2.69531V27.3047C23.25 28.7909 22.0409 30 20.5547 30ZM17.625 26.25C18.7796 26.25 19.8041 26.9422 20.235 28.0136C20.2622 28.0813 20.3249 28.125 20.3947 28.125H20.5547C21.007 28.125 21.375 27.757 21.375 27.3047V2.69531C21.375 2.24297 21.007 1.875 20.5547 1.875H20.3947C20.3249 1.875 20.2622 1.91865 20.2351 1.98615C19.8041 3.05777 18.7796 3.75 17.625 3.75C16.4704 3.75 15.4459 3.05777 15.015 1.98639C14.9878 1.91865 14.9251 1.875 14.8553 1.875H14.7697C14.6999 1.875 14.6372 1.91865 14.6101 1.98615C14.1791 3.05777 13.1546 3.75 12 3.75C10.8454 3.75 9.8209 3.05777 9.39 1.98639C9.36275 1.91865 9.30006 1.875 9.23027 1.875H9.14473C9.07494 1.875 9.01225 1.91865 8.98512 1.98615C8.5541 3.05777 7.52959 3.75 6.375 3.75C5.22041 3.75 4.1959 3.05777 3.765 1.98639C3.73775 1.91865 3.67506 1.875 3.60527 1.875H3.44531C2.99297 1.875 2.625 2.24297 2.625 2.69531V27.3047C2.625 27.757 2.99297 28.125 3.44531 28.125H3.60527C3.67506 28.125 3.73775 28.0813 3.76488 28.0138C4.1959 26.9422 5.22041 26.25 6.375 26.25C7.52959 26.25 8.5541 26.9422 8.985 28.0136C9.01225 28.0813 9.07488 28.125 9.14473 28.125H9.23027C9.30006 28.125 9.36275 28.0813 9.38988 28.0138C9.8209 26.9422 10.8454 26.25 12 26.25C13.1546 26.25 14.1791 26.9422 14.61 28.0136C14.6372 28.0813 14.6999 28.125 14.7697 28.125H14.8553C14.9251 28.125 14.9878 28.0813 15.0149 28.0138C15.4459 26.9422 16.4704 26.25 17.625 26.25Z" fill="black"/>
<path d="M12 14.0625C10.9661 14.0625 10.125 13.2214 10.125 12.1875C10.125 11.1536 10.9661 10.3125 12 10.3125C13.0339 10.3125 13.875 11.1536 13.875 12.1875C13.875 12.7052 14.2948 13.125 14.8125 13.125C15.3302 13.125 15.75 12.7052 15.75 12.1875C15.75 10.4433 14.5531 8.97352 12.9375 8.55615V7.5C12.9375 6.98227 12.5177 6.5625 12 6.5625C11.4823 6.5625 11.0625 6.98227 11.0625 7.5V8.55615C9.44695 8.97352 8.25 10.4433 8.25 12.1875C8.25 14.2553 9.93223 15.9375 12 15.9375C13.0339 15.9375 13.875 16.7786 13.875 17.8125C13.875 18.8464 13.0339 19.6875 12 19.6875C10.9661 19.6875 10.125 18.8464 10.125 17.8125C10.125 17.2948 9.70523 16.875 9.1875 16.875C8.66977 16.875 8.25 17.2948 8.25 17.8125C8.25 19.5567 9.44695 21.0265 11.0625 21.4438V22.5C11.0625 23.0177 11.4823 23.4375 12 23.4375C12.5177 23.4375 12.9375 23.0177 12.9375 22.5V21.4438C14.5531 21.0265 15.75 19.5567 15.75 17.8125C15.75 15.7447 14.0678 14.0625 12 14.0625Z" fill="black"/>
</svg>
