<svg width="162" height="162" viewBox="0 0 162 162" fill="none" xmlns="http://www.w3.org/2000/svg">
<g clip-path="url(#clip0)">
<path d="M2.37305 118.283C3.68317 118.283 4.74609 117.221 4.74609 115.91V46.7935H144.955V88.5743C144.955 89.8857 146.018 90.9474 147.328 90.9474C148.639 90.9474 149.701 89.8857 149.701 88.5743V25.9799C149.701 18.024 143.228 11.5513 135.274 11.5513H129.051V8.61218C129.051 5.43329 126.465 2.84766 123.286 2.84766H118.877C115.7 2.84766 113.114 5.43329 113.114 8.61218V11.5513H97.3753V8.61218C97.3753 5.43329 94.7896 2.84766 91.6107 2.84766H87.2021C84.0244 2.84766 81.4388 5.43329 81.4388 8.61218V11.5513H65.6988V8.61218C65.6988 5.43329 63.1132 2.84766 59.9343 2.84766H55.5268C52.3479 2.84766 49.7623 5.43329 49.7623 8.61218V11.5513H34.0236V8.61218C34.0236 5.43329 31.4379 2.84766 28.259 2.84766H23.8516C20.6727 2.84766 18.0871 5.43329 18.0871 8.61218V11.5513H14.4286C6.47273 11.5513 0 18.024 0 25.9799V115.91C0 117.221 1.06293 118.283 2.37305 118.283ZM117.86 8.61218C117.86 8.05106 118.317 7.59375 118.879 7.59375H123.287C123.848 7.59375 124.304 8.05106 124.304 8.61218V20.1412C124.304 20.7024 123.848 21.1597 123.287 21.1597H118.879C118.317 21.1597 117.86 20.7036 117.86 20.1412V8.61218ZM86.1849 8.61218C86.1849 8.05106 86.6409 7.59375 87.2021 7.59375H91.6107C92.1719 7.59375 92.6292 8.05106 92.6292 8.61218V20.1412C92.6292 20.7024 92.1719 21.1597 91.6107 21.1597H87.2021C86.6409 21.1597 86.1849 20.7036 86.1849 20.1412V8.61218ZM54.5084 8.61218C54.5084 8.05106 54.9657 7.59375 55.5268 7.59375H59.9355C60.4966 7.59375 60.9539 8.05106 60.9539 8.61218V20.1412C60.9539 20.7024 60.4966 21.1597 59.9355 21.1597H55.5268C54.9657 21.1597 54.5084 20.7036 54.5084 20.1412V8.61218ZM22.8332 8.61218C22.8332 8.05106 23.2905 7.59375 23.8516 7.59375H28.2603C28.8214 7.59375 29.2775 8.05106 29.2775 8.61218V20.1412C29.2775 20.7024 28.8214 21.1597 28.2603 21.1597H23.8516C23.2905 21.1597 22.8332 20.7036 22.8332 20.1412V8.61218ZM14.4286 16.2974H18.0871V20.1412C18.0871 23.3201 20.6727 25.9058 23.8516 25.9058H28.2603C31.4379 25.9058 34.0236 23.3201 34.0236 20.1412V16.2974H49.7635V20.1412C49.7635 23.3201 52.3492 25.9058 55.5268 25.9058H59.9355C63.1144 25.9058 65.7 23.3201 65.7 20.1412V16.2974H81.4388V20.1412C81.4388 23.3201 84.0244 25.9058 87.2033 25.9058H91.612C94.7896 25.9058 97.3753 23.3201 97.3753 20.1412V16.2974H113.114V20.1412C113.114 23.3201 115.7 25.9058 118.879 25.9058H123.287C126.465 25.9058 129.051 23.3201 129.051 20.1412V16.2974H135.274C140.613 16.2974 144.956 20.6406 144.956 25.9799V42.0474H4.74609V25.9799C4.74609 20.6406 9.08926 16.2974 14.4286 16.2974Z" fill="#414554"/>
<path d="M43.1006 140.352H6.17363C5.38632 140.352 4.74609 139.712 4.74609 138.925V114.636C4.74609 113.325 3.68317 112.263 2.37305 112.263C1.06293 112.263 0 113.325 0 114.636V138.925C0 142.328 2.76979 145.098 6.17363 145.098H43.1006C44.4108 145.098 45.4737 144.035 45.4737 142.725C45.4737 141.414 44.4108 140.352 43.1006 140.352Z" fill="#414554"/>
<path d="M26.7869 53.7139H18.5381C17.228 53.7139 16.165 54.7768 16.165 56.0869C16.165 57.3983 17.228 58.46 18.5381 58.46H26.7869C28.097 58.46 29.1599 57.3983 29.1599 56.0869C29.1599 54.7768 28.097 53.7139 26.7869 53.7139Z" fill="#414554"/>
<path d="M43.8877 58.46H52.1365C53.4466 58.46 54.5096 57.3983 54.5096 56.0869C54.5096 54.7768 53.4466 53.7139 52.1365 53.7139H43.8877C42.5776 53.7139 41.5146 54.7768 41.5146 56.0869C41.5146 57.3983 42.5776 58.46 43.8877 58.46Z" fill="#414554"/>
<path d="M69.2373 58.46H77.4849C78.795 58.46 79.8579 57.3983 79.8579 56.0869C79.8579 54.7768 78.795 53.7139 77.4849 53.7139H69.2373C67.9259 53.7139 66.8643 54.7768 66.8643 56.0869C66.8643 57.3983 67.9259 58.46 69.2373 58.46Z" fill="#414554"/>
<path d="M94.5859 58.46H102.835C104.145 58.46 105.208 57.3983 105.208 56.0869C105.208 54.7768 104.145 53.7139 102.835 53.7139H94.5859C93.2758 53.7139 92.2129 54.7768 92.2129 56.0869C92.2129 57.3983 93.2758 58.46 94.5859 58.46Z" fill="#414554"/>
<path d="M128.183 53.7139H119.935C118.624 53.7139 117.562 54.7768 117.562 56.0869C117.562 57.3983 118.624 58.46 119.935 58.46H128.183C129.493 58.46 130.556 57.3983 130.556 56.0869C130.556 54.7768 129.493 53.7139 128.183 53.7139Z" fill="#414554"/>
<path d="M26.7869 65.647H18.5381C17.228 65.647 16.165 66.7087 16.165 68.02C16.165 69.3314 17.228 70.3931 18.5381 70.3931H26.7869C28.097 70.3931 29.1599 69.3314 29.1599 68.02C29.1599 66.7087 28.097 65.647 26.7869 65.647Z" fill="#414554"/>
<path d="M43.8877 70.3931H52.1365C53.4466 70.3931 54.5096 69.3314 54.5096 68.02C54.5096 66.7087 53.4466 65.647 52.1365 65.647H43.8877C42.5776 65.647 41.5146 66.7087 41.5146 68.02C41.5146 69.3314 42.5776 70.3931 43.8877 70.3931Z" fill="#414554"/>
<path d="M69.2373 70.3931H77.4849C78.795 70.3931 79.8579 69.3314 79.8579 68.02C79.8579 66.7087 78.795 65.647 77.4849 65.647H69.2373C67.9259 65.647 66.8643 66.7087 66.8643 68.02C66.8643 69.3314 67.9259 70.3931 69.2373 70.3931Z" fill="#414554"/>
<path d="M94.5859 70.3931H102.835C104.145 70.3931 105.208 69.3314 105.208 68.02C105.208 66.7087 104.145 65.647 102.835 65.647H94.5859C93.2758 65.647 92.2129 66.7087 92.2129 68.02C92.2129 69.3314 93.2758 70.3931 94.5859 70.3931Z" fill="#414554"/>
<path d="M128.183 65.647H119.935C118.624 65.647 117.562 66.7087 117.562 68.02C117.562 69.3314 118.624 70.3931 119.935 70.3931H128.183C129.493 70.3931 130.556 69.3314 130.556 68.02C130.556 66.7087 129.493 65.647 128.183 65.647Z" fill="#414554"/>
<path d="M43.9458 116.98L56.1472 129.181C57.9121 130.946 60.258 131.918 62.7546 131.918C65.2513 131.918 67.5984 130.946 69.3621 129.181L102.776 95.7672C106.42 92.1236 106.42 86.1947 102.776 82.5511C99.1327 78.9075 93.2038 78.9075 89.5602 82.5511L62.7546 109.357L57.1607 103.764C53.5183 100.12 47.5894 100.12 43.9445 103.764C40.3021 107.407 40.3021 113.336 43.9458 116.98ZM47.3014 107.12C48.1975 106.223 49.3753 105.775 50.5532 105.775C51.7311 105.775 52.909 106.223 53.805 107.12L61.0762 114.391C62.0032 115.318 63.5049 115.318 64.4318 114.391L92.9158 85.9079C94.7104 84.1146 97.6273 84.1146 99.4194 85.9067C101.213 87.7001 101.213 90.6182 99.4194 92.4116L66.0064 125.825C65.1376 126.693 63.9832 127.172 62.7546 127.172C61.5261 127.172 60.3717 126.693 59.5028 125.825L47.3014 113.623C45.508 111.83 45.508 108.913 47.3014 107.12Z" fill="#414554"/>
<path d="M149.701 102.63V83.6934C149.701 82.382 148.639 81.3203 147.328 81.3203C146.018 81.3203 144.955 82.382 144.955 83.6934V99.6027C140.628 97.3594 135.717 96.0901 130.516 96.0901C113.156 96.0901 99.0328 110.213 99.0328 127.574C99.0328 132.121 100.003 136.444 101.745 140.352H37.6797C36.3696 140.352 35.3066 141.414 35.3066 142.725C35.3066 144.035 36.3696 145.098 37.6797 145.098H104.373C110.03 153.512 119.638 159.057 130.516 159.057C147.877 159.057 162 144.934 162 127.574C162 117.429 157.175 108.39 149.701 102.63ZM130.516 154.311C115.773 154.311 103.779 142.317 103.779 127.574C103.779 112.83 115.774 100.836 130.516 100.836C145.259 100.836 157.254 112.83 157.254 127.574C157.254 142.317 145.259 154.311 130.516 154.311Z" fill="#414554"/>
<path d="M130.517 104.265C117.664 104.265 107.208 114.722 107.208 127.574C107.208 140.426 117.664 150.883 130.517 150.883C143.369 150.883 153.824 140.426 153.824 127.574C153.824 114.722 143.368 104.265 130.517 104.265ZM132.641 146.01C132.798 145.693 132.89 145.337 132.89 144.959V142.068C132.89 140.758 131.827 139.695 130.517 139.695C129.206 139.695 128.143 140.758 128.143 142.068V144.959C128.143 145.337 128.234 145.693 128.392 146.01C119.851 145.033 113.057 138.239 112.08 129.698C112.396 129.856 112.753 129.947 113.131 129.947H116.021C117.333 129.947 118.394 128.885 118.394 127.574C118.394 126.262 117.333 125.201 116.021 125.201H113.131C112.753 125.201 112.396 125.292 112.08 125.449C113.057 116.909 119.851 110.114 128.392 109.137C128.234 109.454 128.143 109.81 128.143 110.189V113.08C128.143 114.391 129.206 115.453 130.517 115.453C131.827 115.453 132.89 114.391 132.89 113.08V110.189C132.89 109.81 132.798 109.454 132.641 109.137C141.182 110.114 147.976 116.909 148.953 125.449C148.636 125.292 148.28 125.201 147.902 125.201H145.011C143.701 125.201 142.638 126.262 142.638 127.574C142.638 128.885 143.701 129.947 145.011 129.947H147.902C148.28 129.947 148.636 129.856 148.953 129.698C147.974 138.239 141.182 145.033 132.641 146.01Z" fill="#414554"/>
<path d="M135.747 125.201H132.889V122.767C132.889 121.457 131.826 120.394 130.516 120.394C129.205 120.394 128.143 121.457 128.143 122.767V127.574C128.143 128.885 129.205 129.947 130.516 129.947H135.747C137.057 129.947 138.12 128.885 138.12 127.574C138.12 126.262 137.057 125.201 135.747 125.201Z" fill="#414554"/>
</g>
<defs>
<clipPath id="clip0">
<rect width="162" height="162" fill="white"/>
</clipPath>
</defs>
</svg>
