<svg width="22" height="22" viewBox="0 0 22 22" fill="none" xmlns="http://www.w3.org/2000/svg">
<path d="M21.9837 4.73941C21.9837 4.71427 22.001 4.6898 21.9999 4.66495L15.2863 11.1339L21.9919 17.3962C21.9958 17.3515 21.9837 17.3064 21.9837 17.2607V4.73941Z" fill="#373B3C"/>
<path d="M14.2614 12.1294L11.5207 14.7663C11.382 14.8997 11.2029 14.9666 11.0237 14.9666C10.8482 14.9666 10.6727 14.9026 10.535 14.7742L7.80175 12.2273L1.05235 18.7329C1.21647 18.7919 1.39262 18.8377 1.5771 18.8377H20.4704C20.7443 18.8377 21.0013 18.7542 21.2246 18.6298L14.2614 12.1294Z" fill="#373B3C"/>
<path d="M11.0159 13.2626L21.2618 3.39275C21.0298 3.25483 20.7598 3.16231 20.4704 3.16231H1.57709C1.20021 3.16231 0.854873 3.30864 0.585907 3.53183L11.0159 13.2626Z" fill="#373B3C"/>
<path d="M0 4.9798V17.2605C0 17.4015 0.0324021 17.5374 0.0675761 17.6673L6.73324 11.2484L0 4.9798Z" fill="#373B3C"/>
</svg>
