<?xml version="1.0" encoding="utf-8"?>
<!-- Generator: Adobe Illustrator 22.1.0, SVG Export Plug-In . SVG Version: 6.00 Build 0)  -->
<svg version="1.1" id="Layer_1" xmlns="http://www.w3.org/2000/svg" xmlns:xlink="http://www.w3.org/1999/xlink" x="0px" y="0px"
	 width="512px" height="512px" viewBox="0 0 512 512" style="enable-background:new 0 0 512 512;" xml:space="preserve">
<style type="text/css">
	.st0{fill:#AAC0EE;}
	.st1{fill:#4479F9;}
</style>
<path class="st0" d="M118.8,305.9h99.7c4,0,7.3-3.3,7.3-7.3s-3.3-7.3-7.3-7.3h-99.7c-4,0-7.3,3.3-7.3,7.3S114.7,305.9,118.8,305.9z"
	/>
<path class="st0" d="M286.8,305.9c4,0,7.3-3.3,7.3-7.3s-3.3-7.3-7.3-7.3h-41.4c-4,0-7.3,3.3-7.3,7.3s3.3,7.3,7.3,7.3H286.8z"/>
<path class="st0" d="M306.7,298.6c0,4,3.3,7.3,7.3,7.3h77.9c4,0,7.3-3.3,7.3-7.3s-3.3-7.3-7.3-7.3H314
	C310,291.3,306.7,294.5,306.7,298.6z"/>
<path class="st0" d="M118.8,336h50.1c4,0,7.3-3.3,7.3-7.3s-3.3-7.3-7.3-7.3h-50.1c-4,0-7.3,3.3-7.3,7.3S114.7,336,118.8,336z"/>
<path class="st0" d="M314,321.4H203.8c-4,0-7.3,3.3-7.3,7.3s3.3,7.3,7.3,7.3H314c4,0,7.3-3.3,7.3-7.3S318.1,321.4,314,321.4z"/>
<path class="st0" d="M391.9,321.4h-55.2c-4,0-7.3,3.3-7.3,7.3s3.3,7.3,7.3,7.3h55.2c4,0,7.3-3.3,7.3-7.3S395.9,321.4,391.9,321.4z"
	/>
<path class="st0" d="M497.4,364.3h-21.1v-263c0-16.1-13.1-29.2-29.2-29.2H63.6c-16.1,0-29.2,13.1-29.2,29.2v263H13.3
	c-4,0-7.3,3.3-7.3,7.3v43.8c0,17.2,14,31.2,31.2,31.2h436.3c17.2,0,31.2-14,31.2-31.2v-43.8C504.7,367.5,501.4,364.3,497.4,364.3z
	 M49,101.2c0-8.1,6.6-14.6,14.6-14.6h383.4c8.1,0,14.6,6.6,14.6,14.6v263h-23.9V122c0-8.5-6.9-15.4-15.4-15.4H88.2
	c-8.5,0-15.4,6.9-15.4,15.4v165.4c0,4,3.3,7.3,7.3,7.3c4,0,7.3-3.3,7.3-7.3V122c0-0.4,0.4-0.8,0.8-0.8h334.2c0.4,0,0.8,0.4,0.8,0.8
	v242.2H87.5v-30.1c0-4-3.3-7.3-7.3-7.3c-4,0-7.3,3.3-7.3,7.3v30.1H49L49,101.2L49,101.2z M325.5,378.9l-6.4,14.5H191.5l-6.4-14.5
	H325.5z M490.1,415.4c0,9.2-7.4,16.6-16.6,16.6H37.2c-9.2,0-16.6-7.4-16.6-16.6v-36.5h148.6l9.5,21.8c1.9,4.4,6.3,7.3,11.2,7.3
	h130.8c4.9,0,9.2-2.9,11.2-7.3l9.5-21.8h148.6V415.4z"/>
<path class="st1" d="M203.1,273.5h104.5c9.1,0,17.3-4.7,21.9-12.6s4.6-17.3,0-25.2L280.5,151c-5.3-9.1-14.7-14.5-25.2-14.5
	s-19.9,5.4-25.2,14.5l-12.2,21.1c-2,3.5-0.8,8,2.7,10c3.5,2,8,0.8,10-2.7l12.2-21.1c2.6-4.5,7.3-7.2,12.6-7.2
	c5.2,0,9.9,2.7,12.6,7.2l48.9,84.7c1.9,3.3,1.9,7.3,0,10.6c-1.9,3.3-5.4,5.3-9.2,5.3H203.1c-3.8,0-7.3-2-9.2-5.3
	c-1.9-3.3-1.9-7.3,0-10.6l14.3-24.7c2-3.5,0.8-8-2.7-10c-3.5-2-8-0.8-10,2.7l-14.3,24.7c-4.6,7.9-4.6,17.3,0,25.2
	C185.8,268.8,194,273.5,203.1,273.5z"/>
<path class="st1" d="M262.6,182.9c0-4-3.3-7.3-7.3-7.3s-7.3,3.3-7.3,7.3v40.2c0,4,3.3,7.3,7.3,7.3s7.3-3.3,7.3-7.3V182.9z"/>
<path class="st1" d="M248.3,241.8c-0.2,2.1,0.3,4.5,1.9,6c2.7,2.7,7.6,2.7,10.3,0c1.7-1.7,2.4-4.3,2-6.6
	C261,233.5,249.2,234,248.3,241.8z"/>
<rect x="72.8" y="272.2" class="st0" width="14.7" height="70.2"/>
<rect x="145.2" y="321.3" class="st0" width="194.8" height="14.7"/>
</svg>
