<?xml version="1.0" encoding="utf-8"?>
<!-- Generator: Adobe Illustrator 22.1.0, SVG Export Plug-In . SVG Version: 6.00 Build 0)  -->
<svg version="1.1" id="Capa_1" xmlns="http://www.w3.org/2000/svg" xmlns:xlink="http://www.w3.org/1999/xlink" x="0px" y="0px"
	 width="511px" height="511px" viewBox="0 0 511 511" style="enable-background:new 0 0 511 511;" xml:space="preserve">
<style type="text/css">
	.st0{fill:#AAC0EE;}
	.st1{fill:#4479F9;}
</style>
<g>
	<path class="st0" d="M413.6,113.8c1.9,0,3.8-0.8,5.1-2.1c1.3-1.3,2.1-3.2,2.1-5.1c0-1.9-0.8-3.8-2.1-5.1c-1.3-1.3-3.2-2.1-5.1-2.1
		c-1.9,0-3.8,0.8-5.1,2.1c-1.3,1.3-2.1,3.2-2.1,5.1s0.8,3.8,2.1,5.1C409.9,113,411.7,113.8,413.6,113.8z"/>
	<path class="st0" d="M436.7,113.8c1.9,0,3.8-0.8,5.1-2.1c1.3-1.3,2.1-3.2,2.1-5.1s-0.8-3.8-2.1-5.1c-1.3-1.3-3.2-2.1-5.1-2.1
		c-1.9,0-3.8,0.8-5.1,2.1c-1.3,1.3-2.1,3.2-2.1,5.1s0.8,3.8,2.1,5.1C432.9,113,434.8,113.8,436.7,113.8z"/>
	<path class="st0" d="M459.7,113.8c1.9,0,3.8-0.8,5.1-2.1c1.3-1.3,2.1-3.2,2.1-5.1s-0.8-3.8-2.1-5.1c-1.3-1.3-3.2-2.1-5.1-2.1
		c-1.9,0-3.8,0.8-5.1,2.1c-1.3,1.3-2.1,3.2-2.1,5.1s0.8,3.8,2.1,5.1C456,113,457.8,113.8,459.7,113.8z"/>
	<path class="st0" d="M58.7,113.8h326.6c4.4,0,8.1-3.2,8.1-7.2c0-4-3.6-7.2-8.1-7.2H58.7c-4.4,0-8.1,3.2-8.1,7.2
		C50.6,110.6,54.2,113.8,58.7,113.8z"/>
	<path class="st1" d="M264.2,230h-15.4c-16.7,0-30.3,13.6-30.3,30.3v46.1c0,16.7,13.6,30.3,30.3,30.3h15.4
		c16.7,0,30.3-13.6,30.3-30.3v-46.1C294.5,243.6,280.9,230,264.2,230z M280,306.4c0,8.7-7.1,15.9-15.9,15.9h-15.4
		c-8.7,0-15.9-7.1-15.9-15.9v-46.1c0-8.7,7.1-15.9,15.9-15.9h15.4c8.7,0,15.9,7.1,15.9,15.9V306.4z"/>
	<path class="st1" d="M202.7,299.2h-8.2v-62c0-4-3.2-7.2-7.2-7.2c-4,0-7.2,3.2-7.2,7.2v62h-36.6l19.9-59.7c1.3-3.8-0.8-7.9-4.6-9.1
		c-3.8-1.3-7.9,0.8-9.1,4.6l-23.1,69.2c-0.7,2.2-0.4,4.6,1,6.5c1.4,1.9,3.5,3,5.8,3h46.6v15.9c0,4,3.2,7.2,7.2,7.2
		c4,0,7.2-3.2,7.2-7.2v-15.9h8.2c4,0,7.2-3.2,7.2-7.2C209.9,302.4,206.7,299.2,202.7,299.2z"/>
	<path class="st1" d="M379.5,299.2h-8.2v-62c0-4-3.2-7.2-7.2-7.2c-4,0-7.2,3.2-7.2,7.2v62h-36.6l19.9-59.7c1.3-3.8-0.8-7.9-4.6-9.1
		c-3.8-1.3-7.9,0.8-9.1,4.6l-23.1,69.2c-0.7,2.2-0.4,4.6,1,6.5c1.4,1.9,3.5,3,5.8,3h46.6v15.9c0,4,3.2,7.2,7.2,7.2
		c4,0,7.2-3.2,7.2-7.2v-15.9h8.2c4,0,7.2-3.2,7.2-7.2C386.7,302.4,383.5,299.2,379.5,299.2z"/>
	<path class="st0" d="M464,68.6H49c-20.9,0-38,17-38,38V414c0,20.9,17,38,38,38H464c20.9,0,38-17,38-38V106.6
		C502,85.6,485,68.6,464,68.6z M49,83H464c13,0,23.5,10.6,23.5,23.5v23.5H25.4v-23.5C25.4,93.6,36,83,49,83z M464,437.6H49
		c-13,0-23.5-10.6-23.5-23.5V144.5h462.2V414C487.6,427,477,437.6,464,437.6z"/>
</g>
</svg>
