<svg width="137" height="137" viewBox="0 0 137 137" fill="none" xmlns="http://www.w3.org/2000/svg">
<g clip-path="url(#clip0)">
<path d="M126.825 0H21.792C16.7481 0 12.6587 4.08945 12.6587 9.13333V74.5H17.2254V9.13333C17.2254 6.61082 19.2695 4.56667 21.792 4.56667H126.825C129.348 4.56667 131.392 6.61082 131.392 9.13333V100.467C131.392 102.989 129.348 105.033 126.825 105.033H71V109.6H126.825C131.869 109.6 135.959 105.511 135.959 100.467V9.13333C135.959 4.08945 131.869 0 126.825 0Z" fill="#4C505E"/>
<path d="M21.7925 11.4166C21.7925 10.1556 22.8148 9.1333 24.0758 9.1333C25.3369 9.1333 26.3592 10.1556 26.3592 11.4166C26.3592 12.6777 25.3369 13.7 24.0758 13.7C22.8148 13.7 21.7925 12.6777 21.7925 11.4166Z" fill="#4C505E"/>
<path d="M30.9258 11.4166C30.9258 10.1556 31.9481 9.1333 33.2091 9.1333C34.4702 9.1333 35.4925 10.1556 35.4925 11.4166C35.4925 12.6777 34.4702 13.7 33.2091 13.7C31.9481 13.7 30.9258 12.6777 30.9258 11.4166Z" fill="#4C505E"/>
<path d="M40.0586 11.4166C40.0586 10.1556 41.0809 9.1333 42.3419 9.1333C43.603 9.1333 44.6253 10.1556 44.6253 11.4166C44.6253 12.6777 43.603 13.7 42.3419 13.7C41.0809 13.7 40.0586 12.6777 40.0586 11.4166Z" fill="#4C505E"/>
<path d="M21.7925 18.2667H126.826V22.8333H21.7925V18.2667Z" fill="#4C505E"/>
<path d="M21.7925 54.8C21.7925 56.0616 22.8143 57.0833 24.0758 57.0833H51.4758C52.7374 57.0833 53.7591 56.0616 53.7591 54.8V36.5333C53.7591 35.2718 52.7374 34.25 51.4758 34.25H41.0044L37.1068 30.3524C36.6787 29.9242 36.0981 29.6833 35.4925 29.6833H24.0758C22.8143 29.6833 21.7925 30.7051 21.7925 31.9667V54.8ZM26.3591 34.25H34.5472L38.4448 38.1477C38.873 38.5758 39.4535 38.8167 40.0591 38.8167H49.1925V52.5167H26.3591V34.25Z" fill="#4C505E"/>
<path d="M90.2924 36.5333C90.2924 35.2718 89.2706 34.25 88.009 34.25H77.5377L73.64 30.3524C73.2119 29.9242 72.6313 29.6833 72.0257 29.6833H60.609C59.3475 29.6833 58.3257 30.7051 58.3257 31.9667V54.8C58.3257 56.0616 59.3475 57.0833 60.609 57.0833H88.009C89.2706 57.0833 90.2924 56.0616 90.2924 54.8V36.5333ZM85.7257 52.5167H62.8924V34.25H71.0804L74.978 38.1477C75.4062 38.5758 75.9867 38.8167 76.5924 38.8167H85.7257V52.5167Z" fill="#4C505E"/>
<path d="M126.826 36.5333C126.826 35.2718 125.804 34.25 124.542 34.25H114.071L110.173 30.3524C109.745 29.9242 109.165 29.6833 108.559 29.6833H97.1422C95.8807 29.6833 94.8589 30.7051 94.8589 31.9667V54.8C94.8589 56.0616 95.8807 57.0833 97.1422 57.0833H124.542C125.804 57.0833 126.826 56.0616 126.826 54.8V36.5333ZM122.259 52.5167H99.4256V34.25H107.614L111.511 38.1477C111.939 38.5758 112.52 38.8167 113.126 38.8167H122.259V52.5167Z" fill="#4C505E"/>
<path d="M124.542 70.7833H114.071L110.173 66.8857C109.745 66.4576 109.165 66.2167 108.559 66.2167H97.1422C95.8807 66.2167 94.8589 67.2385 94.8589 68.5V91.3334C94.8589 92.5949 95.8807 93.6167 97.1422 93.6167H124.542C125.804 93.6167 126.826 92.5949 126.826 91.3334V73.0667C126.826 71.8051 125.804 70.7833 124.542 70.7833ZM122.259 89.05H99.4256V70.7833H107.614L111.511 74.681C111.939 75.1091 112.52 75.35 113.126 75.35H122.259V89.05Z" fill="#4C505E"/>
<path d="M77.7452 70.5667H88.2165C89.4781 70.5667 90.4999 71.5885 90.4999 72.85V91.1167C90.4999 92.3782 89.4781 93.4 88.2165 93.4H64.0332V88.8333H85.9332V75.1333H76.7999C76.1942 75.1333 75.6137 74.8924 75.1856 74.4643L71.2879 70.5667H63.0999L63 77L58.5332 73.1562V68.2833C58.5332 67.0218 59.555 66 60.8165 66H72.2332C72.8389 66 73.4194 66.2409 73.8475 66.669L77.7452 70.5667Z" fill="#4C505E"/>
<path d="M9.56037 91.3333H3.52552C2.26398 91.3333 1.24219 92.3551 1.24219 93.6167V107.317C1.24219 108.578 2.26398 109.6 3.52552 109.6H9.56037C10.0444 111.099 10.6472 112.558 11.3642 113.961L7.09894 118.226C6.20844 119.118 6.20844 120.563 7.09894 121.455L16.7871 131.143C17.6793 132.034 19.1241 132.034 20.0163 131.143L24.281 126.878C25.6847 127.595 27.1432 128.198 28.6422 128.682V134.717C28.6422 135.978 29.664 137 30.9255 137H44.6255C45.8871 137 46.9088 135.978 46.9088 134.717V128.682C48.4078 128.198 49.8663 127.595 51.27 126.878L55.5347 131.143C56.4269 132.034 57.8717 132.034 58.7639 131.143L68.4521 121.455C69.3426 120.563 69.3426 119.118 68.4521 118.226L64.1868 113.961C64.9038 112.558 65.5066 111.099 65.9907 109.6H72.0255C73.287 109.6 74.3088 108.578 74.3088 107.317V93.6167C74.3088 92.3551 73.287 91.3333 72.0255 91.3333H65.9907C65.5066 89.8343 64.9038 88.3759 64.1868 86.9722L68.4521 82.7075C69.3426 81.8153 69.3426 80.3705 68.4521 79.4783L58.7639 69.7901C57.8717 68.8996 56.4269 68.8996 55.5347 69.7901L51.27 74.0554C49.8663 73.3384 48.4078 72.7356 46.9088 72.2515V66.2167C46.9088 64.9551 45.8871 63.9333 44.6255 63.9333H30.9255C29.664 63.9333 28.6422 64.9551 28.6422 66.2167V72.2515C27.1432 72.7356 25.6847 73.3384 24.281 74.0554L20.0163 69.7901C19.1241 68.8996 17.6793 68.8996 16.7871 69.7901L7.09894 79.4783C6.20844 80.3705 6.20844 81.8153 7.09894 82.7075L11.3642 86.9722C11.1747 87.3421 10.992 87.7194 10.8179 88.0973C10.3361 89.1499 9.916 90.2311 9.56037 91.3333ZM13.4854 94.1875C14.0682 91.9202 14.9673 89.7464 16.1569 87.7302C16.6861 86.834 16.5405 85.6924 15.8053 84.956L11.9419 81.0932L18.402 74.633L22.2648 78.4964C23.0012 79.2317 24.1429 79.3772 25.0391 78.8481C27.0553 77.659 29.2301 76.76 31.4963 76.1766C32.5039 75.9163 33.2088 75.0075 33.2088 73.9663V68.5H42.3422V73.9663C42.3422 75.0075 43.0472 75.9163 44.0547 76.1766C46.3209 76.76 48.4958 77.659 50.5119 78.8481C51.4081 79.3772 52.5498 79.2317 53.2862 78.4964L57.149 74.633L63.6091 81.0932L59.7457 84.956C59.0105 85.6924 58.8649 86.834 59.3941 87.7302C60.5831 89.7464 61.4822 91.9213 62.0656 94.1875C62.3259 95.195 63.2347 95.9 64.2759 95.9H69.7422V105.033H64.2759C63.2347 105.033 62.3259 105.738 62.0656 106.746C61.4822 109.012 60.5831 111.187 59.3941 113.203C58.8649 114.099 59.0105 115.241 59.7457 115.977L63.6091 119.84L57.149 126.3L53.2862 122.437C52.5498 121.702 51.4081 121.556 50.5119 122.085C48.4958 123.274 46.3209 124.173 44.0547 124.757C43.0472 125.017 42.3422 125.926 42.3422 126.967V132.433H33.2088V126.967C33.2088 125.926 32.5039 125.017 31.4963 124.757C29.2301 124.173 27.0553 123.274 25.0391 122.085C24.1429 121.556 23.0012 121.702 22.2648 122.437L18.402 126.3L11.9419 119.84L15.8053 115.977C16.5405 115.241 16.6861 114.099 16.1569 113.203C14.9679 111.187 14.0688 109.012 13.4854 106.746C13.2251 105.738 12.3164 105.033 11.2752 105.033H5.80885V95.9H11.2752C12.3164 95.9 13.2251 95.195 13.4854 94.1875Z" fill="#4C505E"/>
<path d="M37.7758 116.45C46.6038 116.45 53.7591 109.295 53.7591 100.467C53.7591 91.6387 46.6038 84.4833 37.7758 84.4833C28.9479 84.4833 21.7925 91.6387 21.7925 100.467C21.8028 109.289 28.953 116.44 37.7758 116.45ZM37.7758 89.05C44.0807 89.05 49.1925 94.1618 49.1925 100.467C49.1925 106.772 44.0807 111.883 37.7758 111.883C31.471 111.883 26.3591 106.772 26.3591 100.467C26.3671 94.1647 31.4738 89.058 37.7758 89.05Z" fill="#4C505E"/>
</g>
<defs>
<clipPath id="clip0">
<rect width="137" height="137" fill="white"/>
</clipPath>
</defs>
</svg>
