<svg width="1440" height="230" viewBox="0 0 1440 230" fill="none" xmlns="http://www.w3.org/2000/svg">
<g clip-path="url(#clip0)">
<path d="M1453 -516H-6V456.7H1453V-516Z" fill="url(#paint0_linear)"/>
<path d="M58.8 466.2C58.8 466.2 -17.1 52.8 628 143.3C1071.7 205.6 956 -170.7 1273.3 -319.3C1583 -464.4 1817.6 -19.5 2085.3 -349.1V463.1L58.8 466.2Z" fill="url(#paint1_linear)"/>
<path d="M885.4 456.7C885.4 456.7 880 374.6 970.8 374.6C1061.6 374.6 1132.5 371.7 1152.7 248.3C1169.2 147.7 1325.3 146.6 1359.3 228.8C1393.3 311 1453.1 311.1 1453.1 311.1V456.6H885.4V456.7Z" fill="url(#paint2_linear)"/>
<path d="M-6 170.7C-6 170.7 109.7 123.6 144.4 224C179 324.2 353.5 173.6 353.5 327.9C353.5 416.2 511.9 353.8 470.6 456.9H-6V170.7Z" fill="url(#paint3_linear)"/>
<path d="M-6 -40.6001V74.1999C24.9 73.3999 49.8 47.9999 49.8 16.7999C49.8 -14.4001 24.9 -39.6001 -6 -40.6001Z" fill="url(#paint4_linear)"/>
<path d="M1453 121.7C1421.7 122.3 1396.6 147.8 1396.6 179.1C1396.6 210.4 1421.9 236.1 1453 236.5V121.7Z" fill="url(#paint5_linear)"/>
</g>
<defs>
<linearGradient id="paint0_linear" x1="-6" y1="-29.6667" x2="1453" y2="-29.6667" gradientUnits="userSpaceOnUse">
<stop stop-color="#0F1D7A"/>
<stop offset="1" stop-color="#0027C4"/>
</linearGradient>
<linearGradient id="paint1_linear" x1="984.796" y1="-170.373" x2="1284.81" y2="617.151" gradientUnits="userSpaceOnUse">
<stop stop-color="#0023BF"/>
<stop offset="1" stop-color="#0F1D7A"/>
</linearGradient>
<linearGradient id="paint2_linear" x1="1096.57" y1="226.596" x2="1236.63" y2="530.068" gradientUnits="userSpaceOnUse">
<stop stop-color="#0023BF"/>
<stop offset="1" stop-color="#0F1D7A"/>
</linearGradient>
<linearGradient id="paint3_linear" x1="174.176" y1="433.715" x2="327.857" y2="116.626" gradientUnits="userSpaceOnUse">
<stop stop-color="#0F1D7A"/>
<stop offset="1" stop-color="#0027C4"/>
</linearGradient>
<linearGradient id="paint4_linear" x1="46.5071" y1="-15.2618" x2="-6.3381" y2="23.356" gradientUnits="userSpaceOnUse">
<stop stop-color="#0023BF"/>
<stop offset="1" stop-color="#0F1D7A"/>
</linearGradient>
<linearGradient id="paint5_linear" x1="1405.14" y1="131.023" x2="1465.06" y2="217.38" gradientUnits="userSpaceOnUse">
<stop stop-color="#0023BF"/>
<stop offset="1" stop-color="#0F1D7A"/>
</linearGradient>
<clipPath id="clip0">
<rect width="1440" height="230" fill="white"/>
</clipPath>
</defs>
</svg>
