<svg width="30" height="20" viewBox="0 0 30 20" fill="none" xmlns="http://www.w3.org/2000/svg">
<path d="M24.8438 19.873H6.5625C2.94393 19.873 0 16.9291 0 13.3105C0 10.1535 2.22322 7.53713 5.161 6.89828C5.29828 3.14125 8.39754 0.126953 12.1875 0.126953C15.0316 0.126953 17.4325 1.79945 18.552 4.16986C22.1988 3.08564 25.8377 5.86568 25.7806 9.64586C28.1781 10.0877 30 12.1935 30 14.7168C30 17.5599 27.6869 19.873 24.8438 19.873ZM12.1875 2.00195C9.17361 2.00195 6.78352 4.59051 7.05211 7.62021C7.09805 8.13883 6.71191 8.59697 6.19131 8.63758C3.77092 8.82672 1.875 10.8793 1.875 13.3105C1.875 15.8952 3.97781 17.998 6.5625 17.998H24.8438C26.653 17.998 28.125 16.5261 28.125 14.7168C28.125 13.014 26.7923 11.4355 24.7498 11.4355C24.1582 11.4355 23.713 10.8928 23.831 10.3115C24.457 7.22969 21.2283 4.796 18.4479 6.2227C17.9281 6.48936 17.2923 6.22035 17.1227 5.66043C16.47 3.50641 14.4405 2.00195 12.1875 2.00195Z" fill="black"/>
</svg>
