<svg width="72" height="72" viewBox="0 0 72 72" fill="none" xmlns="http://www.w3.org/2000/svg">
<path d="M45.5144 36.0001C45.5144 30.743 41.2573 26.4858 36.0001 26.4858C30.743 26.4858 26.4858 30.743 26.4858 36.0001C26.4858 41.2573 30.743 45.5144 36.0001 45.5144C41.2573 45.5001 45.5001 41.2573 45.5144 36.0001ZM31.0573 36.0001C31.0573 33.2716 33.2716 31.0573 36.0001 31.0573C38.7287 31.0573 40.943 33.2716 40.943 36.0001C40.943 38.7287 38.7287 40.943 36.0001 40.943C33.2716 40.9287 31.0716 38.7287 31.0573 36.0001Z" fill="#414554"/>
<path d="M72 36C72 27.6857 65.6143 20.3571 55.9286 16.0714C51.6429 6.38571 44.3143 0 36 0C19.1143 0 7.28571 25.9143 13.8571 49.7429C8.12857 46.2286 4.57143 41.3714 4.57143 36C4.64286 32.8714 5.77143 29.8714 7.75714 27.4714C8.04286 27.1286 8.22857 26.7286 8.3 26.3C8.54286 24.9 8.84286 23.5 9.18571 22.1286C9.41429 21.2571 8.38571 20.6143 7.7 21.2C2.87143 25.2857 0 30.4143 0 36C0 44.3143 6.38571 51.6429 16.0714 55.9286C20.3571 65.6143 27.6857 72 36 72C41.5429 72 46.6571 69.1572 50.7286 64.3714C51.3143 63.6857 50.6857 62.6571 49.8143 62.8714C48.4429 63.2143 47.0571 63.5 45.6571 63.7286C45.2286 63.8 44.8286 63.9857 44.4857 64.2714C42.1 66.2571 39.1143 67.3714 36 67.4286C30.6286 67.4286 25.7714 63.8714 22.2571 58.1429C46.5143 64.8286 72 52.6286 72 36ZM67.4286 36C67.4286 41.3714 63.8714 46.2286 58.1286 49.7429C60.5714 40.7429 60.5714 31.2571 58.1429 22.2571C63.8714 25.7714 67.4286 30.6286 67.4286 36ZM36 4.57143C41.3714 4.57143 46.2286 8.12857 49.7429 13.8571C40.7429 11.4286 31.2571 11.4286 22.2571 13.8571C25.7714 8.12857 30.6286 4.57143 36 4.57143ZM19.5 19.5143C30.1571 15.6429 41.8286 15.6429 52.4857 19.5C56.3429 30.1571 56.3429 41.8286 52.4857 52.4857C41.8286 56.3429 30.1571 56.3429 19.5 52.4857C15.6571 41.8429 15.6571 30.1714 19.5 19.5143Z" fill="#414554"/>
</svg>
