<svg width="174" height="174" viewBox="0 0 174 174" fill="none" xmlns="http://www.w3.org/2000/svg">
<path d="M167.102 34.9655C166.196 31.5027 164.817 28.1851 162.988 25.0731L166.248 18.553L155.45 7.75474L148.93 11.0148C145.818 9.18537 142.5 7.80407 139.034 6.90102L136.734 0H121.463L119.162 6.90102C115.696 7.80407 112.379 9.18263 109.267 11.0148L102.744 7.75474L91.9455 18.5503L95.2056 25.0703C93.3789 28.1824 91.9976 31.5 91.0918 34.9628L84.1936 37.2663V44.9032H14.0323C6.29533 44.9032 0 51.1986 0 58.9355V143.129C0 150.866 6.29533 157.161 14.0323 157.161H50.5161V168.387H39.2903V174H134.71V168.387H123.484V157.161H159.968C167.705 157.161 174 150.866 174 143.129V37.2663L167.102 34.9655ZM117.871 168.387H56.129V157.161H117.871V168.387ZM159.968 151.548H14.0323C9.39092 151.548 5.6129 147.77 5.6129 143.129V140.323H168.387V143.129C168.387 147.77 164.609 151.548 159.968 151.548ZM168.387 134.71H5.6129V58.9355C5.6129 54.2941 9.39092 50.5161 14.0323 50.5161H84.1936V52.5401L91.0918 54.8409C91.9976 58.3038 93.3762 61.6213 95.2056 64.7334L91.9455 71.2534L102.744 82.0517L109.264 78.7917C112.376 80.6211 115.693 82.0024 119.159 82.9054L121.46 89.8064H136.731L139.032 82.9054C142.497 82.0024 145.815 80.6238 148.927 78.7917L155.447 82.0517L166.245 71.2534L162.985 64.7334C164.812 61.6213 166.192 58.3038 167.099 54.8409L168.387 54.412V134.71ZM168.387 48.4921L162.33 50.5134L161.992 52.0742C161.143 55.9769 159.603 59.6796 157.419 63.078L156.556 64.4223L159.421 70.1476L154.344 75.2247L148.616 72.3593L147.272 73.2254C143.873 75.4097 140.17 76.9499 136.27 77.7982L134.71 78.1367L132.686 84.1936H125.505L123.484 78.1367L121.923 77.7982C118.02 76.9499 114.32 75.4097 110.922 73.2254L109.578 72.3593L103.85 75.2247L98.7726 70.1476L101.638 64.4223L100.775 63.078C98.5876 59.6796 97.0501 55.9769 96.2018 52.0742L95.8633 50.5134L89.8064 48.4921V41.3116L95.8633 39.2903L96.2018 37.7295C97.0501 33.8268 98.5903 30.1241 100.775 26.7257L101.638 25.3814L98.7726 19.6561L103.85 14.579L109.578 17.4444L110.922 16.5783C114.32 14.394 118.023 12.8538 121.923 12.0055L123.484 11.6671L125.508 5.6129H132.688L134.71 11.6698L136.27 12.0083C140.173 12.8565 143.873 14.3968 147.272 16.5811L148.616 17.4471L154.344 14.5818L159.421 19.6589L156.556 25.3841L157.419 26.7284C159.606 30.1269 161.143 33.8295 161.992 37.7322L162.33 39.2931L168.387 41.3143V48.4921Z" fill="#414554"/>
<path d="M129.097 16.8389C113.622 16.8389 101.032 29.4282 101.032 44.9034C101.032 60.3786 113.622 72.9679 129.097 72.9679C144.572 72.9679 157.161 60.3786 157.161 44.9034C157.161 29.4282 144.572 16.8389 129.097 16.8389ZM129.097 67.355C116.717 67.355 106.645 57.283 106.645 44.9034C106.645 32.5238 116.717 22.4518 129.097 22.4518C141.476 22.4518 151.548 32.5238 151.548 44.9034C151.548 57.283 141.476 67.355 129.097 67.355Z" fill="#414554"/>
<path d="M129.097 33.6772C122.906 33.6772 117.871 38.7119 117.871 44.9031C117.871 51.0942 122.906 56.1289 129.097 56.1289C135.288 56.1289 140.323 51.0942 140.323 44.9031C140.323 38.7119 135.288 33.6772 129.097 33.6772ZM129.097 50.516C126.001 50.516 123.484 47.9986 123.484 44.9031C123.484 41.8075 126.001 39.2901 129.097 39.2901C132.192 39.2901 134.71 41.8075 134.71 44.9031C134.71 47.9986 132.192 50.516 129.097 50.516Z" fill="#414554"/>
<path d="M16.8385 67.3549V70.1614C16.8385 73.2569 14.3212 75.7743 11.2256 75.7743V81.3872C14.3212 81.3872 16.8385 83.9045 16.8385 87.0001V89.8065C16.8385 94.4479 20.6165 98.2259 25.2578 98.2259H28.0643V92.613H25.2578C23.7121 92.613 22.4514 91.355 22.4514 89.8065V87.0001C22.4514 83.6523 20.9783 80.6376 18.6432 78.5807C20.9783 76.5238 22.4514 73.5091 22.4514 70.1614V67.3549C22.4514 65.8064 23.7121 64.5485 25.2578 64.5485H28.0643V58.9355H25.2578C20.6165 58.9355 16.8385 62.7136 16.8385 67.3549Z" fill="#414554"/>
<path d="M103.839 95.4192V92.6127C103.839 87.9714 100.061 84.1934 95.4197 84.1934H92.6133V89.8063H95.4197C96.9655 89.8063 98.2262 91.0642 98.2262 92.6127V95.4192C98.2262 98.7669 99.6993 101.782 102.034 103.839C99.6993 105.895 98.2262 108.91 98.2262 112.258V115.064C98.2262 116.613 96.9655 117.871 95.4197 117.871H92.6133V123.484H95.4197C100.061 123.484 103.839 119.706 103.839 115.064V112.258C103.839 109.162 106.356 106.645 109.452 106.645V101.032C106.356 101.032 103.839 98.5148 103.839 95.4192Z" fill="#414554"/>
<path d="M33.6777 61.7417H87.0003V67.3546H33.6777V61.7417Z" fill="#414554"/>
<path d="M44.9033 72.9678H87.0001V78.5807H44.9033V72.9678Z" fill="#414554"/>
<path d="M33.6777 72.9678H39.2906V78.5807H33.6777V72.9678Z" fill="#414554"/>
<path d="M33.6777 84.1934H87.0003V89.8063H33.6777V84.1934Z" fill="#414554"/>
<path d="M33.6777 95.4194H87.0003V101.032H33.6777V95.4194Z" fill="#414554"/>
<path d="M81.3867 106.645H86.9996V112.258H81.3867V106.645Z" fill="#414554"/>
<path d="M33.6777 106.645H75.7745V112.258H33.6777V106.645Z" fill="#414554"/>
<path d="M33.6777 117.871H87.0003V123.484H33.6777V117.871Z" fill="#414554"/>
</svg>
