<svg width="133" height="132" viewBox="0 0 133 132" fill="none" xmlns="http://www.w3.org/2000/svg">
<path d="M9.28611 84.5458H36.2647L23.4055 96.8634C22.1422 98.0712 21.7777 99.9345 22.4946 101.523C23.213 103.111 24.8568 104.081 26.6057 103.948L43.5752 102.696V120.641C43.5752 123.488 45.9016 125.796 48.7707 125.796H123.584C126.453 125.796 128.779 123.488 128.779 120.641V46.3898C128.779 43.5423 126.453 41.2341 123.584 41.2341H87.2158V11.3276C87.2158 8.48006 84.8901 6.17108 82.021 6.17108H9.28611C6.41702 6.17108 4.09131 8.48006 4.09131 11.3276V79.3901C4.09131 82.2376 6.41702 84.5458 9.28611 84.5458ZM26.2967 99.8295L42.8385 83.9733L42.9108 83.9053L64.3567 63.348V115.483L50.7913 99.6875C49.9861 98.7789 48.8278 98.2577 47.6086 98.2577C47.5173 98.2577 47.4283 98.2577 47.3392 98.2577L26.2967 99.8295ZM65.9754 59.57C64.4472 58.9234 62.6763 59.249 61.4807 60.394L47.7319 73.5636V46.3898C47.7319 45.8203 48.1969 45.3588 48.7707 45.3588H82.021C82.5948 45.3588 83.0598 45.8203 83.0598 46.3898V79.3901C83.0598 79.9596 82.5948 80.4211 82.021 80.4211H68.5134V63.3647C68.5119 61.7083 67.5119 60.215 65.9754 59.57ZM124.623 46.3898V120.641C124.615 121.206 124.153 121.664 123.584 121.672H48.7707C48.2007 121.664 47.7395 121.206 47.7319 120.641V102.49L61.1984 118.165C61.98 119.08 63.1276 119.607 64.3361 119.609C64.8331 119.607 65.3255 119.519 65.7912 119.347C67.4312 118.761 68.5218 117.214 68.5134 115.483V84.5458H82.021C84.8901 84.5458 87.2158 82.2376 87.2158 79.3901V46.3898C87.2158 46.0431 87.1808 45.6987 87.1108 45.3588H123.584C124.153 45.3664 124.615 45.8241 124.623 46.3898ZM8.2473 11.3276C8.25492 10.7619 8.71686 10.3041 9.28611 10.2966H82.021C82.5918 10.3041 83.0522 10.7619 83.0598 11.3276V41.3383C82.7181 41.2696 82.3703 41.2341 82.021 41.2341H48.7707C45.9016 41.2341 43.5752 43.5423 43.5752 46.3898V76.2963C43.5782 76.6853 43.6087 77.0735 43.6665 77.4572L40.5721 80.4211H9.28611C8.71686 80.4135 8.25492 79.9566 8.2473 79.3901V11.3276Z" fill="#4C505E"/>
<path d="M16.5603 41.2342C17.7079 41.2342 18.6387 40.3104 18.6387 39.1722V26.7964C18.6387 25.6574 17.7079 24.7344 16.5603 24.7344C15.4126 24.7344 14.4827 25.6574 14.4827 26.7964V39.1722C14.4827 40.3104 15.4126 41.2342 16.5603 41.2342Z" fill="#4C505E"/>
<path d="M16.5603 20.6089C17.7079 20.6089 18.6387 19.6859 18.6387 18.5461V16.4841C18.6387 15.3444 17.7079 14.4214 16.5603 14.4214C15.4126 14.4214 14.4827 15.3444 14.4827 16.4841V18.5461C14.4827 19.6859 15.4126 20.6089 16.5603 20.6089Z" fill="#4C505E"/>
</svg>
