<svg width="170" height="170" viewBox="0 0 170 170" fill="none" xmlns="http://www.w3.org/2000/svg">
<path d="M133.901 122.773L109.552 139.621C109.318 139.783 109.025 139.841 108.747 139.784L86.5961 135.164C85.2511 134.883 83.931 135.747 83.6501 137.094C83.3693 138.44 84.2332 139.759 85.5795 140.04L107.73 144.659C108.134 144.744 108.543 144.785 108.951 144.785C110.169 144.785 111.374 144.416 112.386 143.716L136.735 126.868C137.866 126.086 138.148 124.534 137.365 123.404C136.583 122.273 135.031 121.99 133.901 122.773Z" fill="#4C505E"/>
<path d="M169.874 75.5048C169.388 73.1059 167.598 71.3057 165.202 70.8057L155.371 68.7555C155.36 68.7532 155.349 68.7505 155.337 68.7482L152.286 68.112L167.399 57.6541C169.412 56.2616 170.36 53.9063 169.874 51.5074C169.388 49.1086 167.598 47.3081 165.202 46.8084L97.5155 32.6916C96.1695 32.4107 94.8504 33.2743 94.5692 34.621C94.2886 35.9673 95.1522 37.2861 96.4986 37.567L164.186 51.6841C164.77 51.8059 164.942 52.2455 164.993 52.4965C165.044 52.7475 165.056 53.2197 164.565 53.559L141.501 69.5195L112.778 52.3455C110.906 51.2262 108.569 51.208 106.679 52.2983L56.9578 80.9887L5.81422 70.3226C5.22986 70.2008 5.05722 69.7615 5.00642 69.5102C4.95562 69.2592 4.94366 68.7874 5.43439 68.4477L60.4493 30.3791C60.683 30.2174 60.9762 30.1586 61.2541 30.2161L100.3 38.3598C101.646 38.642 102.965 37.7771 103.246 36.4305C103.527 35.0841 102.663 33.7653 101.317 33.4845L62.2707 25.3407C60.6628 25.0054 58.9658 25.3487 57.6152 26.2836L2.60027 64.3523C0.587576 65.7451 -0.36067 68.1004 0.125405 70.4993C0.611149 72.8981 2.4014 74.6986 4.79758 75.1983L17.7141 77.892L2.60061 88.3499C0.587908 89.7427 -0.360338 92.0981 0.125405 94.4966C0.611149 96.8954 2.4014 98.696 4.79758 99.1957L17.7141 101.889L2.60061 112.347C0.587908 113.74 -0.360338 116.095 0.125405 118.494C0.611149 120.893 2.4014 122.693 4.79758 123.193L90.569 141.1C105.319 144.16 105.49 144.178 91.08 141.153C92.2344 141.153 90.324 139.696 90.569 138.521C90.8499 137.175 89.986 135.856 88.6397 135.575L5.81422 118.318C5.22986 118.196 5.05722 117.757 5.00642 117.505C4.95562 117.254 4.94366 116.782 5.43439 116.443L24.4395 103.292L107.73 120.662C108.134 120.746 108.543 120.788 108.951 120.788C110.168 120.788 111.374 120.419 112.386 119.719L146.636 96.0189L164.185 99.6784C164.77 99.8003 164.942 100.24 164.993 100.491C165.044 100.742 165.056 101.214 164.565 101.553L130.594 125.087C129.463 125.87 129.181 127.421 129.963 128.552C130.447 129.25 131.223 129.625 132.013 129.625C132.502 129.625 132.996 129.482 133.428 129.182L167.399 105.649C169.412 104.256 170.36 101.901 169.874 99.5024C169.388 97.1036 167.598 95.3031 165.202 94.803L152.286 92.1094L167.399 81.6514C169.412 80.259 170.36 77.9036 169.874 75.5048ZM152.361 73.2155V86.0012L144.273 91.5981V73.6578L146.637 72.0219L152.361 73.2155ZM127.033 76.9182V103.528L118.945 109.124V77.9879L127.033 76.9182ZM132.013 76.2591L139.293 75.2963V95.0438L132.013 100.081V76.2591ZM109.169 56.6116C109.495 56.423 109.9 56.4263 110.223 56.6195L134.186 70.9482L69.4921 79.5059L109.169 56.6116ZM42.9665 83.1581L51.0548 84.8448V103.755L42.9665 102.068V83.1581ZM37.9862 101.03L30.7067 99.5117V80.6016L37.9862 82.1196V101.03ZM56.0351 85.8834L56.8714 86.0577C57.149 86.1151 57.4272 86.1254 57.7065 86.0885L63.3113 85.3471V106.311L56.0351 104.794V85.8834ZM68.2916 84.6884L76.3799 83.6187V109.037L68.2916 107.35V84.6884ZM81.3601 82.9596L88.6397 81.9967V111.593L81.3601 110.075V82.9596ZM93.6196 81.338L101.708 80.2682V114.319L93.6196 112.632V81.338ZM25.7264 79.5627V98.4729L17.6384 96.7862V84.0005L24.4395 79.2944L25.7264 79.5627ZM5.00642 93.5078C4.95562 93.2568 4.94366 92.7847 5.43439 92.445L12.6581 87.4465V95.7473L5.81422 94.32C5.22986 94.1984 5.05722 93.7588 5.00642 93.5078ZM109.552 115.624C109.318 115.785 109.025 115.844 108.747 115.787L106.689 115.357V79.6092L113.965 78.6467V112.57L109.552 115.624ZM164.565 77.5563L157.341 82.5549V74.2541L164.185 75.6814C164.77 75.8033 164.942 76.2429 164.993 76.4939C165.044 76.7449 165.056 77.2167 164.565 77.5563Z" fill="#4C505E"/>
</svg>
