<svg width="43" height="43" viewBox="0 0 43 43" fill="none" xmlns="http://www.w3.org/2000/svg">
<circle cx="21.5" cy="21.5" r="21.5" fill="#A5B7FF" fill-opacity="0.68"/>
<path d="M21.159 8C16.1087 8 12 12.2582 12 17.4922C12 19.2606 12.4727 20.9864 13.3672 22.4836L20.6377 34.6261C20.7769 34.8587 21.0223 35 21.2862 35C21.2882 35 21.2902 35 21.2922 35C21.5584 34.9978 21.8043 34.8521 21.941 34.6155L29.0262 22.3554C29.8713 20.8898 30.3181 19.2081 30.3181 17.4922C30.3181 12.2582 26.2093 8 21.159 8ZM27.7162 21.5431L21.2746 32.6895L14.6646 21.6501C13.92 20.4039 13.5163 18.9661 13.5163 17.4922C13.5163 13.1305 16.9505 9.57148 21.159 9.57148C25.3676 9.57148 28.7966 13.1305 28.7966 17.4922C28.7966 18.9224 28.4195 20.3234 27.7162 21.5431Z" fill="white"/>
<path d="M21.1591 12.7462C18.6339 12.7462 16.5795 14.8753 16.5795 17.4923C16.5795 20.0925 18.6005 22.2383 21.1591 22.2383C23.7492 22.2383 25.7386 20.0639 25.7386 17.4923C25.7386 14.8753 23.6842 12.7462 21.1591 12.7462ZM21.1591 20.6669C19.4668 20.6669 18.0959 19.2413 18.0959 17.4923C18.0959 15.7476 19.4756 14.3177 21.1591 14.3177C22.8425 14.3177 24.2172 15.7476 24.2172 17.4923C24.2172 19.2158 22.8781 20.6669 21.1591 20.6669Z" fill="white"/>
</svg>
