<svg width="75" height="67" viewBox="0 0 75 67" fill="none" xmlns="http://www.w3.org/2000/svg">
<path d="M63.2255 2.16895H12.1701C7.38118 2.16895 2.27563 4.77165 2.27563 12.0277V46.1389C2.27563 53.4147 7.40096 55.9977 12.1701 55.9977H31.0685V62.2875H27.9221C27.0712 62.2875 26.3983 62.9579 26.3983 63.8058C26.3983 64.6536 27.0712 65.324 27.9221 65.324H48.0276C48.8785 65.324 49.5514 64.6536 49.5514 63.8058C49.5514 62.9579 48.8785 62.2875 48.0276 62.2875H44.3271V55.9977H63.2255C70.5276 55.9977 73.12 50.8908 73.12 46.1389V12.0474C73.12 4.77165 67.9946 2.16895 63.2255 2.16895ZM41.2796 62.2875H34.116V55.9977H41.2796V62.2875ZM70.0725 46.1389C70.0725 48.1895 69.3997 52.9612 63.2255 52.9612H12.1701C10.112 52.9612 5.32313 52.2908 5.32313 46.1389V43.97H70.0725V46.1389ZM70.0725 40.9532H5.32313V12.1066C5.32313 5.93498 10.1318 5.28431 12.1701 5.28431H63.2057C65.2638 5.28431 70.0527 5.9547 70.0527 12.1066V40.9532H70.0725Z" fill="#414554" stroke="#414554" stroke-width="1.5" stroke-miterlimit="10"/>
<path d="M63.8192 8.63621C63.087 8.08412 62.058 8.24186 61.5039 8.97141H61.5831L49.2348 25.4552L43.4366 17.9626C43.1398 17.5682 42.6649 17.3316 42.1702 17.3119C41.6754 17.2922 41.2005 17.5091 40.8839 17.864L31.4643 28.5706L24.5382 16.7992C24.2414 16.3063 23.7071 15.9908 23.1332 15.9908C22.5593 15.9908 22.0052 16.2866 21.7084 16.7795L10.2902 35.1562C9.69654 35.8463 9.79548 36.8914 10.4881 37.4829C11.1807 38.0744 12.2295 37.9758 12.8232 37.2857C12.9419 37.1477 13.0409 36.99 13.1002 36.8125L23.0343 20.6836L29.6438 32.0409C30.0989 32.8296 31.1279 33.0859 31.8997 32.6324C32.058 32.5535 32.1767 32.4352 32.2955 32.2972L41.9327 21.5709L47.8496 29.2213C48.186 29.5959 48.6609 29.8325 49.1754 29.8719C49.6899 29.8719 50.1649 29.6156 50.4815 29.2213L64.1358 10.9629C64.6899 10.2333 64.5514 9.1883 63.8192 8.63621Z" fill="#414554" stroke="#414554" stroke-width="1.5" stroke-miterlimit="10"/>
</svg>
