<svg width="30" height="30" viewBox="0 0 30 30" fill="none" xmlns="http://www.w3.org/2000/svg">
<g clip-path="url(#clip0)">
<path d="M21.2581 9.69958H8.74194C8.0615 9.69958 7.50989 10.2512 7.50989 10.9316C7.50989 11.6121 8.0615 12.1637 8.74194 12.1637H21.2581C21.9385 12.1637 22.4902 11.6121 22.4902 10.9316C22.4902 10.2512 21.9385 9.69958 21.2581 9.69958Z" fill="black"/>
<path d="M18.1291 14.7061H8.74195C8.0615 14.7061 7.50989 15.2577 7.50989 15.9381C7.50989 16.6186 8.0615 17.1702 8.74195 17.1702H18.1291C18.8095 17.1702 19.3611 16.6186 19.3611 15.9381C19.3611 15.2577 18.8095 14.7061 18.1291 14.7061Z" fill="black"/>
<path d="M28.6632 3.59851C28.5363 3.27425 28.278 3.0188 27.9523 2.89548C23.2929 1.13217 6.76288 1.11105 2.0478 2.89548C1.72206 3.01886 1.4638 3.27425 1.33684 3.59851C1.28222 3.73791 0 7.08553 0 13.4348C0 19.784 1.28222 23.1317 1.33678 23.2711C1.46374 23.5953 1.722 23.8507 2.04768 23.974C2.1524 24.0138 4.63283 24.9286 10.9519 25.2172L14.1758 28.1184C14.6443 28.5401 15.3556 28.5402 15.8242 28.1184L19.0481 25.2172C25.3671 24.9285 27.8475 24.0137 27.9523 23.974C28.278 23.8507 28.5363 23.5953 28.6632 23.2711C28.7178 23.1317 30 19.784 30 13.4348C30 7.08558 28.7177 3.73791 28.6632 3.59851ZM26.5441 21.8241C25.5311 22.0842 23.034 22.5937 18.504 22.7741C18.2168 22.7856 17.9426 22.8971 17.7289 23.0894L15 25.5451L12.2711 23.0894C12.0574 22.8971 11.7832 22.7856 11.496 22.7741C6.96599 22.5937 4.46908 22.0842 3.4561 21.8241C2.12941 17.2445 2.13674 9.59998 3.45574 5.04594C8.77747 3.68282 21.2283 3.68435 26.544 5.04589C27.8651 9.60696 27.8688 17.251 26.5441 21.8241Z" fill="black"/>
</g>
<defs>
<clipPath id="clip0">
<rect width="30" height="30" fill="white"/>
</clipPath>
</defs>
</svg>
