<svg width="50" height="44" viewBox="0 0 50 44" fill="none" xmlns="http://www.w3.org/2000/svg">
<path d="M50 10.1916C50 4.57197 45.4401 0 39.8353 0C35.2338 0 31.3368 3.08145 30.0889 7.29434H4.76748C2.13867 7.29443 0 9.43887 0 12.0747V35.4884C0 38.1243 2.13867 40.2688 4.76748 40.2688H7.14248L8.18135 43.0371C8.2875 43.32 8.51865 43.5379 8.80742 43.6271C8.90186 43.6563 8.99893 43.6706 9.09551 43.6706C9.29424 43.6706 9.49082 43.61 9.65713 43.493L14.2444 40.2688H36.5042C39.133 40.2688 41.2717 38.1243 41.2717 35.4884V20.2817C46.1988 19.5799 50 15.3225 50 10.1916ZM36.5043 38.3155H13.9355C13.7345 38.3155 13.5385 38.3775 13.374 38.4932L9.5666 41.1692L8.7335 38.949C8.59053 38.568 8.22627 38.3155 7.81924 38.3155H4.76748C3.21572 38.3155 1.95312 37.0473 1.95312 35.4884V12.0747C1.95312 10.5158 3.21572 9.24756 4.76748 9.24756H29.7139C29.6853 9.5585 29.6706 9.87334 29.6706 10.1916C29.6706 15.6376 33.9529 20.0995 39.3186 20.3702V35.4884C39.3186 37.0473 38.0561 38.3155 36.5043 38.3155ZM39.8353 18.4301C35.3074 18.4301 31.6237 14.7343 31.6237 10.1916C31.6237 5.64893 35.3074 1.95313 39.8353 1.95313C44.3631 1.95313 48.0469 5.64893 48.0469 10.1916C48.0469 14.7343 44.3631 18.4301 39.8353 18.4301Z" fill="white"/>
<circle cx="10.5" cy="24.3354" r="2.5" fill="white"/>
<circle cx="20.5" cy="24.3354" r="2.5" fill="white"/>
<circle cx="30.5" cy="24.3354" r="2.5" fill="white"/>
<path d="M41.708 6.43545V14.8354H39.764V7.99545H38.084V6.43545H41.708Z" fill="white"/>
</svg>
