<svg width="175" height="175" viewBox="0 0 175 175" fill="none" xmlns="http://www.w3.org/2000/svg">
<path d="M5.63333 157.3H5.83333H64.1656H64.1667V157.5C65.0608 157.496 65.8802 158.001 66.2794 158.8L5.63333 157.3ZM5.63333 157.3V157.5M5.63333 157.3V157.5M5.63333 157.5V163.333C5.63333 166.666 8.3342 169.367 11.6667 169.367H151.667C154.999 169.367 157.7 166.666 157.7 163.333V157.5V157.3M5.63333 157.5L157.7 157.3M157.7 157.3H157.5M157.7 157.3H157.5M157.5 157.3H99.856M157.5 157.3H99.856M99.856 157.3C98.8865 157.294 97.9959 157.842 97.5672 158.711L99.856 157.3ZM154.383 151.667V151.867H154.583H160.417C161.918 151.867 163.133 153.082 163.133 154.583V163.333C163.133 169.666 157.999 174.8 151.667 174.8H11.6667C5.33402 174.8 0.2 169.666 0.2 163.333V154.583C0.2 153.082 1.41566 151.867 2.91667 151.867H8.75H8.95V151.667V72.9171C8.95989 64.9774 15.3938 58.5434 23.3335 58.5335H81.4667V63.9668H23.3333C18.3912 63.9668 14.3833 67.9747 14.3833 72.9168V151.667V151.867H14.5833H20.4167H20.6167V151.667V78.7502C20.6167 74.029 24.4455 70.2002 29.1667 70.2002H81.4667V75.6335H29.1667C27.4447 75.6335 26.05 77.0282 26.05 78.7502V151.667V151.867H26.25L64.1667 151.867L64.1674 151.867C67.1992 151.856 69.9713 153.569 71.3174 156.286C71.746 157.156 72.6354 157.706 73.606 157.7H90.415C91.3872 157.708 92.2775 157.157 92.7087 156.285C94.0529 153.569 96.825 151.856 99.8541 151.867H99.8548H137.083H137.283V151.667V105.2H142.717V151.667V151.867H142.917H148.75H148.95V151.667V105.2H154.383V151.667Z" fill="#414554" stroke="white" stroke-width="0.4"/>
<path d="M43.7498 110.633H43.5498V110.833V128.333V128.533H43.7498H119.583H119.783V128.333V110.833V110.633H119.583H43.7498ZM38.1165 131.25V107.917C38.1165 106.416 39.3322 105.2 40.8332 105.2H122.5C124.001 105.2 125.217 106.416 125.217 107.917V131.25C125.217 132.751 124.001 133.967 122.5 133.967H40.8332C39.3322 133.967 38.1165 132.751 38.1165 131.25Z" fill="#414554" stroke="white" stroke-width="0.4"/>
<path d="M49.7835 116.867H55.2168V122.3H49.7835V116.867Z" fill="#414554" stroke="white" stroke-width="0.4"/>
<path d="M61.45 116.867H66.8833V122.3H61.45V116.867Z" fill="#414554" stroke="white" stroke-width="0.4"/>
<path d="M73.1165 116.867H78.5498V122.3H73.1165V116.867Z" fill="#414554" stroke="white" stroke-width="0.4"/>
<path d="M84.7835 116.867H90.2168V122.3H84.7835V116.867Z" fill="#414554" stroke="white" stroke-width="0.4"/>
<path d="M166.05 43.8585V44.0383L166.229 44.0573C171.09 44.5752 174.783 48.667 174.8 53.5562V89.3609C174.793 94.6639 170.494 98.9622 165.192 98.9667H97.3084C92.0056 98.9622 87.7072 94.6639 87.7 89.3611V53.5558C87.7171 48.6668 91.4098 44.5752 96.2712 44.0573L96.45 44.0383V43.8585V35C96.45 15.7802 112.03 0.2 131.25 0.2C150.47 0.2 166.05 15.7802 166.05 35V43.8585ZM160.417 43.95H160.617V43.75V35C160.617 18.7804 147.47 5.63333 131.25 5.63333C115.03 5.63333 101.883 18.7804 101.883 35V43.75V43.95H102.083H107.917H108.117V43.75V35C108.117 22.2233 118.473 11.8667 131.25 11.8667C144.027 11.8667 154.383 22.2233 154.383 35V43.75V43.95H154.583H160.417ZM113.55 43.75V43.95H113.75H148.75H148.95V43.75V35C148.95 25.2263 141.024 17.3 131.25 17.3C121.476 17.3 113.55 25.2263 113.55 35V43.75ZM169.367 89.3614V89.3612V53.5555V53.5553C169.365 51.251 167.495 49.3843 165.192 49.3833H97.3082H97.3081C95.0049 49.3843 93.1352 51.251 93.1333 53.5553V53.5555L93.1333 89.3612L93.1333 89.3614C93.1352 91.6657 95.0049 93.5324 97.3081 93.5333H165.192C167.495 93.5324 169.365 91.6657 169.367 89.3614Z" fill="#414554" stroke="white" stroke-width="0.4"/>
<path d="M133.967 78.2132V84.3833H128.533V78.2132V78.0715L128.4 78.0245C124.477 76.6432 122.122 72.6339 122.827 68.5345C123.533 64.4342 127.091 61.4411 131.25 61.45L131.25 61.45C135.409 61.4411 138.967 64.4342 139.673 68.5345C140.378 72.6339 138.023 76.6432 134.1 78.0245L133.967 78.0715V78.2132ZM128.133 70C128.133 71.7219 129.528 73.1167 131.25 73.1167C132.972 73.1167 134.367 71.7219 134.367 70C134.367 68.2781 132.972 66.8834 131.25 66.8834C129.528 66.8834 128.133 68.2781 128.133 70Z" fill="#414554" stroke="white" stroke-width="0.4"/>
<path d="M52.7 46.8665H58.1333V52.2998H52.7V46.8665Z" fill="#414554" stroke="white" stroke-width="0.4"/>
<path d="M52.7 35.2H58.1333V40.6333H52.7V35.2Z" fill="#414554" stroke="white" stroke-width="0.4"/>
<path d="M52.7 23.5335H58.1333V28.9668H52.7V23.5335Z" fill="#414554" stroke="white" stroke-width="0.4"/>
<path d="M52.7 11.8665H58.1333V17.2998H52.7V11.8665Z" fill="#414554" stroke="white" stroke-width="0.4"/>
<path d="M64.3665 11.8665H69.7998V17.2998H64.3665V11.8665Z" fill="#414554" stroke="white" stroke-width="0.4"/>
<path d="M76.0335 11.8665H81.4668V17.2998H76.0335V11.8665Z" fill="#414554" stroke="white" stroke-width="0.4"/>
<path d="M87.7 11.8665H93.1333V17.2998H87.7V11.8665Z" fill="#414554" stroke="white" stroke-width="0.4"/>
</svg>
