<svg width="119" height="119" viewBox="0 0 119 119" fill="none" xmlns="http://www.w3.org/2000/svg">
<g clip-path="url(#clip0)">
<path d="M26.6131 11.8737L26.613 11.8737C25.2135 11.1749 23.5223 11.4484 22.4162 12.5555C22.4161 12.5555 22.4161 12.5555 22.4161 12.5555L12.5555 22.4152L12.6615 22.5213L12.5555 22.4153C11.4485 23.5222 11.1739 25.2135 11.8737 26.6131L16.5914 36.0484C14.9043 39.124 13.5576 42.3672 12.5689 45.7317L2.35659 49.0709C0.861347 49.5596 -0.15 50.9544 -0.15 52.5273V66.4727C-0.15 68.0455 0.861347 69.4404 2.35661 69.9291L12.5689 73.2674C13.5576 76.6319 14.9043 79.8751 16.5914 82.9516L11.8737 92.386L12.0079 92.4531L11.8737 92.386C11.1739 93.7865 11.4485 95.4769 12.5555 96.5838L22.4152 106.445C23.5222 107.551 25.2135 107.826 26.6131 107.126L36.0484 102.409C39.1231 104.096 42.3672 105.442 45.7326 106.431L49.0709 116.643C49.5596 118.139 50.9544 119.15 52.5273 119.15H66.4727C68.0455 119.15 69.4404 118.139 69.9291 116.643L73.2674 106.431C76.6329 105.442 79.876 104.095 82.9516 102.409L92.3869 107.126C93.7866 107.826 95.4769 107.551 96.5838 106.445L106.445 96.5838C107.551 95.4769 107.826 93.7865 107.126 92.386L107.126 92.386L102.408 82.9516C104.096 79.8751 105.442 76.6319 106.431 73.2674L116.643 69.9291C118.139 69.4404 119.15 68.0455 119.15 66.4727V52.5273C119.15 50.9544 118.139 49.5596 116.643 49.0709L106.431 45.7326C105.442 42.3671 104.095 39.124 102.409 36.0484L107.126 26.6131C107.826 25.2135 107.551 23.5222 106.445 22.4153L96.5847 12.5555C95.4778 11.4485 93.7865 11.1739 92.3869 11.8737L82.9516 16.5913C79.8769 14.9042 76.6329 13.5567 73.2682 12.5688L69.9291 2.35659C69.4404 0.861347 68.0455 -0.15 66.4727 -0.15H52.5273C50.9544 -0.15 49.5596 0.861347 49.0709 2.35661L45.7326 12.5689C42.3672 13.5576 39.124 14.9043 36.0484 16.5914L26.6131 11.8737ZM84.4571 95.0299L84.457 95.0298C83.3416 94.4731 82.0178 94.5251 80.9505 95.17C77.4026 97.3131 73.5652 98.907 69.5433 99.9075C68.3283 100.21 67.3539 101.116 66.9647 102.306L63.8354 111.877H55.1646L52.0353 102.306C51.6461 101.116 50.6726 100.21 49.4567 99.9075C45.4357 98.907 41.5974 97.3131 38.0495 95.17C36.9823 94.5252 35.6593 94.4721 34.5438 95.0299L25.705 99.4484L19.5507 93.295L23.9701 84.4571C24.5279 83.3416 24.4749 82.0177 23.83 80.9505C21.6869 77.4017 20.093 73.5634 19.0925 69.5433C18.7904 68.3283 17.8842 67.3539 16.6938 66.9647L7.12266 63.8354V55.1646L16.6938 52.0353L16.6472 51.8927L16.6938 52.0353C17.8842 51.6461 18.7904 50.6717 19.0925 49.4567C20.093 45.4357 21.6869 41.5974 23.83 38.0495C24.4749 36.9823 24.5279 35.6584 23.9701 34.5429L19.5516 25.705L25.705 19.5516L34.5438 23.9701C35.6593 24.5279 36.9823 24.4748 38.0495 23.83C41.5974 21.687 45.4356 20.0939 49.4567 19.0925C50.6726 18.7904 51.6461 17.8841 52.0353 16.6938L51.8927 16.6472L52.0353 16.6938L55.1646 7.12266H63.8354L66.9647 16.6938C67.3539 17.8842 68.3283 18.7904 69.5433 19.0925C73.5643 20.093 77.4026 21.6869 80.9505 23.83C82.0177 24.4748 83.3416 24.5279 84.4562 23.9701L93.295 19.5507L99.4484 25.705L95.0299 34.5429C94.4721 35.6584 94.5251 36.9823 95.17 38.0495C97.3122 41.5974 98.9061 45.4348 99.9075 49.4568C100.21 50.6716 101.116 51.6461 102.306 52.0344C102.306 52.0344 102.306 52.0344 102.306 52.0344L111.877 55.1646V63.8354L102.306 66.9647C101.116 67.3539 100.21 68.3283 99.9075 69.5433C98.907 73.5634 97.3131 77.4016 95.17 80.9514C94.5252 82.0186 94.4721 83.3416 95.0299 84.4571L99.4493 93.295L93.295 99.4493L84.4571 95.0299Z" fill="#414554" stroke="#414554" stroke-width="0.3"/>
<path d="M70.109 85.1295V62.9863C70.109 62.5951 70.0455 62.2069 69.9225 61.8368L69.9224 61.8367L62.9498 40.9187L62.9498 40.9187C62.4545 39.4339 61.0654 38.432 59.5 38.432C57.9346 38.432 56.5455 39.4339 56.0502 40.9187L56.0502 40.9187L49.0776 61.8367L49.0775 61.8368C48.9545 62.2069 48.891 62.5951 48.891 62.9863V85.1295C38.8436 80.9555 31.7594 71.0397 31.7594 59.5C31.7594 44.204 44.204 31.7594 59.5 31.7594C74.796 31.7594 87.2406 44.204 87.2406 59.5C87.2406 71.0397 80.1564 80.9555 70.109 85.1295ZM59.5 24.4867C40.1933 24.4867 24.4867 40.1933 24.4867 59.5C24.4867 78.877 40.2673 94.5133 59.5 94.5133C78.7236 94.5133 94.5133 78.8861 94.5133 59.5C94.5133 40.1933 78.8067 24.4867 59.5 24.4867ZM59.5 87.2406C58.3712 87.2406 57.2575 87.1722 56.1637 87.0401V70.109H62.8363V87.0401C61.7425 87.1722 60.6288 87.2406 59.5 87.2406ZM62.5894 62.8363H56.4106L59.5 53.5673L62.5894 62.8363Z" fill="#414554" stroke="#414554" stroke-width="0.3"/>
</g>
<defs>
<clipPath id="clip0">
<rect width="119" height="119" fill="white"/>
</clipPath>
</defs>
</svg>
