<svg width="71" height="71" viewBox="0 0 71 71" fill="none" xmlns="http://www.w3.org/2000/svg">
<g clip-path="url(#clip0)">
<path d="M63.6227 52.2793V44.3057C63.6227 42.6 62.2359 41.2133 60.5303 41.2133H37.5801V35.9715C46.4967 34.8898 53.4303 27.2629 53.4303 18.0412C53.4303 8.09844 45.3457 0 35.4029 0C25.4602 0 17.3895 8.09844 17.3895 18.0551C17.3895 27.3461 24.4201 35.0146 33.4338 35.9992V41.2271H10.4697C8.76406 41.2271 7.37734 42.6139 7.37734 44.3195V52.2793C3.16172 53.2361 0 57.0219 0 61.5287C0 66.7566 4.24336 71 9.45742 71C14.6715 71 18.9148 66.7566 18.9148 61.5287C18.9148 57.0219 15.7531 53.2361 11.5375 52.2932V45.3873H33.4199V52.3625C29.343 53.4164 26.3338 57.1328 26.3338 61.5287C26.3338 66.7566 30.5772 71 35.7912 71C41.0053 71 45.2486 66.7566 45.2486 61.5287C45.2486 56.9109 41.9482 53.0697 37.5801 52.2238V45.3873H59.4764V52.2932C55.2607 53.25 52.099 57.0219 52.099 61.5287C52.099 66.7566 56.3424 71 61.5564 71C66.7705 71 71.0139 66.7566 71.0139 61.5287C71 57.0219 67.8383 53.2361 63.6227 52.2793ZM38.8836 20.1352C38.5508 23.8654 37.3305 27.4709 35.3336 30.6326C33.3367 27.4709 32.1164 23.8654 31.7836 20.1352H38.8836ZM31.7697 15.975C32.1025 12.2447 33.3229 8.63926 35.3197 5.47754C37.3166 8.63926 38.5369 12.2447 38.8697 15.975H31.7697ZM39.7711 31.2428C41.6154 27.8176 42.7387 24.0318 43.0438 20.1352H49.1176C48.341 25.3492 44.6523 29.6203 39.7711 31.2428ZM49.1176 15.975H43.0438C42.7525 12.0783 41.6293 8.29258 39.7711 4.86738C44.6523 6.48984 48.3271 10.7609 49.1176 15.975ZM30.8406 4.93672C29.0102 8.33418 27.9008 12.1061 27.6096 15.975H21.7021C22.4648 10.8303 26.0564 6.61465 30.8406 4.93672ZM21.6883 20.1352H27.5957C27.8869 24.0041 28.9963 27.776 30.8268 31.1734C26.0564 29.4955 22.4648 25.266 21.6883 20.1352ZM14.7547 61.5287C14.7547 64.4547 12.3695 66.8398 9.45742 66.8398C6.53145 66.8398 4.16016 64.4547 4.16016 61.5287C4.16016 58.6027 6.54531 56.2176 9.45742 56.2176C12.3695 56.2176 14.7547 58.6027 14.7547 61.5287ZM41.0885 61.5287C41.0885 64.4547 38.7033 66.8398 35.7912 66.8398C32.8791 66.8398 30.4939 64.4547 30.4939 61.5287C30.4939 58.6027 32.8791 56.2176 35.7912 56.2176C38.7033 56.2176 41.0885 58.6027 41.0885 61.5287ZM61.5426 66.8398C58.6166 66.8398 56.2453 64.4547 56.2453 61.5287C56.2453 58.6027 58.6305 56.2176 61.5426 56.2176C64.4547 56.2176 66.8398 58.6027 66.8398 61.5287C66.8537 64.4547 64.4686 66.8398 61.5426 66.8398Z" fill="#414554"/>
</g>
<defs>
<clipPath id="clip0">
<rect width="71" height="71" fill="white"/>
</clipPath>
</defs>
</svg>
