<svg width="1013" height="243" viewBox="0 0 1013 243" fill="none" xmlns="http://www.w3.org/2000/svg">
<rect x="218" y="1" width="188" height="50" rx="3" stroke="white" stroke-width="2"/>
<rect x="16" y="1" width="188" height="50" rx="3" stroke="white" stroke-width="2"/>
<rect x="165" y="63" width="190" height="52" rx="4" fill="url(#paint0_linear)"/>
<rect x="665" y="128" width="188" height="50" rx="3" stroke="white" stroke-width="2"/>
<rect x="203" y="190" width="188" height="50" rx="3" stroke="white" stroke-width="2"/>
<rect x="1" y="190" width="188" height="50" rx="3" stroke="white" stroke-width="2"/>
<rect x="420" y="1" width="188" height="50" rx="3" stroke="white" stroke-width="2"/>
<rect x="368" y="64" width="188" height="50" rx="3" stroke="white" stroke-width="2"/>
<rect x="462" y="127" width="190" height="52" rx="4" fill="url(#paint1_linear)"/>
<rect x="622" y="1" width="188" height="50" rx="3" stroke="white" stroke-width="2"/>
<rect x="824" y="1" width="188" height="50" rx="3" stroke="white" stroke-width="2"/>
<rect x="776" y="64" width="188" height="50" rx="3" stroke="white" stroke-width="2"/>
<rect x="607" y="190" width="188" height="50" rx="3" stroke="white" stroke-width="2"/>
<rect x="59" y="127" width="188" height="50" rx="3" stroke="white" stroke-width="2"/>
<rect x="809" y="192" width="188" height="50" rx="3" stroke="white" stroke-width="2"/>
<rect x="570" y="64" width="188" height="50" rx="3" stroke="white" stroke-width="2"/>
<rect x="405" y="190" width="188" height="50" rx="3" stroke="white" stroke-width="2"/>
<rect x="261" y="127" width="188" height="50" rx="3" stroke="white" stroke-width="2"/>
<path d="M253.051 15.1953V32H255.781V20.0469L264.91 32H267.254V15.1953H264.523V27.1484L255.383 15.1953H253.051ZM271.871 24.9336C272.586 21.3359 277.883 21.2891 278.75 24.9336H271.871ZM280.555 29.9844L278.738 28.3906C277.883 29.3516 276.711 29.8789 275.422 29.8789C273.77 29.8789 272.234 28.8594 271.859 27.207H281.41C281.469 26.8086 281.492 26.4102 281.492 26.0117C281.492 22.5547 278.773 19.7539 275.305 19.7539C271.836 19.7539 269.129 22.5664 269.129 26.0117C269.129 32.0938 276.605 34.2969 280.555 29.9844ZM281.797 22.4844H284.293V32H286.895V22.4844H289.426V20H286.895V16.4961H284.293V20H281.797V22.4844ZM297.195 20L294.57 27.8047L292.25 20H289.496L293.352 32H295.66L298.309 24.0195L300.945 32H303.266L307.121 20H304.367L302.047 27.8047L299.41 20H297.195ZM313.438 32.2461C316.93 32.2461 319.742 29.5391 319.742 26.0234C319.742 22.5312 316.918 19.7539 313.438 19.7539C309.969 19.7539 307.121 22.543 307.121 26.0234C307.121 29.5625 309.922 32.2461 313.438 32.2461ZM309.711 26.0117C309.711 23.9258 311.328 22.2266 313.438 22.2266C315.535 22.2266 317.152 23.9375 317.152 26.0117C317.152 28.0977 315.535 29.7734 313.438 29.7734C311.328 29.7734 309.711 28.1094 309.711 26.0117ZM324.23 20H321.629V32H324.23V25.5547C324.23 23.7969 324.957 22.4258 326.879 22.4258H328.484V20C326.375 20 324.688 20.1289 324.23 22.5781V20ZM329.809 15.1953V32H332.434V27.1484H333.535L337.824 32H341.211L335.855 25.8477L340.578 20H337.285L333.547 24.582H332.434V15.1953H329.809ZM342.348 32H344.961V20H342.348V32ZM342.348 18.1719H344.961V15.1953H342.348V18.1719ZM350.07 20H347.469V32H350.07V25.2852C350.07 23.6094 350.891 22.2266 352.707 22.2266C354.559 22.2266 355.355 23.5859 355.355 25.2852V32H357.957V25.2617C357.957 22.5078 356.773 19.7773 353.633 19.7773C352.039 19.7773 350.668 20.5273 350.07 22.0391V20ZM369.547 30.1367V30.6289C369.512 33.0195 368.586 34.8242 365.949 34.8242C364.297 34.8242 362.938 34.0039 362.258 32.4805L359.973 33.6758C361.215 36.0078 363.312 37.2617 365.949 37.2617C370.121 37.2617 372.148 34.6484 372.148 30.6289V20H369.547V21.8633C368.609 20.5039 367.25 19.7773 365.586 19.7773C362.246 19.7773 359.668 22.7773 359.668 26.0234C359.668 29.3633 362.164 32.2344 365.586 32.2344C367.25 32.2344 368.598 31.4961 369.547 30.1367ZM362.258 26.0117C362.258 23.9258 363.875 22.2266 365.984 22.2266C368.082 22.2266 369.699 23.9375 369.699 26.0117C369.699 28.0977 368.082 29.7734 365.984 29.7734C363.875 29.7734 362.258 28.1094 362.258 26.0117Z" fill="white"/>
<path d="M231.203 79.1953L225.145 87.7383L219.098 79.1953H216.742V96H219.449V84.0703L225.145 92.1211L230.852 84.0703V96H233.57V79.1953H231.203ZM236.102 96H238.715V84H236.102V96ZM236.102 82.1719H238.715V79.1953H236.102V82.1719ZM250.41 94.1367V94.6289C250.375 97.0195 249.449 98.8242 246.812 98.8242C245.16 98.8242 243.801 98.0039 243.121 96.4805L240.836 97.6758C242.078 100.008 244.176 101.262 246.812 101.262C250.984 101.262 253.012 98.6484 253.012 94.6289V84H250.41V85.8633C249.473 84.5039 248.113 83.7773 246.449 83.7773C243.109 83.7773 240.531 86.7773 240.531 90.0234C240.531 93.3633 243.027 96.2344 246.449 96.2344C248.113 96.2344 249.461 95.4961 250.41 94.1367ZM243.121 90.0117C243.121 87.9258 244.738 86.2266 246.848 86.2266C248.945 86.2266 250.562 87.9375 250.562 90.0117C250.562 92.0977 248.945 93.7734 246.848 93.7734C244.738 93.7734 243.121 92.1094 243.121 90.0117ZM257.992 84H255.391V96H257.992V89.5547C257.992 87.7969 258.719 86.4258 260.641 86.4258H262.246V84C260.137 84 258.449 84.1289 257.992 86.5781V84ZM272.301 94.1367V96H274.902V84H272.301V85.8633C271.363 84.5039 270.004 83.7773 268.34 83.7773C265 83.7773 262.422 86.7773 262.422 90.0234C262.422 93.3633 264.918 96.2344 268.34 96.2344C270.004 96.2344 271.352 95.4961 272.301 94.1367ZM265.012 90.0117C265.012 87.9258 266.629 86.2266 268.738 86.2266C270.836 86.2266 272.453 87.9375 272.453 90.0117C272.453 92.0977 270.836 93.7734 268.738 93.7734C266.629 93.7734 265.012 92.1094 265.012 90.0117ZM276.215 86.4844H278.711V96H281.312V86.4844H283.844V84H281.312V80.4961H278.711V84H276.215V86.4844ZM290.465 96.2461C293.957 96.2461 296.77 93.5391 296.77 90.0234C296.77 86.5312 293.945 83.7539 290.465 83.7539C286.996 83.7539 284.148 86.543 284.148 90.0234C284.148 93.5625 286.949 96.2461 290.465 96.2461ZM286.738 90.0117C286.738 87.9258 288.355 86.2266 290.465 86.2266C292.562 86.2266 294.18 87.9375 294.18 90.0117C294.18 92.0977 292.562 93.7734 290.465 93.7734C288.355 93.7734 286.738 92.1094 286.738 90.0117ZM301.258 84H298.656V96H301.258V89.5547C301.258 87.7969 301.984 86.4258 303.906 86.4258H305.512V84C303.402 84 301.715 84.1289 301.258 86.5781V84Z" fill="white"/>
<path d="M726.844 156.742L724.699 155.078C723.562 156.672 721.699 157.785 719.707 157.785C716.156 157.785 713.602 155.113 713.602 151.586C713.602 148.223 716.332 145.41 719.707 145.41C721.57 145.41 723.352 146.359 724.488 147.812L726.527 146.066C724.758 143.945 722.484 142.809 719.707 142.809C714.773 142.809 710.871 146.629 710.871 151.586C710.871 156.555 714.75 160.387 719.707 160.387C722.496 160.387 725.168 158.957 726.844 156.742ZM733.535 160.246C737.027 160.246 739.84 157.539 739.84 154.023C739.84 150.531 737.016 147.754 733.535 147.754C730.066 147.754 727.219 150.543 727.219 154.023C727.219 157.562 730.02 160.246 733.535 160.246ZM729.809 154.012C729.809 151.926 731.426 150.227 733.535 150.227C735.633 150.227 737.25 151.938 737.25 154.012C737.25 156.098 735.633 157.773 733.535 157.773C731.426 157.773 729.809 156.109 729.809 154.012ZM744.328 148H741.727V160H744.328V153.297C744.328 151.785 744.984 150.25 746.707 150.25C748.488 150.25 749.098 151.715 749.098 153.285V160H751.699V153.297C751.699 151.785 752.355 150.25 754.078 150.25C755.871 150.25 756.469 151.703 756.469 153.285V160H759.07V153.262C759.07 150.484 757.98 147.766 754.805 147.766C753.152 147.766 751.758 148.434 750.914 149.898C750.27 148.527 749.109 147.766 747.586 147.766C746.027 147.766 744.832 148.551 744.328 150.039V148ZM764.156 149.875V148H761.555V164.91H764.156V158.148C765.105 159.508 766.465 160.223 768.117 160.223C771.457 160.223 774.035 157.223 774.035 153.977C774.035 150.637 771.539 147.766 768.117 147.766C766.453 147.766 765.094 148.504 764.156 149.875ZM771.445 153.988C771.445 156.074 769.828 157.773 767.719 157.773C765.621 157.773 764.004 156.062 764.004 153.988C764.004 151.902 765.621 150.227 767.719 150.227C769.828 150.227 771.445 151.891 771.445 153.988ZM778.312 148H775.699V155.242C775.699 158.055 777.973 160.246 780.762 160.246C783.539 160.246 785.812 158.031 785.812 155.242V148H783.211V155.242C783.211 156.602 782.145 157.762 780.762 157.762C779.367 157.762 778.312 156.613 778.312 155.242V148ZM786.949 150.484H789.445V160H792.047V150.484H794.578V148H792.047V144.496H789.445V148H786.949V150.484ZM797.625 152.934C798.34 149.336 803.637 149.289 804.504 152.934H797.625ZM806.309 157.984L804.492 156.391C803.637 157.352 802.465 157.879 801.176 157.879C799.523 157.879 797.988 156.859 797.613 155.207H807.164C807.223 154.809 807.246 154.41 807.246 154.012C807.246 150.555 804.527 147.754 801.059 147.754C797.59 147.754 794.883 150.566 794.883 154.012C794.883 160.094 802.359 162.297 806.309 157.984Z" fill="white"/>
<path d="M259.402 218.398V206.797H262.426C265.789 206.797 268.613 209.105 268.613 212.598C268.613 216.113 265.812 218.398 262.426 218.398H259.402ZM256.672 204.195V221C258.594 221 260.504 220.988 262.426 220.988C267.277 220.988 271.332 217.613 271.332 212.598C271.332 207.594 267.266 204.195 262.426 204.195H256.672ZM275.234 213.934C275.949 210.336 281.246 210.289 282.113 213.934H275.234ZM283.918 218.984L282.102 217.391C281.246 218.352 280.074 218.879 278.785 218.879C277.133 218.879 275.598 217.859 275.223 216.207H284.773C284.832 215.809 284.855 215.41 284.855 215.012C284.855 211.555 282.137 208.754 278.668 208.754C275.199 208.754 272.492 211.566 272.492 215.012C272.492 221.094 279.969 223.297 283.918 218.984ZM293.797 209L290.68 217.461L287.562 209H284.773L289.473 221H291.875L296.574 209H293.797ZM305.516 218.797C302.094 218.797 299.375 216.031 299.375 212.621C299.375 209.199 302.07 206.422 305.516 206.422C308.949 206.422 311.645 209.211 311.645 212.621C311.645 216.031 308.938 218.797 305.516 218.797ZM314.375 212.621C314.375 207.723 310.402 203.809 305.516 203.809C300.641 203.809 296.645 207.734 296.645 212.621C296.645 217.531 300.641 221.387 305.516 221.387C310.391 221.387 314.375 217.531 314.375 212.621ZM319.039 210.875V209H316.438V225.91H319.039V219.148C319.988 220.508 321.348 221.223 323 221.223C326.34 221.223 328.918 218.223 328.918 214.977C328.918 211.637 326.422 208.766 323 208.766C321.336 208.766 319.977 209.504 319.039 210.875ZM326.328 214.988C326.328 217.074 324.711 218.773 322.602 218.773C320.504 218.773 318.887 217.062 318.887 214.988C318.887 212.902 320.504 211.227 322.602 211.227C324.711 211.227 326.328 212.891 326.328 214.988ZM337.672 212.023L338.574 209.68C337.414 209.152 336.113 208.754 334.836 208.754C332.609 208.754 330.16 209.785 330.16 212.352C330.16 216.312 336.254 215.586 336.254 217.578C336.254 218.527 334.859 218.785 334.145 218.785C333.16 218.785 332.023 218.316 331.156 217.883L330.16 220.191C331.379 220.789 332.785 221.246 334.156 221.246C336.359 221.246 338.844 220.227 338.844 217.672C338.844 213.582 332.773 214.449 332.773 212.422C332.773 211.402 334.086 211.227 334.848 211.227C335.809 211.227 336.828 211.59 337.672 212.023Z" fill="white"/>
<path d="M470.543 33.7969C467.121 33.7969 464.402 31.0312 464.402 27.6211C464.402 24.1992 467.098 21.4219 470.543 21.4219C473.977 21.4219 476.672 24.2109 476.672 27.6211C476.672 31.0312 473.965 33.7969 470.543 33.7969ZM479.402 27.6211C479.402 22.7227 475.43 18.8086 470.543 18.8086C465.668 18.8086 461.672 22.7344 461.672 27.6211C461.672 32.5312 465.668 36.3867 470.543 36.3867C475.418 36.3867 479.402 32.5312 479.402 27.6211ZM484.066 25.875V24H481.465V40.9102H484.066V34.1484C485.016 35.5078 486.375 36.2227 488.027 36.2227C491.367 36.2227 493.945 33.2227 493.945 29.9766C493.945 26.6367 491.449 23.7656 488.027 23.7656C486.363 23.7656 485.004 24.5039 484.066 25.875ZM491.355 29.9883C491.355 32.0742 489.738 33.7734 487.629 33.7734C485.531 33.7734 483.914 32.0625 483.914 29.9883C483.914 27.9023 485.531 26.2266 487.629 26.2266C489.738 26.2266 491.355 27.8906 491.355 29.9883ZM498.105 28.9336C498.82 25.3359 504.117 25.2891 504.984 28.9336H498.105ZM506.789 33.9844L504.973 32.3906C504.117 33.3516 502.945 33.8789 501.656 33.8789C500.004 33.8789 498.469 32.8594 498.094 31.207H507.645C507.703 30.8086 507.727 30.4102 507.727 30.0117C507.727 26.5547 505.008 23.7539 501.539 23.7539C498.07 23.7539 495.363 26.5664 495.363 30.0117C495.363 36.0938 502.84 38.2969 506.789 33.9844ZM512.203 24H509.602V36H512.203V29.2852C512.203 27.6094 513.023 26.2266 514.84 26.2266C516.691 26.2266 517.488 27.5859 517.488 29.2852V36H520.09V29.2617C520.09 26.5078 518.906 23.7773 515.766 23.7773C514.172 23.7773 512.801 24.5273 512.203 26.0391V24ZM522.902 32.5781L521.883 34.9688C523.535 35.6602 525.41 36.3164 527.215 36.3164C530.121 36.3164 533.578 34.9219 533.578 31.5352C533.578 25.5117 524.602 27.3516 524.602 23.6953C524.602 21.8438 526.828 21.5273 528.246 21.5273C529.547 21.5273 531.023 22.0195 532.219 22.5117L533.168 20.1094C531.715 19.418 529.852 18.9141 528.234 18.9141C525.293 18.9141 521.871 20.2383 521.871 23.6836C521.871 29.6836 530.848 27.8906 530.848 31.5234C530.848 33.1875 528.516 33.7148 527.215 33.7148C525.82 33.7148 524.18 33.1055 522.902 32.5781ZM538.406 19.1953H535.805V36H538.406V29.2852C538.406 27.6094 539.227 26.2266 541.043 26.2266C542.895 26.2266 543.691 27.5859 543.691 29.2852V36H546.293V29.2617C546.293 26.5078 545.109 23.7773 541.969 23.7773C540.375 23.7773 539.004 24.5273 538.406 26.0391V19.1953ZM548.66 36H551.273V24H548.66V36ZM548.66 22.1719H551.273V19.1953H548.66V22.1719ZM552.504 26.4844H554.754V36H557.355V26.4844H560.086V24H557.367V22.2422C557.367 21.7148 557.707 21.375 558.234 21.375C559.031 21.375 559.676 21.8555 560.086 22.5V19.6523C559.629 19.1719 558.902 18.9023 558.246 18.9023C556.324 18.9023 554.754 20.2617 554.754 22.2305V24H552.504V26.4844ZM560.391 26.4844H562.887V36H565.488V26.4844H568.02V24H565.488V20.4961H562.887V24H560.391V26.4844Z" fill="white"/>
<path d="M422.074 91.5781L421.055 93.9688C422.707 94.6602 424.582 95.3164 426.387 95.3164C429.293 95.3164 432.75 93.9219 432.75 90.5352C432.75 84.5117 423.773 86.3516 423.773 82.6953C423.773 80.8438 426 80.5273 427.418 80.5273C428.719 80.5273 430.195 81.0195 431.391 81.5117L432.34 79.1094C430.887 78.418 429.023 77.9141 427.406 77.9141C424.465 77.9141 421.043 79.2383 421.043 82.6836C421.043 88.6836 430.02 86.8906 430.02 90.5234C430.02 92.1875 427.688 92.7148 426.387 92.7148C424.992 92.7148 423.352 92.1055 422.074 91.5781ZM433.055 85.4844H435.551V95H438.152V85.4844H440.684V83H438.152V79.4961H435.551V83H433.055V85.4844ZM447.305 95.2461C450.797 95.2461 453.609 92.5391 453.609 89.0234C453.609 85.5312 450.785 82.7539 447.305 82.7539C443.836 82.7539 440.988 85.543 440.988 89.0234C440.988 92.5625 443.789 95.2461 447.305 95.2461ZM443.578 89.0117C443.578 86.9258 445.195 85.2266 447.305 85.2266C449.402 85.2266 451.02 86.9375 451.02 89.0117C451.02 91.0977 449.402 92.7734 447.305 92.7734C445.195 92.7734 443.578 91.1094 443.578 89.0117ZM458.098 83H455.496V95H458.098V88.5547C458.098 86.7969 458.824 85.4258 460.746 85.4258H462.352V83C460.242 83 458.555 83.1289 458.098 85.5781V83ZM472.406 93.1367V95H475.008V83H472.406V84.8633C471.469 83.5039 470.109 82.7773 468.445 82.7773C465.105 82.7773 462.527 85.7773 462.527 89.0234C462.527 92.3633 465.023 95.2344 468.445 95.2344C470.109 95.2344 471.457 94.4961 472.406 93.1367ZM465.117 89.0117C465.117 86.9258 466.734 85.2266 468.844 85.2266C470.941 85.2266 472.559 86.9375 472.559 89.0117C472.559 91.0977 470.941 92.7734 468.844 92.7734C466.734 92.7734 465.117 91.1094 465.117 89.0117ZM486.727 93.1367V93.6289C486.691 96.0195 485.766 97.8242 483.129 97.8242C481.477 97.8242 480.117 97.0039 479.438 95.4805L477.152 96.6758C478.395 99.0078 480.492 100.262 483.129 100.262C487.301 100.262 489.328 97.6484 489.328 93.6289V83H486.727V84.8633C485.789 83.5039 484.43 82.7773 482.766 82.7773C479.426 82.7773 476.848 85.7773 476.848 89.0234C476.848 92.3633 479.344 95.2344 482.766 95.2344C484.43 95.2344 485.777 94.4961 486.727 93.1367ZM479.438 89.0117C479.438 86.9258 481.055 85.2266 483.164 85.2266C485.262 85.2266 486.879 86.9375 486.879 89.0117C486.879 91.0977 485.262 92.7734 483.164 92.7734C481.055 92.7734 479.438 91.1094 479.438 89.0117ZM493.746 87.9336C494.461 84.3359 499.758 84.2891 500.625 87.9336H493.746ZM502.43 92.9844L500.613 91.3906C499.758 92.3516 498.586 92.8789 497.297 92.8789C495.645 92.8789 494.109 91.8594 493.734 90.207H503.285C503.344 89.8086 503.367 89.4102 503.367 89.0117C503.367 85.5547 500.648 82.7539 497.18 82.7539C493.711 82.7539 491.004 85.5664 491.004 89.0117C491.004 95.0938 498.48 97.2969 502.43 92.9844Z" fill="white"/>
<path d="M539.219 156.398V144.797H542.242C545.605 144.797 548.43 147.105 548.43 150.598C548.43 154.113 545.629 156.398 542.242 156.398H539.219ZM536.488 142.195V159C538.41 159 540.32 158.988 542.242 158.988C547.094 158.988 551.148 155.613 551.148 150.598C551.148 145.594 547.082 142.195 542.242 142.195H536.488ZM553.059 159H555.672V147H553.059V159ZM553.059 145.172H555.672V142.195H553.059V145.172ZM565.246 150.023L566.148 147.68C564.988 147.152 563.688 146.754 562.41 146.754C560.184 146.754 557.734 147.785 557.734 150.352C557.734 154.312 563.828 153.586 563.828 155.578C563.828 156.527 562.434 156.785 561.719 156.785C560.734 156.785 559.598 156.316 558.73 155.883L557.734 158.191C558.953 158.789 560.359 159.246 561.73 159.246C563.934 159.246 566.418 158.227 566.418 155.672C566.418 151.582 560.348 152.449 560.348 150.422C560.348 149.402 561.66 149.227 562.422 149.227C563.383 149.227 564.402 149.59 565.246 150.023ZM568.48 142.195V159H571.105V154.148H572.207L576.496 159H579.883L574.527 152.848L579.25 147H575.957L572.219 151.582H571.105V142.195H568.48Z" fill="white"/>
<path d="M665.754 19.1953L658.723 36H661.664L663.492 31.7109H670.453L672.27 36H675.223L668.191 19.1953H665.754ZM666.984 23.0391L669.539 29.3438H664.395L666.984 23.0391ZM679.266 24H676.664V36H679.266V29.5547C679.266 27.7969 679.992 26.4258 681.914 26.4258H683.52V24C681.41 24 679.723 24.1289 679.266 26.5781V24ZM683.965 26.4844H686.461V36H689.062V26.4844H691.594V24H689.062V20.4961H686.461V24H683.965V26.4844ZM692.883 36H695.496V24H692.883V36ZM692.883 22.1719H695.496V19.1953H692.883V22.1719ZM696.727 26.4844H698.977V36H701.578V26.4844H704.309V24H701.59V22.2422C701.59 21.7148 701.93 21.375 702.457 21.375C703.254 21.375 703.898 21.8555 704.309 22.5V19.6523C703.852 19.1719 703.125 18.9023 702.469 18.9023C700.547 18.9023 698.977 20.2617 698.977 22.2305V24H696.727V26.4844ZM714.176 34.1367V36H716.777V24H714.176V25.8633C713.238 24.5039 711.879 23.7773 710.215 23.7773C706.875 23.7773 704.297 26.7773 704.297 30.0234C704.297 33.3633 706.793 36.2344 710.215 36.2344C711.879 36.2344 713.227 35.4961 714.176 34.1367ZM706.887 30.0117C706.887 27.9258 708.504 26.2266 710.613 26.2266C712.711 26.2266 714.328 27.9375 714.328 30.0117C714.328 32.0977 712.711 33.7734 710.613 33.7734C708.504 33.7734 706.887 32.1094 706.887 30.0117ZM730.207 26.7188C729.094 24.8789 727.078 23.7539 724.934 23.7539C721.465 23.7539 718.617 26.543 718.617 30.0234C718.617 36.3047 726.891 38.5781 730.195 33.3281L728.133 31.9219C726.152 35.2031 721.207 33.8438 721.207 30.0117C721.207 26.1797 726.199 24.7969 728.098 28.0195L730.207 26.7188ZM730.91 26.4844H733.406V36H736.008V26.4844H738.539V24H736.008V20.4961H733.406V24H730.91V26.4844ZM745.16 36.2461C748.652 36.2461 751.465 33.5391 751.465 30.0234C751.465 26.5312 748.641 23.7539 745.16 23.7539C741.691 23.7539 738.844 26.543 738.844 30.0234C738.844 33.5625 741.645 36.2461 745.16 36.2461ZM741.434 30.0117C741.434 27.9258 743.051 26.2266 745.16 26.2266C747.258 26.2266 748.875 27.9375 748.875 30.0117C748.875 32.0977 747.258 33.7734 745.16 33.7734C743.051 33.7734 741.434 32.1094 741.434 30.0117ZM755.953 24H753.352V36H755.953V29.5547C755.953 27.7969 756.68 26.4258 758.602 26.4258H760.207V24C758.098 24 756.41 24.1289 755.953 26.5781V24ZM769.629 24L766.43 31.875L763.066 24H760.242L765.059 34.9922L762.633 40.9102H765.41L772.43 24H769.629Z" fill="white"/>
<path d="M651.996 91.7422L649.852 90.0781C648.715 91.6719 646.852 92.7852 644.859 92.7852C641.309 92.7852 638.754 90.1133 638.754 86.5859C638.754 83.2227 641.484 80.4102 644.859 80.4102C646.723 80.4102 648.504 81.3594 649.641 82.8125L651.68 81.0664C649.91 78.9453 647.637 77.8086 644.859 77.8086C639.926 77.8086 636.023 81.6289 636.023 86.5859C636.023 91.5547 639.902 95.3867 644.859 95.3867C647.648 95.3867 650.32 93.957 651.996 91.7422ZM658.688 95.2461C662.18 95.2461 664.992 92.5391 664.992 89.0234C664.992 85.5312 662.168 82.7539 658.688 82.7539C655.219 82.7539 652.371 85.543 652.371 89.0234C652.371 92.5625 655.172 95.2461 658.688 95.2461ZM654.961 89.0117C654.961 86.9258 656.578 85.2266 658.688 85.2266C660.785 85.2266 662.402 86.9375 662.402 89.0117C662.402 91.0977 660.785 92.7734 658.688 92.7734C656.578 92.7734 654.961 91.1094 654.961 89.0117ZM676.289 93.1367V95H678.891V78.1953H676.289V84.8633C675.352 83.5039 673.992 82.7773 672.328 82.7773C668.988 82.7773 666.41 85.7773 666.41 89.0234C666.41 92.3633 668.906 95.2344 672.328 95.2344C673.992 95.2344 675.34 94.4961 676.289 93.1367ZM669 89.0117C669 86.9258 670.617 85.2266 672.727 85.2266C674.824 85.2266 676.441 86.9375 676.441 89.0117C676.441 91.0977 674.824 92.7734 672.727 92.7734C670.617 92.7734 669 91.1094 669 89.0117ZM683.473 87.9336C684.188 84.3359 689.484 84.2891 690.352 87.9336H683.473ZM692.156 92.9844L690.34 91.3906C689.484 92.3516 688.312 92.8789 687.023 92.8789C685.371 92.8789 683.836 91.8594 683.461 90.207H693.012C693.07 89.8086 693.094 89.4102 693.094 89.0117C693.094 85.5547 690.375 82.7539 686.906 82.7539C683.438 82.7539 680.73 85.5664 680.73 89.0117C680.73 95.0938 688.207 97.2969 692.156 92.9844Z" fill="white"/>
<path d="M461.355 207.809H464.883C466.57 207.809 467.918 209.25 467.918 210.914C467.918 212.625 466.617 214.02 464.883 214.02H461.355V207.809ZM461.355 216.633H464.883C468.059 216.633 470.648 214.113 470.648 210.914C470.648 207.762 468.023 205.195 464.883 205.195H458.613V222H461.355V216.633ZM474.668 210H472.066V222H474.668V215.555C474.668 213.797 475.395 212.426 477.316 212.426H478.922V210C476.812 210 475.125 210.129 474.668 212.578V210ZM485.414 222.246C488.906 222.246 491.719 219.539 491.719 216.023C491.719 212.531 488.895 209.754 485.414 209.754C481.945 209.754 479.098 212.543 479.098 216.023C479.098 219.562 481.898 222.246 485.414 222.246ZM481.688 216.012C481.688 213.926 483.305 212.227 485.414 212.227C487.512 212.227 489.129 213.938 489.129 216.012C489.129 218.098 487.512 219.773 485.414 219.773C483.305 219.773 481.688 218.109 481.688 216.012ZM493.465 226.91H496.078V210H493.465V226.91ZM493.465 208.172H496.078V205.195H493.465V208.172ZM500.707 214.934C501.422 211.336 506.719 211.289 507.586 214.934H500.707ZM509.391 219.984L507.574 218.391C506.719 219.352 505.547 219.879 504.258 219.879C502.605 219.879 501.07 218.859 500.695 217.207H510.246C510.305 216.809 510.328 216.41 510.328 216.012C510.328 212.555 507.609 209.754 504.141 209.754C500.672 209.754 497.965 212.566 497.965 216.012C497.965 222.094 505.441 224.297 509.391 219.984ZM523.219 212.719C522.105 210.879 520.09 209.754 517.945 209.754C514.477 209.754 511.629 212.543 511.629 216.023C511.629 222.305 519.902 224.578 523.207 219.328L521.145 217.922C519.164 221.203 514.219 219.844 514.219 216.012C514.219 212.18 519.211 210.797 521.109 214.02L523.219 212.719ZM523.922 212.484H526.418V222H529.02V212.484H531.551V210H529.02V206.496H526.418V210H523.922V212.484ZM539.73 213.023L540.633 210.68C539.473 210.152 538.172 209.754 536.895 209.754C534.668 209.754 532.219 210.785 532.219 213.352C532.219 217.312 538.312 216.586 538.312 218.578C538.312 219.527 536.918 219.785 536.203 219.785C535.219 219.785 534.082 219.316 533.215 218.883L532.219 221.191C533.438 221.789 534.844 222.246 536.215 222.246C538.418 222.246 540.902 221.227 540.902 218.672C540.902 214.582 534.832 215.449 534.832 213.422C534.832 212.402 536.145 212.227 536.906 212.227C537.867 212.227 538.887 212.59 539.73 213.023Z" fill="white"/>
<path d="M307.762 154.742L305.617 153.078C304.48 154.672 302.617 155.785 300.625 155.785C297.074 155.785 294.52 153.113 294.52 149.586C294.52 146.223 297.25 143.41 300.625 143.41C302.488 143.41 304.27 144.359 305.406 145.812L307.445 144.066C305.676 141.945 303.402 140.809 300.625 140.809C295.691 140.809 291.789 144.629 291.789 149.586C291.789 154.555 295.668 158.387 300.625 158.387C303.414 158.387 306.086 156.957 307.762 154.742ZM314.453 158.246C317.945 158.246 320.758 155.539 320.758 152.023C320.758 148.531 317.934 145.754 314.453 145.754C310.984 145.754 308.137 148.543 308.137 152.023C308.137 155.562 310.938 158.246 314.453 158.246ZM310.727 152.012C310.727 149.926 312.344 148.227 314.453 148.227C316.551 148.227 318.168 149.938 318.168 152.012C318.168 154.098 316.551 155.773 314.453 155.773C312.344 155.773 310.727 154.109 310.727 152.012ZM325.246 146H322.645V158H325.246V151.297C325.246 149.785 325.902 148.25 327.625 148.25C329.406 148.25 330.016 149.715 330.016 151.285V158H332.617V151.297C332.617 149.785 333.273 148.25 334.996 148.25C336.789 148.25 337.387 149.703 337.387 151.285V158H339.988V151.262C339.988 148.484 338.898 145.766 335.723 145.766C334.07 145.766 332.676 146.434 331.832 147.898C331.188 146.527 330.027 145.766 328.504 145.766C326.945 145.766 325.75 146.551 325.246 148.039V146ZM345.074 147.875V146H342.473V162.91H345.074V156.148C346.023 157.508 347.383 158.223 349.035 158.223C352.375 158.223 354.953 155.223 354.953 151.977C354.953 148.637 352.457 145.766 349.035 145.766C347.371 145.766 346.012 146.504 345.074 147.875ZM352.363 151.988C352.363 154.074 350.746 155.773 348.637 155.773C346.539 155.773 344.922 154.062 344.922 151.988C344.922 149.902 346.539 148.227 348.637 148.227C350.746 148.227 352.363 149.891 352.363 151.988ZM356.84 158H359.441V141.195H356.84V158ZM361.973 158H364.586V146H361.973V158ZM361.973 144.172H364.586V141.195H361.973V144.172ZM376.281 156.137V158H378.883V146H376.281V147.863C375.344 146.504 373.984 145.777 372.32 145.777C368.98 145.777 366.402 148.777 366.402 152.023C366.402 155.363 368.898 158.234 372.32 158.234C373.984 158.234 375.332 157.496 376.281 156.137ZM368.992 152.012C368.992 149.926 370.609 148.227 372.719 148.227C374.816 148.227 376.434 149.938 376.434 152.012C376.434 154.098 374.816 155.773 372.719 155.773C370.609 155.773 368.992 154.109 368.992 152.012ZM384.016 146H381.414V158H384.016V151.285C384.016 149.609 384.836 148.227 386.652 148.227C388.504 148.227 389.301 149.586 389.301 151.285V158H391.902V151.262C391.902 148.508 390.719 145.777 387.578 145.777C385.984 145.777 384.613 146.527 384.016 148.039V146ZM405.203 148.719C404.09 146.879 402.074 145.754 399.93 145.754C396.461 145.754 393.613 148.543 393.613 152.023C393.613 158.305 401.887 160.578 405.191 155.328L403.129 153.922C401.148 157.203 396.203 155.844 396.203 152.012C396.203 148.18 401.195 146.797 403.094 150.02L405.203 148.719ZM408.707 150.934C409.422 147.336 414.719 147.289 415.586 150.934H408.707ZM417.391 155.984L415.574 154.391C414.719 155.352 413.547 155.879 412.258 155.879C410.605 155.879 409.07 154.859 408.695 153.207H418.246C418.305 152.809 418.328 152.41 418.328 152.012C418.328 148.555 415.609 145.754 412.141 145.754C408.672 145.754 405.965 148.566 405.965 152.012C405.965 158.094 413.441 160.297 417.391 155.984Z" fill="white"/>
<defs>
<linearGradient id="paint0_linear" x1="165" y1="89" x2="355" y2="89" gradientUnits="userSpaceOnUse">
<stop stop-color="#4900C0"/>
<stop offset="1" stop-color="#AD00FF"/>
</linearGradient>
<linearGradient id="paint1_linear" x1="462" y1="153" x2="652" y2="153" gradientUnits="userSpaceOnUse">
<stop stop-color="#FF4D00"/>
<stop offset="1" stop-color="#FFB800"/>
</linearGradient>
</defs>
</svg>
