<svg width="41" height="41" viewBox="0 0 41 41" fill="none" xmlns="http://www.w3.org/2000/svg">
<g clip-path="url(#clip0)">
<path d="M8.76152 7.1344H1.20587C0.539805 7.1344 0 6.59423 0 5.92853C0 5.26282 0.539805 4.72266 1.20587 4.72266H8.76152C9.42759 4.72266 9.96739 5.26282 9.96739 5.92853C9.96739 6.59423 9.42759 7.1344 8.76152 7.1344Z" fill="white"/>
<path d="M13.0792 11.4514C10.0334 11.4514 7.55566 8.97364 7.55566 5.92816C7.55566 2.88205 10.0334 0.404297 13.0792 0.404297C16.1249 0.404297 18.6027 2.88205 18.6027 5.92816C18.6027 8.97373 16.1249 11.4514 13.0792 11.4514ZM13.0792 2.81613C11.3633 2.81613 9.96741 4.2123 9.96741 5.92816C9.96741 7.64402 11.3633 9.03956 13.0792 9.03956C14.795 9.03956 16.1909 7.64402 16.1909 5.92816C16.1909 4.2123 14.795 2.81613 13.0792 2.81613Z" fill="white"/>
<path d="M39.7943 7.1344H18.2059C17.5398 7.1344 17 6.59423 17 5.92853C17 5.26282 17.5398 4.72266 18.2059 4.72266H39.7942C40.4603 4.72266 41.0001 5.26282 41.0001 5.92853C41.0001 6.59423 40.4603 7.1344 39.7943 7.1344Z" fill="white"/>
<path d="M29.2701 26.0235C26.2242 26.0235 23.7466 23.5458 23.7466 20.5003C23.7466 17.4548 26.2243 14.9771 29.2701 14.9771C32.3158 14.9771 34.7936 17.4548 34.7936 20.5003C34.7936 23.5458 32.3159 26.0235 29.2701 26.0235ZM29.2701 17.3889C27.5542 17.3889 26.1583 18.7844 26.1583 20.5003C26.1583 22.2161 27.5542 23.6117 29.2701 23.6117C30.986 23.6117 32.3818 22.2161 32.3818 20.5003C32.3818 18.7844 30.986 17.3889 29.2701 17.3889Z" fill="white"/>
<path d="M20.5782 21.7057H1.20587C0.539805 21.7057 0 21.1655 0 20.4998C0 19.8341 0.539805 19.2939 1.20587 19.2939H20.5782C21.2443 19.2939 21.7841 19.8341 21.7841 20.4998C21.7841 21.1655 21.2443 21.7057 20.5782 21.7057Z" fill="white"/>
<path d="M39.7942 21.7057H33.5877C32.9216 21.7057 32.3818 21.1655 32.3818 20.4998C32.3818 19.8341 32.9216 19.2939 33.5877 19.2939H39.7942C40.4603 19.2939 41.0001 19.8341 41.0001 20.4998C41.0001 21.1655 40.4603 21.7057 39.7942 21.7057Z" fill="white"/>
<path d="M11.73 40.5954C8.68429 40.5954 6.20654 38.1177 6.20654 35.0716C6.20654 32.0261 8.68429 29.5483 11.73 29.5483C14.7758 29.5483 17.2535 32.0261 17.2535 35.0716C17.2535 38.1177 14.7758 40.5954 11.73 40.5954ZM11.73 31.9602C10.0142 31.9602 8.61829 33.3557 8.61829 35.0716C8.61829 36.7874 10.0142 38.1836 11.73 38.1836C13.4459 38.1836 14.8418 36.7874 14.8418 35.0716C14.8418 33.3557 13.4459 31.9602 11.73 31.9602Z" fill="white"/>
<path d="M39.794 36.2778L16.7059 36.2775C16.0398 36.2775 15.5 35.7373 15.5 35.0716C15.5 34.4059 16.0398 33.8657 16.7059 33.8657L39.794 33.866C40.46 33.866 40.9998 34.4062 40.9998 35.0719C40.9998 35.7376 40.46 36.2778 39.794 36.2778Z" fill="white"/>
<path d="M7.41241 36.2776H1.20587C0.539805 36.2776 0 35.7374 0 35.0716C0 34.4059 0.539805 33.8657 1.20587 33.8657H7.41241C8.07848 33.8657 8.61828 34.4059 8.61828 35.0716C8.61828 35.7374 8.07848 36.2776 7.41241 36.2776Z" fill="white"/>
</g>
<defs>
<clipPath id="clip0">
<rect width="41" height="41" fill="white"/>
</clipPath>
</defs>
</svg>
