<svg width="70" height="70" viewBox="0 0 70 70" fill="none" xmlns="http://www.w3.org/2000/svg">
<g clip-path="url(#clip0)">
<path d="M56.2757 24.6207C53.4619 24.6207 50.993 25.669 49.2412 27.4345L24.2757 13.0069C24.6205 12.3034 24.6205 11.2414 24.6205 10.5517C24.6205 4.57931 20.055 0 14.0688 0C8.0964 0 3.51709 4.57931 3.51709 10.5517C3.51709 16.5241 8.0964 21.1034 14.0688 21.1034C16.8826 21.1034 19.3516 20.0414 21.1033 18.2897L46.0688 32.7172C45.724 33.4207 45.724 34.4828 45.724 35.1724C45.724 35.8621 45.724 36.9379 46.0688 37.6276L21.1033 52.4138C19.3378 50.6483 16.8826 49.6 14.0688 49.6C8.44123 49.6 3.86192 54.1793 3.86192 59.8069C3.86192 65.4345 8.44123 70.0138 14.0688 70.0138C19.6964 70.0138 24.2757 65.4345 24.2757 59.8069C24.2757 59.1035 24.2757 58.4 23.9309 57.3379L48.8964 42.5655C50.6619 44.331 53.1171 45.3793 55.9309 45.3793C61.9171 45.3793 66.4826 40.8138 66.4826 34.8276C66.4826 28.8414 62.2619 24.6207 56.2757 24.6207ZM13.9723 16.5517C10.5654 16.5517 7.80674 13.7931 7.80674 10.3862C7.80674 6.97931 10.5654 4.22069 13.9723 4.22069C17.3792 4.22069 20.1378 6.97931 20.1378 10.3862C20.1378 13.7931 17.3792 16.5517 13.9723 16.5517ZM14.0412 66.069C10.6343 66.069 7.87571 63.3103 7.87571 59.9034C7.87571 56.4966 10.6343 53.7379 14.0412 53.7379C17.4481 53.7379 20.2067 56.4966 20.2067 59.9034C20.2067 63.3103 17.4481 66.069 14.0412 66.069ZM56.3171 41.2414C52.9102 41.2414 50.1516 38.4828 50.1516 35.0759C50.1516 31.669 52.9102 28.9103 56.3171 28.9103C59.724 28.9103 62.4826 31.669 62.4826 35.0759C62.4826 38.4828 59.724 41.2414 56.3171 41.2414Z" fill="#414554"/>
</g>
<defs>
<clipPath id="clip0">
<rect width="70" height="70" fill="white"/>
</clipPath>
</defs>
</svg>
