<svg width="30" height="22" viewBox="0 0 30 22" fill="none" xmlns="http://www.w3.org/2000/svg">
<path d="M26.7188 0.6875H3.28125C1.47199 0.6875 0 2.15949 0 3.96875V18.0312C0 19.8405 1.47199 21.3125 3.28125 21.3125H26.7188C28.528 21.3125 30 19.8405 30 18.0312V3.96875C30 2.15949 28.528 0.6875 26.7188 0.6875ZM3.28125 2.5625H26.7188C27.4941 2.5625 28.125 3.19338 28.125 3.96875V5.84375H1.875V3.96875C1.875 3.19338 2.50588 2.5625 3.28125 2.5625ZM26.7188 19.4375H3.28125C2.50588 19.4375 1.875 18.8066 1.875 18.0312V7.71875H28.125V18.0312C28.125 18.8066 27.4941 19.4375 26.7188 19.4375Z" fill="black"/>
<path d="M6.5625 16.625H5.625C5.10727 16.625 4.6875 16.2052 4.6875 15.6875V14.75C4.6875 14.2323 5.10727 13.8125 5.625 13.8125H6.5625C7.08023 13.8125 7.5 14.2323 7.5 14.75V15.6875C7.5 16.2052 7.08023 16.625 6.5625 16.625Z" fill="black"/>
</svg>
