<svg width="123" height="134" viewBox="0 0 123 134" fill="none" xmlns="http://www.w3.org/2000/svg">
<g clip-path="url(#clip0)">
<path d="M116.499 73.4207L7.22849 126.775L3.62708 119.392L112.893 66.0418L116.499 73.4207Z" fill="#D8DBE4"/>
<path d="M82.3835 80.9492L97.2169 73.7072L100.592 81.2016L85.6 88.5206L82.3835 80.9492Z" fill="#D8DBE4"/>
<path d="M12.729 134.004C19.759 134.004 25.458 128.305 25.458 121.274C25.458 114.243 19.759 108.544 12.729 108.544C5.69897 108.544 0 114.243 0 121.274C0 128.305 5.69897 134.004 12.729 134.004Z" fill="#D8DBE4"/>
<path d="M72.3448 8.76908L12.729 131.271L4.20874 127.122L63.8246 4.61981L72.3448 8.76908Z" fill="#D8DBE4"/>
<path d="M64.3379 39.0716C75.1263 39.0716 83.872 30.3251 83.872 19.5358C83.872 8.74647 75.1263 0 64.3379 0C53.5495 0 44.8038 8.74647 44.8038 19.5358C44.8038 30.3251 53.5495 39.0716 64.3379 39.0716Z" fill="#D8DBE4"/>
<path d="M111.357 84.2473C117.787 84.2473 123 79.0342 123 72.6036C123 66.173 117.787 60.96 111.357 60.96C104.927 60.96 99.7148 66.173 99.7148 72.6036C99.7148 79.0342 104.927 84.2473 111.357 84.2473Z" fill="#D8DBE4"/>
<path d="M114.219 70.6702V122.827H109.629V70.6702H114.219Z" fill="#D8DBE4"/>
<path d="M107.367 125.804L59.8511 19.1936L68.0548 15.5363L115.57 122.147L107.367 125.804Z" fill="#D8DBE4"/>
<path d="M111.357 134.004C116.965 134.004 121.511 129.458 121.511 123.849C121.511 118.241 116.965 113.694 111.357 113.694C105.749 113.694 101.203 118.241 101.203 123.849C101.203 129.458 105.749 134.004 111.357 134.004Z" fill="#D8DBE4"/>
</g>
<defs>
<clipPath id="clip0">
<rect width="123" height="134" fill="white"/>
</clipPath>
</defs>
</svg>
