<svg width="24" height="30" viewBox="0 0 24 30" fill="none" xmlns="http://www.w3.org/2000/svg">
<path d="M12.0002 14.6722C15.5085 14.6722 18.3528 11.3878 18.3528 7.33619C18.3528 3.28451 17.419 6.10352e-05 12.0002 6.10352e-05C6.58135 6.10352e-05 5.64734 3.28451 5.64734 7.33619C5.64734 11.3878 8.49166 14.6722 12.0002 14.6722Z" fill="#1B3EC5"/>
<path d="M0.00104035 25.8735C0.000139381 25.6265 -0.000761592 25.8039 0.00104035 25.8735V25.8735Z" fill="#1B3EC5"/>
<path d="M23.9985 26.0665C24.0013 25.9989 23.9994 25.5973 23.9985 26.0665V26.0665Z" fill="#1B3EC5"/>
<path d="M23.9847 25.5773C23.8671 18.5193 22.8975 16.5082 15.4784 15.2351C15.4784 15.2351 14.434 16.5004 11.9998 16.5004C9.5656 16.5004 8.52106 15.2351 8.52106 15.2351C1.18285 16.4943 0.15436 18.4756 0.0191269 25.348C0.00803778 25.9092 0.00289895 25.9387 0.000915527 25.8735C0.0013663 25.9956 0.00190704 26.2213 0.00190704 26.615C0.00190704 26.615 1.76823 30.0005 11.9998 30.0005C22.2312 30.0005 23.9977 26.615 23.9977 26.615C23.9977 26.3621 23.9979 26.1862 23.9981 26.0665C23.9962 26.1068 23.9922 26.0287 23.9847 25.5773Z" fill="#1B3EC5"/>
</svg>
