<svg width="35" height="35" viewBox="0 0 35 35" fill="none" xmlns="http://www.w3.org/2000/svg">
<path d="M17.5001 17.1173C21.3915 17.1173 24.5464 13.2855 24.5464 8.5587C24.5464 3.8318 23.5106 0 17.5001 0C11.4896 0 10.4536 3.8318 10.4536 8.5587C10.4536 13.2855 13.6085 17.1173 17.5001 17.1173Z" fill="#4479F9"/>
<path d="M4.19096 30.1853C4.18976 29.8971 4.18856 30.1041 4.19096 30.1853V30.1853Z" fill="#4479F9"/>
<path d="M30.8086 30.4104C30.8124 30.3315 30.8099 29.863 30.8086 30.4104V30.4104Z" fill="#4479F9"/>
<path d="M30.7936 29.8397C30.6631 21.6055 29.5877 19.2592 21.3584 17.774C21.3584 17.774 20.2 19.2501 17.5 19.2501C14.8 19.2501 13.6414 17.774 13.6414 17.774C5.50192 19.243 4.36112 21.5545 4.21112 29.5722C4.19882 30.2269 4.19312 30.2613 4.19092 30.1853C4.19142 30.3277 4.19202 30.5911 4.19202 31.0504C4.19202 31.0504 6.15122 35 17.5 35C28.8486 35 30.808 31.0504 30.808 31.0504C30.808 30.7553 30.8082 30.5501 30.8085 30.4105C30.8063 30.4575 30.8019 30.3664 30.7936 29.8397Z" fill="#4479F9"/>
</svg>
