<svg width="15" height="15" viewBox="0 0 15 15" fill="none" xmlns="http://www.w3.org/2000/svg">
<path d="M14.5956 6.52428C14.5952 6.52393 14.5949 6.52359 14.5945 6.52325L8.47574 0.404663C8.21493 0.143738 7.86817 0 7.49933 0C7.13048 0 6.78373 0.143623 6.5228 0.404549L0.407196 6.52004C0.405136 6.5221 0.403076 6.52428 0.401016 6.52634C-0.134567 7.06501 -0.133652 7.939 0.403648 8.4763C0.649124 8.72189 0.973335 8.86414 1.31998 8.87901C1.33405 8.88039 1.34824 8.88107 1.36255 8.88107H1.60642V13.384C1.60642 14.275 2.33141 15 3.22267 15H5.61655C5.85916 15 6.056 14.8033 6.056 14.5605V11.0303C6.056 10.6237 6.38673 10.2929 6.79334 10.2929H8.20531C8.61192 10.2929 8.94266 10.6237 8.94266 11.0303V14.5605C8.94266 14.8033 9.13938 15 9.38211 15H11.776C12.6672 15 13.3922 14.275 13.3922 13.384V8.88107H13.6184C13.9871 8.88107 14.3339 8.73745 14.5949 8.47652C15.1328 7.93831 15.133 7.06284 14.5956 6.52428V6.52428Z" fill="url(#paint0_linear)"/>
<defs>
<linearGradient id="paint0_linear" x1="7.49923" y1="0" x2="7.49923" y2="15" gradientUnits="userSpaceOnUse">
<stop stop-color="#1528D2"/>
<stop offset="1" stop-color="#4E8AFF"/>
</linearGradient>
</defs>
</svg>
