<svg width="28" height="28" viewBox="0 0 28 28" fill="none" xmlns="http://www.w3.org/2000/svg">
<path d="M26.9062 12.9062H1.09375C0.489672 12.9062 0 13.3959 0 14C0 14.6041 0.489672 15.0938 1.09375 15.0938H26.9062C27.5103 15.0938 28 14.6041 28 14C28 13.3959 27.5103 12.9062 26.9062 12.9062Z" fill="white"/>
<path d="M26.9062 4.15625H1.09375C0.489672 4.15625 0 4.64592 0 5.25C0 5.85408 0.489672 6.34375 1.09375 6.34375H26.9062C27.5103 6.34375 28 5.85408 28 5.25C28 4.64592 27.5103 4.15625 26.9062 4.15625Z" fill="white"/>
<path d="M26.9062 21.6562H1.09375C0.489672 21.6562 0 22.1459 0 22.75C0 23.3541 0.489672 23.8438 1.09375 23.8438H26.9062C27.5103 23.8438 28 23.3541 28 22.75C28 22.1459 27.5103 21.6562 26.9062 21.6562Z" fill="white"/>
</svg>
