<svg width="71" height="71" viewBox="0 0 71 71" fill="none" xmlns="http://www.w3.org/2000/svg">
<g clip-path="url(#clip0)">
<path d="M66.2695 22.1637L35.3727 52.9358L26.4641 44.063C25.3819 42.9856 23.6322 42.9856 22.5499 44.063L0.818514 65.7066C-0.927885 67.446 0.304453 70.4453 2.77563 70.4453H68.2266C69.7585 70.4453 71 69.2038 71 67.6719V24.1289C71 21.6648 68.0137 20.4259 66.2695 22.1637ZM65.4531 64.8984H9.49092L24.507 49.9425L33.4156 58.8153C34.4974 59.8933 36.2476 59.8933 37.3298 58.8153L65.4531 30.8052V64.8984ZM71 3.34276V13.8742C71 15.4061 69.7585 16.6477 68.2266 16.6477C66.6947 16.6477 65.4537 15.4061 65.4537 13.8742V10.0061L37.3298 38.0291C36.2481 39.1076 34.4974 39.1076 33.4151 38.0291L24.507 29.1531L4.73329 48.8558C3.64829 49.937 1.89268 49.9338 0.811472 48.8488C-0.269735 47.7638 -0.266485 46.0077 0.818514 44.9264L22.5494 23.2731C23.6317 22.1946 25.3824 22.1946 26.4647 23.2731L35.3727 32.1491L61.4988 6.1162H57.6881C56.1562 6.1162 54.9146 4.87465 54.9146 3.34276C54.9146 1.81087 56.1562 0.569323 57.6881 0.569323H67.9438C69.5868 0.401942 71.006 1.6917 71 3.33789V3.34276Z" fill="#414554"/>
</g>
<defs>
<clipPath id="clip0">
<rect width="71" height="71" fill="white"/>
</clipPath>
</defs>
</svg>
