<svg width="73" height="73" viewBox="0 0 73 73" fill="none" xmlns="http://www.w3.org/2000/svg">
<g clip-path="url(#clip0)">
<path d="M66.8558 30.5978C65.2272 30.5978 63.907 31.918 63.907 33.5466V36.5166C63.9026 44.264 60.8814 51.5461 55.4 57.0211C49.9225 62.4921 42.6439 65.5045 34.9028 65.5045C34.8971 65.5045 34.8914 65.5045 34.8857 65.5045C18.8924 65.4953 5.88844 52.4767 5.89756 36.4832C5.90198 28.736 8.92321 21.4539 14.4048 15.9787C19.8822 10.5076 27.161 7.49526 34.9019 7.49526C34.9076 7.49526 34.9134 7.49526 34.9191 7.49526C39.0071 7.49754 42.9733 8.34246 46.7074 10.0062C48.1954 10.6692 49.9381 10.0004 50.6011 8.51284C51.2638 7.02532 50.5954 5.28216 49.1077 4.61917C44.6142 2.61695 39.8417 1.60037 34.9223 1.59766C34.9149 1.59766 34.9092 1.59766 34.9018 1.59766C25.5873 1.59766 16.8276 5.22313 10.2368 11.8062C3.64083 18.3945 0.00537794 27.1572 -4.00269e-05 36.4801C-0.00531542 45.8027 3.61988 54.5696 10.2084 61.1655C16.7969 67.7615 25.5595 71.3969 34.8823 71.4023C34.8895 71.4023 34.8954 71.4023 34.9028 71.4023C44.2173 71.4023 52.977 67.777 59.5678 61.1937C66.1638 54.6054 69.7992 45.8426 69.8046 36.5183V33.5467C69.8046 31.918 68.4845 30.5978 66.8558 30.5978Z" fill="#414554"/>
<path d="M72.1362 5.67488C70.9846 4.52341 69.1176 4.52341 67.966 5.67488L34.9023 38.7385L27.4014 31.2376C26.2499 30.086 24.3827 30.086 23.2312 31.2376C22.0796 32.3892 22.0796 34.2562 23.2312 35.4078L32.8173 44.9939C33.3931 45.5698 34.1479 45.8577 34.9025 45.8577C35.6572 45.8577 36.4119 45.5698 36.9877 44.9939L72.1362 9.84514C73.2878 8.69354 73.2878 6.82648 72.1362 5.67488Z" fill="#414554"/>
</g>
<defs>
<clipPath id="clip0">
<rect width="73" height="73" fill="white"/>
</clipPath>
</defs>
</svg>
