<svg width="108" height="115" viewBox="0 0 108 115" fill="none" xmlns="http://www.w3.org/2000/svg">
<path d="M104.974 25.8573C102.374 23.2003 94.0067 14.2681 91.0104 12.0068C89.9363 11.2153 88.8057 10.65 87.675 9.91508C84.0004 7.7103 80.0431 6.35352 75.8597 5.27939C71.6197 4.20527 67.3798 4.09221 63.1398 4.31834C60.4828 4.4314 57.8823 4.9402 55.3383 5.67512C53.1335 6.29698 51.0418 7.14497 48.9501 8.10603C43.1272 10.7631 38.2654 14.6638 34.3081 19.6387C30.2378 24.7267 27.6372 30.5495 26.7893 36.9377C25.9978 42.591 26.4501 48.2443 28.3156 53.6714C30.2943 59.4378 33.3471 64.6388 37.2478 69.331C37.7566 69.9528 38.0393 70.9139 39.1134 71.027C40.6963 72.8925 42.675 74.8147 44.5971 76.341C44.4275 76.6237 44.0317 76.6802 43.7491 76.6237C42.2792 76.3976 40.8659 76.7368 39.3395 76.7933C33.6297 77.1325 27.5807 76.0584 22.097 74.5885C15.6523 72.9491 9.32064 69.9528 5.02415 64.5822C2.93244 62.0383 1.17993 59.4943 0.558066 56.2719C0.501534 55.9893 0.331935 55.5935 0.105804 55.6501C0.105804 55.6501 0.501534 50.6752 0.558066 50.2794C0.784197 48.5269 1.06686 46.7744 1.40606 45.0784C2.14098 41.5734 3.2151 38.1814 4.62842 34.9025C6.72013 30.0973 9.43371 25.6312 12.6561 21.5043C15.8784 17.3774 19.7227 13.8724 23.9626 10.7631C31.3119 5.56206 39.3961 2.17009 48.2717 0.756775C59.6913 -1.05227 70.7717 0.361046 81.2868 5.22286C88.0707 8.27563 93.9501 12.5721 99.0946 17.9993C99.3773 18.395 105.483 25.292 104.974 25.8573Z" fill="url(#paint0_linear)"/>
<path d="M99.7156 18.7908C99.7721 18.8473 99.7721 18.8473 99.8286 18.9039C102.146 21.2782 104.125 24.0483 105.821 26.988C106.556 28.3448 107.008 29.8712 107.234 31.3976C107.743 34.5634 107.63 37.7293 106.443 40.7255C103.956 46.9441 99.4329 50.6753 92.8751 51.8059C88.1264 52.5974 83.8864 51.3536 79.9857 48.6401C78.0636 47.2833 76.7633 45.4742 75.35 43.7217C73.2017 40.8951 70.4316 38.8034 67.2658 37.1639C63.4216 35.2418 59.2947 34.7896 55.0547 35.0722C54.1502 35.1288 52.5673 35.468 51.6628 35.6376C51.5497 35.581 51.8324 35.468 51.7758 35.2984C49.0057 30.38 48.3839 24.4441 49.458 18.9604C49.9103 16.586 50.6452 14.2116 51.6062 12.0069C52.0585 10.8762 52.6238 9.80209 53.1891 8.67144C53.5849 7.99305 54.3198 6.0144 55.1678 5.78827C57.7118 5.05334 60.9907 4.60108 63.6477 4.43148C67.8877 4.20535 73.5409 4.37495 77.7809 5.50561C86.6565 7.71038 93.3839 12.233 99.7156 18.7908Z" fill="url(#paint1_linear)"/>
<path d="M39.169 71.1965C39.169 71.1965 38.9429 71.1965 38.5472 70.9704C38.208 70.8008 37.6992 70.405 37.5296 70.2354C31.311 63.5081 27.2971 54.5759 26.3926 45.4176C25.5446 37.2203 27.5233 28.6839 32.1024 21.8434C36.2858 15.5683 42.2218 11.1587 49.0622 8.04944C51.0974 7.14491 53.1891 6.12732 55.3939 5.61853C55.2243 5.78813 55.1112 5.90119 54.9416 6.01426C54.7155 6.29692 54.4894 6.57959 54.2633 6.91878C50.6452 13.0243 48.3273 20.5997 49.5145 27.7794C49.9102 30.2668 50.7582 32.6412 52.0019 34.846C52.0585 34.959 52.3977 35.1852 52.5107 35.2982C49.2884 35.807 46.2356 37.2769 43.5786 39.312C38.9429 42.9867 36.0597 47.6789 35.0421 53.5018C34.5899 56.2153 34.6464 60.003 35.3813 63.2254C36.3424 67.5219 38.9994 70.8573 39.0559 70.8573C39.1125 71.0269 39.169 71.1965 39.169 71.1965Z" fill="url(#paint2_linear)"/>
<path d="M0.0483782 55.424C0.217976 55.424 0.387575 55.4805 0.387575 55.6501C1.00943 59.3813 3.32728 62.1514 5.47552 65.0346C8.24562 68.7092 12.2594 70.6878 16.4429 72.3838C20.3436 73.9667 24.3575 75.0409 28.5974 75.6062C31.0283 75.9454 33.5158 76.1715 35.9467 76.3411C38.5472 76.5107 41.1477 76.3977 43.7482 76.4542C43.9743 76.4542 44.257 76.5107 44.37 76.2846C46.3487 77.3587 48.3273 78.5459 50.5321 79.2243C58.9555 81.5987 66.4178 79.9027 72.9191 74.0798C73.1452 73.8537 76.4806 70.5182 76.8198 70.5182C76.9329 71.5924 72.8625 75.2105 72.2972 75.7758C68.3399 80.2984 63.4781 83.6904 57.8814 85.8951C53.1891 87.7042 48.3273 88.6653 43.2959 88.7783C33.2331 88.9479 23.8487 86.4039 15.3122 81.0333C9.48934 77.3587 4.62753 72.6665 1.80089 66.2218C1.06597 64.5823 0.444107 62.9429 0.104911 61.1903C0.0483782 59.2117 -0.0646873 57.2896 0.0483782 55.424Z" fill="url(#paint3_linear)"/>
<path d="M73.9931 73.5142C75.5195 71.479 76.8763 69.3873 78.7419 67.6348C79.816 66.6172 81.0032 65.7126 82.3034 65.0343C84.056 64.1297 85.9215 63.5644 87.9002 63.2817C88.8047 63.1687 89.6527 63.1121 90.5572 63.1121C99.2067 63.1687 106.782 70.2353 107.517 78.7717C107.969 84.2554 105.991 88.7215 102.655 92.8484C94.1753 103.477 83.321 110.317 70.1489 113.426C66.9265 114.218 63.6476 114.557 60.3687 114.727C50.8147 115.235 41.7129 113.37 33.0634 109.356C25.5446 105.851 19.0999 100.819 13.7292 94.5443C6.09732 85.4991 1.63124 75.0971 0.387518 63.3383C0.330985 62.7164 0.274452 62.038 0.217919 61.4162C0.161387 61.19 0.217919 60.8508 0.161387 60.4551C0.161387 60.3986 0.104854 59.8898 0.161387 59.8898C0.500583 61.6423 1.29204 64.4124 2.02697 66.0518C4.8536 72.4966 9.65888 77.1888 15.5383 80.8634C24.0747 86.234 33.4026 88.778 43.522 88.6084C50.8712 88.4388 58.3336 86.4602 64.5522 82.4463C67.4919 80.5242 70.1489 78.2064 72.4102 75.5493C72.919 74.9275 73.4843 74.2491 73.9931 73.5142Z" fill="url(#paint4_linear)"/>
<defs>
<linearGradient id="paint0_linear" x1="52.5386" y1="76.9797" x2="52.5386" y2="0.0195322" gradientUnits="userSpaceOnUse">
<stop stop-color="#C3C6CF"/>
<stop offset="1" stop-color="#D8DBE4"/>
</linearGradient>
<linearGradient id="paint1_linear" x1="49.0512" y1="28.1393" x2="107.49" y2="28.1393" gradientUnits="userSpaceOnUse">
<stop stop-color="#BFC3D0"/>
<stop offset="1" stop-color="#D6D9E2"/>
</linearGradient>
<linearGradient id="paint2_linear" x1="26.1836" y1="38.4154" x2="55.383" y2="38.4154" gradientUnits="userSpaceOnUse">
<stop stop-color="#BABECC"/>
<stop offset="1" stop-color="#D6D9E2"/>
</linearGradient>
<linearGradient id="paint3_linear" x1="0.0158719" y1="72.0845" x2="76.8981" y2="72.0845" gradientUnits="userSpaceOnUse">
<stop stop-color="#D8DBE4"/>
<stop offset="1" stop-color="#BCBEC7"/>
</linearGradient>
<linearGradient id="paint4_linear" x1="107.556" y1="87.448" x2="0.12786" y2="87.448" gradientUnits="userSpaceOnUse">
<stop stop-color="#C9CBD3"/>
<stop offset="1" stop-color="#D8DBE4"/>
</linearGradient>
</defs>
</svg>
