<svg width="95" height="95" viewBox="0 0 95 95" fill="none" xmlns="http://www.w3.org/2000/svg">
<path d="M87.855 30.7024C87.8448 30.5575 87.8175 30.4176 87.7697 30.2794C87.7493 30.2215 87.7356 30.1652 87.71 30.1089C87.6264 29.9281 87.5241 29.7575 87.3791 29.6126V29.6109C87.3791 29.6109 87.3774 29.6091 87.3774 29.6074L58.2646 0.49974C58.1179 0.351353 57.944 0.247311 57.7615 0.163737C57.7154 0.141564 57.6642 0.129625 57.6148 0.112569C57.4681 0.0631071 57.318 0.0307007 57.1628 0.0221727C57.127 0.0187616 57.0946 0 57.057 0H37.8247C31.5516 0 26.4501 5.10314 26.4501 11.3763V14.2315H18.4969C12.2237 14.2315 7.12061 19.3346 7.12061 25.6078V83.6254C7.12061 89.8986 12.2237 95 18.4969 95H57.1747C63.4462 95 68.5494 89.8986 68.5494 83.6254V80.7685H76.5043C82.7774 80.7685 87.8789 75.6671 87.8789 69.3939V30.8184C87.8789 30.7775 87.8584 30.7434 87.855 30.7024ZM58.7643 5.82291L82.0543 29.1128H66.7295C62.3376 29.1128 58.7643 25.5396 58.7643 21.1477V5.82291ZM65.1382 83.6237C65.1382 88.0139 61.5649 91.5871 57.1747 91.5871H18.4969C14.105 91.5871 10.5318 88.0139 10.5318 83.6237V25.6078C10.5318 21.2159 14.105 17.6427 18.4969 17.6427H28.1557H36.0253V35.3792C36.0253 41.6524 41.1268 46.7538 47.3983 46.7538H65.1365V79.0612L65.1382 83.6237ZM62.7265 43.3426H47.4C43.0098 43.3426 39.4382 39.7711 39.4382 35.3792V20.0544L62.7265 43.3426ZM76.5043 77.3573H68.5494V45.0482C68.5494 45.009 68.5289 44.9732 68.5255 44.9339C68.5152 44.789 68.4897 44.6491 68.4419 44.5092C68.4214 44.453 68.4061 44.3967 68.3805 44.3387C68.2986 44.1596 68.1946 43.989 68.0496 43.8441C68.0496 43.8423 68.0479 43.8406 68.0479 43.8406L38.9368 14.7312C38.7884 14.5846 38.6161 14.4805 38.4336 14.3969C38.3842 14.3748 38.3347 14.3611 38.2836 14.3441C38.1369 14.2929 37.9902 14.2622 37.835 14.2537C37.7992 14.2503 37.7668 14.2315 37.7292 14.2315H29.8596V11.3763C29.8596 6.98442 33.4328 3.41119 37.823 3.41119H55.3515V21.1494C55.3515 27.4226 60.4546 32.5257 66.7278 32.5257H84.4643V69.3939C84.4677 73.7841 80.8945 77.3573 76.5043 77.3573Z" fill="url(#paint0_linear)"/>
<defs>
<linearGradient id="paint0_linear" x1="47.4997" y1="0" x2="47.4997" y2="95" gradientUnits="userSpaceOnUse">
<stop stop-color="#22224E"/>
<stop offset="1" stop-color="#646BEC"/>
</linearGradient>
</defs>
</svg>
