<svg width="33" height="26" viewBox="0 0 33 26" fill="none" xmlns="http://www.w3.org/2000/svg">
<path d="M30.0533 25.9287C30.7951 25.9287 31.4378 25.6838 31.9843 25.2002L22.6348 15.8504C22.4105 16.011 22.1931 16.1672 21.9877 16.3158C21.288 16.8313 20.7202 17.2335 20.2841 17.5218C19.8481 17.8107 19.2681 18.1051 18.5439 18.4058C17.8194 18.7068 17.1443 18.8568 16.5181 18.8568H16.4998H16.4814C15.8552 18.8568 15.1801 18.7068 14.4556 18.4058C13.731 18.1051 13.151 17.8107 12.7154 17.5218C12.2794 17.2335 11.7118 16.8313 11.0118 16.3158C10.8167 16.1728 10.6004 16.0158 10.3665 15.8479L1.01526 25.2002C1.56161 25.6838 2.20478 25.9287 2.94651 25.9287H30.0533Z" fill="#C1C1C1"/>
<path d="M1.86013 9.96268C1.16052 9.49625 0.540119 8.96206 0 8.36035V22.5853L8.24055 14.3447C6.59197 13.1938 4.46786 11.7348 1.86013 9.96268Z" fill="#C1C1C1"/>
<path d="M31.1585 9.96268C28.6502 11.6604 26.5184 13.1219 24.7628 14.348L33 22.5856V8.36035C32.4719 8.94996 31.8581 9.48379 31.1585 9.96268Z" fill="#C1C1C1"/>
<path d="M30.0537 0H2.94697C2.0013 0 1.27425 0.319338 0.764928 0.957356C0.255185 1.59567 0.000732422 2.39396 0.000732422 3.35132C0.000732422 4.12462 0.338404 4.96251 1.01345 5.86522C1.68849 6.76758 2.40679 7.47635 3.16799 7.99191C3.58529 8.28674 4.84371 9.1616 6.94326 10.6162C8.07664 11.4016 9.06227 12.0862 9.90927 12.6769C10.6312 13.1799 11.2538 13.6156 11.7679 13.9771C11.8269 14.0185 11.9197 14.0849 12.0429 14.1729C12.1756 14.2683 12.3436 14.3892 12.5507 14.5388C12.9497 14.8274 13.2811 15.0606 13.5451 15.2388C13.8087 15.417 14.1281 15.6161 14.5028 15.8372C14.8772 16.058 15.2304 16.224 15.5618 16.3344C15.8933 16.4448 16.2002 16.5001 16.4825 16.5001H16.5008H16.5192C16.8014 16.5001 17.1083 16.4448 17.4399 16.3344C17.7713 16.224 18.1241 16.0583 18.4988 15.8372C18.8732 15.6161 19.1921 15.4166 19.4566 15.2388C19.7206 15.0606 20.052 14.8274 20.451 14.5388C20.6578 14.3892 20.8257 14.2682 20.9584 14.1732C21.0817 14.0848 21.1744 14.0188 21.2338 13.9771C21.6343 13.6984 22.2583 13.2646 23.0973 12.682C24.6241 11.6212 26.8725 10.0599 29.8521 7.99191C30.7482 7.36599 31.4969 6.61066 32.0986 5.727C32.6993 4.84334 33.0004 3.91642 33.0004 2.94654C33.0004 2.13621 32.7084 1.44283 32.1258 0.865329C31.5424 0.288543 30.8517 0 30.0537 0Z" fill="#C1C1C1"/>
</svg>
