<svg width="180" height="39" viewBox="0 0 180 39" fill="none" xmlns="http://www.w3.org/2000/svg">
<path d="M70.5542 12.7315H72.1447C72.94 12.8622 73.2934 13.2107 73.2934 13.8642V32.1185C73.1609 32.9027 72.8074 33.2513 72.1889 33.2513H70.3333C69.8473 33.2513 69.5381 32.9027 69.3613 32.1621V13.7771C69.4055 13.2107 69.8031 12.9058 70.5542 12.7315Z" fill="url(#paint0_linear)"/>
<path d="M88.0058 13.1678C92.0704 13.1678 95.2072 15.1283 97.4163 19.0057C97.9464 20.2691 98.2115 21.1404 98.2115 21.6632H94.5445C94.5003 21.6632 94.2794 21.2276 93.9702 20.3127C92.5122 18.0037 90.6124 16.8274 88.2267 16.8274H87.829C85.1782 16.8274 83.1901 18.1779 81.8205 20.879C81.467 21.7939 81.2903 22.6217 81.2903 23.4059C81.2903 25.9327 82.6157 27.8932 85.2224 29.3745C86.3711 29.7666 87.2547 29.9408 88.0058 29.9408C90.4799 29.9408 92.4238 28.7645 93.8818 26.4555C94.2353 25.8892 94.5003 25.0178 94.7212 23.9287H98.2557L98.3883 23.9722C98.3883 25.5406 97.7255 27.3269 96.4443 29.3309C94.1469 32.1627 91.4077 33.6004 88.1825 33.6004H87.7849C84.4713 33.6004 81.6879 32.1192 79.3905 29.1566C78.1976 27.414 77.5791 25.5406 77.5791 23.493V23.188C77.5791 19.8334 79.1696 17.0016 82.3506 14.7362C84.162 13.6906 86.0618 13.1678 88.0058 13.1678Z" fill="url(#paint1_linear)"/>
<path d="M102.409 12.7751H109.831C113.719 12.7751 116.812 14.6049 119.065 18.2209C119.86 19.8329 120.214 21.2706 120.214 22.534V23.4925C120.214 26.3679 118.8 28.9383 116.016 31.2909C114.161 32.6414 111.731 33.3385 108.682 33.3385H107.401C107.313 33.3385 107.269 33.2949 107.269 33.2078V29.766C107.269 29.6789 107.313 29.6353 107.401 29.6353H109.389L109.698 29.5918V29.6353L109.831 29.5918H110.14C112.482 29.5918 114.426 28.3283 115.884 25.8451C116.326 24.843 116.547 23.8846 116.547 22.9697C116.547 20.3993 115.221 18.3516 112.57 16.914C111.819 16.5219 110.184 16.3476 107.666 16.3476H106.076C105.325 16.4347 104.971 16.7833 104.971 17.3496V33.1642C104.971 33.2513 104.927 33.2949 104.839 33.2949H102.453C101.525 33.2078 101.039 32.8157 101.039 32.2057C101.083 31.1166 101.083 30.2888 101.083 29.6789V13.8643C101.039 13.1672 101.525 12.7751 102.409 12.7751Z" fill="url(#paint2_linear)"/>
<path d="M131.7 13.1678C135.765 13.1678 138.902 15.1283 141.111 19.0057C141.641 20.2691 141.906 21.1404 141.906 21.6632H138.239C138.195 21.6632 137.974 21.2276 137.665 20.3127C136.207 18.0037 134.307 16.8274 131.921 16.8274H131.523C128.873 16.8274 126.884 18.1779 125.515 20.879C125.161 21.7939 124.985 22.6217 124.985 23.4059C124.985 25.9327 126.31 27.8932 128.917 29.3745C130.065 29.7666 130.949 29.9408 131.7 29.9408C134.174 29.9408 136.118 28.7645 137.576 26.4555C137.93 25.8892 138.195 25.0178 138.416 23.9287H141.95L142.083 23.9722C142.083 25.5406 141.42 27.3269 140.139 29.3309C137.841 32.1627 135.102 33.6004 131.877 33.6004H131.479C128.166 33.6004 125.382 32.1192 123.085 29.1566C121.892 27.414 121.273 25.5406 121.273 23.493V23.188C121.273 19.8334 122.864 17.0016 126.045 14.7362C127.856 13.6906 129.756 13.1678 131.7 13.1678Z" fill="url(#paint3_linear)"/>
<path d="M143.629 31.2908L144.955 29.9402C145.131 29.8095 145.264 29.7224 145.441 29.7224C145.573 29.7224 145.75 29.8095 145.927 29.9838L147.208 31.3344C147.34 31.5086 147.384 31.6393 147.384 31.8136C147.384 31.9879 147.296 32.1186 147.164 32.2928L145.882 33.687C145.661 33.9048 145.529 33.9919 145.396 33.9919C145.22 33.9919 145.087 33.9048 144.91 33.7741L143.497 32.1621C143.408 32.0314 143.32 31.9007 143.32 31.77C143.364 31.6393 143.452 31.4651 143.629 31.2908Z" fill="url(#paint4_linear)"/>
<path d="M152.2 12.7315H153.791C154.586 12.8622 154.94 13.2107 154.94 13.8642V32.1185C154.807 32.9027 154.454 33.2513 153.835 33.2513H152.024C151.538 33.2513 151.228 32.9027 151.052 32.1621V13.7771C151.052 13.2107 151.449 12.9058 152.2 12.7315Z" fill="url(#paint5_linear)"/>
<path d="M167.045 12.9496L167.089 13.0803V16.5656C167.045 16.6527 166.559 16.8705 165.675 17.1319C163.245 18.6132 162.008 20.5737 162.008 23.057C162.008 25.6274 163.378 27.675 166.073 29.1127C166.78 29.287 167.089 29.4177 167.089 29.5048V32.9901C167.089 33.0772 167.045 33.1208 166.957 33.1208C164.88 32.7287 163.157 31.9445 161.876 30.7682C159.534 28.5463 158.341 26.063 158.341 23.2748V22.8391C158.341 19.5717 159.843 16.8705 162.848 14.6487C164.262 13.6902 165.675 13.1238 167.045 12.9496ZM169.607 12.906C171.463 12.906 173.451 13.7773 175.66 15.52C177.913 17.6983 179.018 20.2252 179.018 23.1005C179.018 26.7165 177.339 29.5919 173.981 31.8138C172.302 32.7287 170.844 33.2079 169.519 33.2079C169.431 33.2079 169.386 33.1644 169.386 33.0772V29.7226C169.386 29.6355 169.872 29.4612 170.889 29.287C173.805 27.9364 175.263 25.9323 175.263 23.1877V23.0134C175.263 20.3559 173.893 18.3954 171.154 17.0448C170.668 16.8705 170.049 16.7398 169.431 16.6091V13.1238C169.431 12.9496 169.475 12.906 169.607 12.906Z" fill="url(#paint6_linear)"/>
<path d="M56.2162 16.6423C55.5093 16.1631 54.7141 15.8146 53.963 15.4225C53.477 15.2046 52.9468 15.0304 52.4608 14.8997C51.5331 14.6819 50.5611 14.6383 49.5891 14.6383C47.866 14.6383 46.143 14.6383 44.3758 14.6383C44.2874 14.6383 44.2432 14.5947 44.199 14.5076C44.0223 14.2026 43.8014 13.9412 43.5363 13.6798C42.3876 12.5471 40.532 12.3293 39.0741 13.157C37.6161 13.9848 36.9534 15.6839 37.3952 17.2523C37.8812 18.7771 38.8974 19.692 40.4879 19.8662C41.99 20.0405 43.1829 19.4741 44.0665 18.2107C44.1107 18.1236 44.199 18.08 44.2874 18.08C46.0546 18.08 47.8661 18.08 49.6333 18.1236C51.8865 18.1672 53.8305 18.9514 55.421 20.4762C57.63 22.6109 58.5136 25.2249 57.9834 28.231C57.4533 31.1499 55.7744 33.2411 53.0352 34.5481C52.9027 34.5917 52.7701 34.6352 52.5934 34.6352C46.0988 34.6352 39.6042 34.6352 33.1097 34.6352C26.9244 34.6352 20.7832 34.6352 14.6421 34.6352C13.4934 34.6352 12.3447 34.5045 11.196 34.156C6.29195 32.6748 3.11093 27.926 3.6411 22.8723C3.86201 20.4326 4.87817 18.2979 6.60121 16.5116C8.50099 14.5076 10.9309 13.4184 13.7143 13.2006C13.8027 13.2006 13.8469 13.2442 13.891 13.2877C14.5096 14.0284 15.349 14.464 16.321 14.5512C18.7951 14.8126 20.8274 12.5907 20.2973 10.1945C19.9438 8.62613 18.6184 7.44983 17.0279 7.31914C15.3932 7.18844 13.891 8.10333 13.2725 9.58459C13.2283 9.67172 13.1841 9.71529 13.0958 9.71529C12.5214 9.75885 11.9471 9.84598 11.3727 9.97668C8.14754 10.7173 5.40833 12.3293 3.33184 14.8561C0.946078 17.7751 -0.158441 21.0425 0.0182817 24.7021C0.0624625 25.7477 0.239186 26.7497 0.50427 27.7518C1.38789 30.845 3.15512 33.4154 5.76178 35.3323C8.28008 37.2057 11.1518 38.1206 14.2887 38.2077C14.377 38.2077 14.4654 38.2077 14.5538 38.2077C25.378 38.2077 36.2023 38.2512 47.0708 38.2077C48.5729 38.2077 50.0309 38.2077 51.5331 38.2077C52.0632 38.2077 52.6376 38.2077 53.1677 38.2077C53.3445 38.2077 53.5212 38.1641 53.6979 38.1206C55.5977 37.4235 57.2324 36.2908 58.5578 34.8095C60.5459 32.5876 61.5179 29.9736 61.6063 27.0111C61.6504 26.1834 61.5621 25.3556 61.3854 24.5714C60.8552 21.1732 59.088 18.5593 56.2162 16.6423ZM40.9739 17.6879C40.2228 17.6879 39.6042 17.078 39.6042 16.3374C39.6042 15.5967 40.2228 14.9868 40.9739 14.9868C41.7249 14.9868 42.3435 15.5967 42.3435 16.3374C42.3435 17.0344 41.7249 17.6879 40.9739 17.6879ZM16.6744 9.58459C17.4255 9.58459 18.044 10.1945 18.044 10.9351C18.044 11.6758 17.4255 12.2857 16.6744 12.2857C15.9234 12.2857 15.3048 11.6758 15.3048 10.9351C15.3048 10.1945 15.9234 9.58459 16.6744 9.58459Z" fill="url(#paint7_linear)"/>
<path d="M19.2808 23.4387C19.5459 25.4863 21.6224 26.9676 23.6988 26.4883C25.2452 26.1398 26.3497 25.0071 26.6148 23.4823C26.8799 22.0446 26.173 20.5633 24.8475 19.7791C24.7592 19.7356 24.715 19.6484 24.715 19.5613C24.715 18.6464 24.715 17.6879 24.715 16.773C24.6708 15.4661 24.8475 14.2026 25.201 12.9828C25.9962 10.2381 27.5426 7.97264 29.84 6.22999C32.8001 3.96454 36.202 3.13678 39.869 3.65957C41.6804 3.92097 43.3593 4.5309 44.9056 5.53293C47.5565 7.18845 49.3679 9.49747 50.384 12.46C50.4724 12.7214 50.4724 12.7214 50.7375 12.7214C51.356 12.7214 51.9304 12.8085 52.5047 12.9392C53.0791 13.0263 53.6534 13.2006 54.1836 13.4184C54.2719 13.462 54.2719 13.4184 54.2719 13.3313C54.2278 13.2006 54.2278 13.0699 54.1836 12.9392C53.3441 9.3232 51.5327 6.31712 48.661 3.96454C45.5241 1.35056 41.9013 0.0871327 38.0576 0C36.1136 0 34.479 0.261398 32.8443 0.740628C29.7074 1.69909 27.1008 3.39818 24.9801 5.88146C22.5501 8.75684 21.2689 12.0243 21.0922 15.771C21.048 17.0344 21.0922 18.2979 21.0922 19.6049C21.0922 19.692 21.048 19.7791 20.9596 19.8227C19.6784 20.694 19.104 21.9139 19.2808 23.4387ZM22.9478 21.5653C23.6988 21.5653 24.3174 22.1753 24.3174 22.9159C24.3174 23.6565 23.6988 24.2665 22.9478 24.2229C22.1967 24.2229 21.5782 23.613 21.6224 22.8723C21.5782 22.1753 22.1967 21.5653 22.9478 21.5653Z" fill="url(#paint8_linear)"/>
<defs>
<linearGradient id="paint0_linear" x1="71.3274" y1="12.7315" x2="71.3274" y2="33.2513" gradientUnits="userSpaceOnUse">
<stop stop-color="#182DD4"/>
<stop offset="0.0001" stop-color="#182DD4"/>
<stop offset="1" stop-color="#5588FF"/>
</linearGradient>
<linearGradient id="paint1_linear" x1="87.9837" y1="13.1678" x2="87.9837" y2="33.6004" gradientUnits="userSpaceOnUse">
<stop stop-color="#182DD4"/>
<stop offset="0.0001" stop-color="#182DD4"/>
<stop offset="1" stop-color="#5588FF"/>
</linearGradient>
<linearGradient id="paint2_linear" x1="110.626" y1="12.7751" x2="110.626" y2="33.3385" gradientUnits="userSpaceOnUse">
<stop stop-color="#182DD4"/>
<stop offset="0.0001" stop-color="#182DD4"/>
<stop offset="1" stop-color="#5588FF"/>
</linearGradient>
<linearGradient id="paint3_linear" x1="131.678" y1="13.1678" x2="131.678" y2="33.6004" gradientUnits="userSpaceOnUse">
<stop stop-color="#182DD4"/>
<stop offset="0.0001" stop-color="#182DD4"/>
<stop offset="1" stop-color="#5588FF"/>
</linearGradient>
<linearGradient id="paint4_linear" x1="145.352" y1="29.7224" x2="145.352" y2="33.9919" gradientUnits="userSpaceOnUse">
<stop stop-color="#182DD4"/>
<stop offset="0.0001" stop-color="#182DD4"/>
<stop offset="1" stop-color="#5588FF"/>
</linearGradient>
<linearGradient id="paint5_linear" x1="152.996" y1="12.7315" x2="152.996" y2="33.2513" gradientUnits="userSpaceOnUse">
<stop stop-color="#182DD4"/>
<stop offset="0.0001" stop-color="#182DD4"/>
<stop offset="1" stop-color="#5588FF"/>
</linearGradient>
<linearGradient id="paint6_linear" x1="168.68" y1="12.906" x2="168.68" y2="33.2079" gradientUnits="userSpaceOnUse">
<stop stop-color="#182DD4"/>
<stop offset="0.0001" stop-color="#182DD4"/>
<stop offset="1" stop-color="#5588FF"/>
</linearGradient>
<linearGradient id="paint7_linear" x1="30.8088" y1="7.30676" x2="30.8088" y2="38.227" gradientUnits="userSpaceOnUse">
<stop stop-color="#182DD4"/>
<stop offset="0.0001" stop-color="#182DD4"/>
<stop offset="1" stop-color="#5588FF"/>
</linearGradient>
<linearGradient id="paint8_linear" x1="36.7607" y1="0" x2="36.7607" y2="26.5789" gradientUnits="userSpaceOnUse">
<stop stop-color="#182DD4"/>
<stop offset="0.0001" stop-color="#182DD4"/>
<stop offset="1" stop-color="#5588FF"/>
</linearGradient>
</defs>
</svg>
