<svg width="156" height="90" viewBox="0 0 156 90" fill="none" xmlns="http://www.w3.org/2000/svg">
<path d="M83.7756 9.42595H84.2256V8.97595V8.78896C84.2256 4.19122 87.9668 0.45 92.5645 0.45H146.42C151.018 0.45 154.759 4.19122 154.759 8.78896V14.7729C154.759 19.3707 151.018 23.1119 146.42 23.1119H92.5645C87.9668 23.1119 84.2256 19.3707 84.2256 14.7729V14.5859V14.1359H83.7756H80.5966C78.5951 14.1359 76.9676 15.7635 76.9676 17.7649V41.8878V42.3378H77.4176H83.7756H84.2256V41.8878V41.7008C84.2256 37.1031 87.9668 33.3618 92.5645 33.3618H146.42C151.018 33.3618 154.759 37.1031 154.759 41.7008V47.6848C154.759 52.2825 151.018 56.0237 146.42 56.0237H92.5645C87.9668 56.0237 84.2256 52.2825 84.2256 47.6848V47.4978V47.0478H83.7756H77.4176H76.9676V47.4978V71.6206C76.9676 73.6221 78.5951 75.2496 80.5966 75.2496H83.7756H84.2256V74.7996V74.6126C84.2256 70.0149 87.9668 66.2737 92.5645 66.2737H146.42C151.018 66.2737 154.759 70.0149 154.759 74.6126V80.5966C154.759 85.1943 151.018 88.9355 146.42 88.9355H92.5645C87.9668 88.9355 84.2256 85.1943 84.2256 80.5966V80.4096V79.9596H83.7756H80.5966C75.9988 79.9596 72.2576 76.2184 72.2576 71.6206V47.4978V47.0478H71.8076H65.4497H64.9997V47.4978V56.6607C64.9997 61.2585 61.2584 64.9997 56.6607 64.9997H8.78895C4.19122 64.9997 0.45 61.2585 0.45 56.6607V32.7248C0.45 28.1271 4.19122 24.3859 8.78895 24.3859H56.6607C61.2584 24.3859 64.9997 28.1271 64.9997 32.7248V41.8878V42.3378H65.4497H71.8076H72.2576V41.8878V17.7649C72.2576 13.1672 75.9988 9.42595 80.5966 9.42595H83.7756ZM56.6607 60.2897C58.6622 60.2897 60.2897 58.6622 60.2897 56.6607V32.7248C60.2897 30.7234 58.6622 29.0958 56.6607 29.0958H8.78895C6.7875 29.0958 5.15997 30.7234 5.15997 32.7248V56.6607C5.15997 58.6622 6.7875 60.2897 8.78895 60.2897H56.6607ZM92.5645 70.9836C90.5631 70.9836 88.9355 72.6112 88.9355 74.6126V80.5966C88.9355 82.598 90.5631 84.2256 92.5645 84.2256H146.42C148.422 84.2256 150.049 82.598 150.049 80.5966V74.6126C150.049 72.6112 148.422 70.9836 146.42 70.9836H92.5645ZM92.5645 38.0718C90.5631 38.0718 88.9355 39.6993 88.9355 41.7008V47.6848C88.9355 49.6862 90.5631 51.3137 92.5645 51.3137H146.42C148.422 51.3137 150.049 49.6862 150.049 47.6848V41.7008C150.049 39.6993 148.422 38.0718 146.42 38.0718H92.5645ZM146.42 18.4019C148.422 18.4019 150.049 16.7744 150.049 14.7729V8.78896C150.049 6.7875 148.422 5.15997 146.42 5.15997H92.5645C90.5631 5.15997 88.9355 6.7875 88.9355 8.78896V14.7729C88.9355 16.7744 90.5631 18.4019 92.5645 18.4019H146.42Z" fill="url(#paint0_linear)" stroke="white" stroke-width="0.9"/>
<defs>
<linearGradient id="paint0_linear" x1="77.6046" y1="0" x2="77.6046" y2="89.3855" gradientUnits="userSpaceOnUse">
<stop stop-color="#262656"/>
<stop offset="1" stop-color="#7076E1"/>
</linearGradient>
</defs>
</svg>
