<svg width="33" height="27" viewBox="0 0 33 27" fill="none" xmlns="http://www.w3.org/2000/svg">
<path d="M30.0533 26.4644C30.7951 26.4644 31.4378 26.2195 31.9843 25.7358L22.6348 16.3861C22.4105 16.5467 22.1931 16.7029 21.9877 16.8514C21.288 17.3669 20.7202 17.7692 20.2841 18.0574C19.8481 18.3463 19.2681 18.6408 18.5439 18.9414C17.8194 19.2424 17.1443 19.3925 16.5181 19.3925H16.4998H16.4814C15.8552 19.3925 15.1801 19.2425 14.4556 18.9414C13.731 18.6408 13.151 18.3463 12.7154 18.0574C12.2794 17.7692 11.7118 17.367 11.0118 16.8514C10.8167 16.7084 10.6004 16.5515 10.3665 16.3835L1.01526 25.7358C1.56161 26.2195 2.20478 26.4644 2.94651 26.4644H30.0533Z" fill="#C73C4C"/>
<path d="M1.86013 10.4983C1.16052 10.0319 0.540119 9.49771 0 8.896V23.1209L8.24055 14.8804C6.59197 13.7294 4.46786 12.2704 1.86013 10.4983Z" fill="#C73C4C"/>
<path d="M31.1585 10.4983C28.6502 12.196 26.5184 13.6576 24.7628 14.8837L33 23.1213V8.896C32.4719 9.4856 31.8581 10.0194 31.1585 10.4983Z" fill="#C73C4C"/>
<path d="M30.0537 0.535645H2.94697C2.0013 0.535645 1.27425 0.854983 0.764928 1.493C0.255185 2.13132 0.000732422 2.9296 0.000732422 3.88696C0.000732422 4.66026 0.338404 5.49815 1.01345 6.40087C1.68849 7.30322 2.40679 8.012 3.16799 8.52755C3.58529 8.82239 4.84371 9.69724 6.94326 11.1518C8.07664 11.9372 9.06227 12.6218 9.90927 13.2125C10.6312 13.7156 11.2538 14.1512 11.7679 14.5127C11.8269 14.5541 11.9197 14.6205 12.0429 14.7086C12.1756 14.8039 12.3436 14.9249 12.5507 15.0745C12.9497 15.363 13.2811 15.5963 13.5451 15.7744C13.8087 15.9527 14.1281 16.1518 14.5028 16.3729C14.8772 16.5936 15.2304 16.7597 15.5618 16.8701C15.8933 16.9804 16.2002 17.0358 16.4825 17.0358H16.5008H16.5192C16.8014 17.0358 17.1083 16.9804 17.4399 16.8701C17.7713 16.7597 18.1241 16.594 18.4988 16.3729C18.8732 16.1518 19.1921 15.9523 19.4566 15.7744C19.7206 15.5963 20.052 15.3631 20.451 15.0745C20.6578 14.9249 20.8257 14.8038 20.9584 14.7089C21.0817 14.6204 21.1744 14.5545 21.2338 14.5127C21.6343 14.2341 22.2583 13.8002 23.0973 13.2176C24.6241 12.1569 26.8725 10.5956 29.8521 8.52755C30.7482 7.90164 31.4969 7.14631 32.0986 6.26265C32.6993 5.37898 33.0004 4.45206 33.0004 3.48219C33.0004 2.67186 32.7084 1.97848 32.1258 1.40097C31.5424 0.824188 30.8517 0.535645 30.0537 0.535645Z" fill="#C73C4C"/>
</svg>
