<svg width="79" height="79" viewBox="0 0 79 79" fill="none" xmlns="http://www.w3.org/2000/svg">
<path d="M40.2407 1.9751C24.6876 1.9751 8.14696 6.66572 8.14696 17.0345V60.7313C8.14696 71.1001 24.9345 75.7907 40.4876 75.7907C56.0407 75.7907 72.8282 71.1001 72.8282 60.7313V17.0345C72.5813 6.66572 55.7938 1.9751 40.2407 1.9751ZM67.8907 60.7313C67.8907 66.4095 55.547 71.1001 40.2407 71.1001C24.9345 71.1001 12.5907 66.4095 12.5907 60.7313V52.0907C17.2813 57.0282 28.8845 59.497 40.2407 59.497C51.597 59.497 63.2001 57.0282 67.8907 52.0907V60.7313ZM67.8907 46.9063C67.8907 52.5845 55.547 57.2751 40.2407 57.2751C24.9345 57.2751 12.5907 52.5845 12.5907 46.9063V38.2657C17.2813 43.2032 28.8845 45.672 40.2407 45.672C51.597 45.672 63.2001 43.2032 67.8907 38.2657V46.9063ZM67.8907 33.0813C67.8907 38.7595 55.547 43.4501 40.2407 43.4501C24.9345 43.4501 12.5907 39.0063 12.5907 33.0813V25.1813C18.7626 29.872 29.6251 32.0938 40.2407 32.0938C50.8563 32.0938 61.7188 29.872 67.8907 25.4282V33.0813ZM40.2407 27.4032C24.9345 27.4032 12.5907 22.7126 12.5907 17.0345C12.5907 11.3563 24.9345 6.66572 40.2407 6.66572C55.547 6.66572 67.8907 11.3563 67.8907 17.0345C67.8907 22.7126 55.547 27.4032 40.2407 27.4032Z" fill="#414554"/>
<path d="M11.1094 36.2904C12.8375 38.7592 23.4531 44.1904 39.0063 44.6842C52.5844 45.1779 67.15 38.5123 69.8656 35.5498" stroke="#414554" stroke-width="5" stroke-miterlimit="10"/>
<path d="M11.1094 50.3626C12.8375 52.8313 23.4531 58.2626 39.0062 59.0032C52.5844 59.497 67.15 53.0782 70.1125 50.1157" stroke="#414554" stroke-width="5" stroke-miterlimit="10"/>
</svg>
