<svg width="15" height="15" viewBox="0 0 15 15" fill="none" xmlns="http://www.w3.org/2000/svg">
<path d="M14.5946 6.52428C14.5943 6.52393 14.5939 6.52359 14.5936 6.52325L8.47476 0.404663C8.21395 0.143738 7.86719 0 7.49835 0C7.12951 0 6.78275 0.143623 6.52183 0.404549L0.40622 6.52004C0.40416 6.5221 0.4021 6.52428 0.40004 6.52634C-0.135544 7.06501 -0.134628 7.939 0.402672 8.4763C0.648148 8.72189 0.972359 8.86414 1.319 8.87901C1.33308 8.88039 1.34727 8.88107 1.36157 8.88107H1.60545V13.384C1.60545 14.275 2.33043 15 3.22169 15H5.61557C5.85818 15 6.05502 14.8033 6.05502 14.5605V11.0303C6.05502 10.6237 6.38576 10.2929 6.79236 10.2929H8.20434C8.61094 10.2929 8.94168 10.6237 8.94168 11.0303V14.5605C8.94168 14.8033 9.1384 15 9.38113 15H11.775C12.6663 15 13.3913 14.275 13.3913 13.384V8.88107H13.6174C13.9861 8.88107 14.3329 8.73745 14.5939 8.47652C15.1318 7.93831 15.132 7.06284 14.5946 6.52428Z" fill="white"/>
</svg>
