<svg width="35" height="35" viewBox="0 0 35 35" fill="none" xmlns="http://www.w3.org/2000/svg">
<path d="M17.5 17.1173C21.3914 17.1173 24.5463 13.2855 24.5463 8.5587C24.5463 3.8318 23.5105 0 17.5 0C11.4895 0 10.4535 3.8318 10.4535 8.5587C10.4535 13.2855 13.6084 17.1173 17.5 17.1173Z" fill="white"/>
<path d="M4.1909 30.1854C4.1897 29.8971 4.1885 30.1041 4.1909 30.1854V30.1854Z" fill="white"/>
<path d="M30.8085 30.4103C30.8123 30.3314 30.8098 29.863 30.8085 30.4103V30.4103Z" fill="white"/>
<path d="M30.7935 29.8397C30.663 21.6055 29.5876 19.2592 21.3583 17.774C21.3583 17.774 20.1999 19.2501 17.4999 19.2501C14.7999 19.2501 13.6413 17.774 13.6413 17.774C5.5018 19.243 4.361 21.5545 4.211 29.5722C4.1987 30.2269 4.193 30.2613 4.1908 30.1853C4.1913 30.3277 4.1919 30.5911 4.1919 31.0504C4.1919 31.0504 6.15109 35 17.4999 35C28.8485 35 30.8079 31.0504 30.8079 31.0504C30.8079 30.7553 30.8081 30.5501 30.8084 30.4105C30.8062 30.4575 30.8018 30.3664 30.7935 29.8397Z" fill="white"/>
</svg>
