<svg width="135" height="135" viewBox="0 0 135 135" fill="none" xmlns="http://www.w3.org/2000/svg">
<path d="M53.2644 94.606C52.7544 94.606 52.2408 94.4306 51.8216 94.0737L37.3993 81.793C36.9018 81.3689 36.6157 80.7495 36.6157 80.0953C36.6157 79.4424 36.903 78.823 37.3993 78.3989L51.8216 66.1182C52.7582 65.3198 54.1648 65.4329 54.9633 66.3695C55.7605 67.3072 55.6486 68.7139 54.7108 69.5111L42.2822 80.0953L54.7108 90.6795C55.6486 91.478 55.7605 92.8847 54.9633 93.8212C54.5218 94.3398 53.8949 94.606 53.2644 94.606Z" fill="#4C505E"/>
<path d="M81.7357 94.606C81.1052 94.606 80.4783 94.3398 80.038 93.8212C79.2396 92.8847 79.3527 91.478 80.2893 90.6795L92.7179 80.0953L80.2893 69.5111C79.3527 68.7139 79.2396 67.3072 80.038 66.3695C80.8353 65.4329 82.2432 65.3198 83.1785 66.1182L97.6008 78.3989C98.0983 78.823 98.3844 79.4424 98.3844 80.0953C98.3844 80.7495 98.0983 81.3689 97.6008 81.793L83.1785 94.0737C82.7593 94.4306 82.2457 94.606 81.7357 94.606Z" fill="#4C505E"/>
<path d="M62.3944 103.817C62.2414 103.817 62.0872 103.801 61.9317 103.769C60.7278 103.515 59.9567 102.332 60.2104 101.128L69.1989 58.4518C69.4526 57.2479 70.6341 56.4768 71.8393 56.7305C73.0433 56.9842 73.8144 58.1658 73.5606 59.3709L64.5722 102.047C64.3508 103.097 63.4255 103.817 62.3944 103.817Z" fill="#4C505E"/>
<path d="M120.035 127.067H14.9646C6.71368 127.067 0 120.355 0 112.103V22.9245C0 14.6736 6.71368 7.9599 14.9646 7.9599H120.035C128.286 7.9599 135 14.6736 135 22.9245V112.103C135 120.355 128.286 127.067 120.035 127.067ZM14.9646 12.4174C9.1713 12.4174 4.45755 17.1312 4.45755 22.9245V112.103C4.45755 117.896 9.1713 122.61 14.9646 122.61H120.035C125.829 122.61 130.542 117.896 130.542 112.103V22.9245C130.542 17.1312 125.829 12.4174 120.035 12.4174H14.9646Z" fill="#4C505E"/>
<path d="M132.771 43.6489H2.22877C0.997476 43.6489 0 42.6514 0 41.4201C0 40.1901 0.997476 39.1913 2.22877 39.1913H132.771C134.003 39.1913 135 40.1901 135 41.4201C135 42.6514 134.003 43.6489 132.771 43.6489Z" fill="#4C505E"/>
<path d="M38.0806 32.9839C34.1927 32.9839 31.0273 29.8186 31.0273 25.9307C31.0273 22.0415 34.1927 18.8774 38.0806 18.8774C41.9697 18.8774 45.1338 22.0415 45.1338 25.9307C45.1338 29.8186 41.9697 32.9839 38.0806 32.9839ZM38.0806 23.335C36.6503 23.335 35.4849 24.4991 35.4849 25.9307C35.4849 27.3622 36.6503 28.5263 38.0806 28.5263C39.5121 28.5263 40.6762 27.3622 40.6762 25.9307C40.6762 24.4991 39.5121 23.335 38.0806 23.335Z" fill="#4C505E"/>
<path d="M16.4097 32.9155C12.5205 32.9155 9.35645 29.7514 9.35645 25.8622C9.35645 21.9731 12.5205 18.809 16.4097 18.809C20.2988 18.809 23.4629 21.9731 23.4629 25.8622C23.4629 29.7514 20.2988 32.9155 16.4097 32.9155ZM16.4097 23.2666C14.9794 23.2666 13.814 24.4319 13.814 25.8622C13.814 27.2938 14.9794 28.4579 16.4097 28.4579C17.8412 28.4579 19.0053 27.2938 19.0053 25.8622C19.0053 24.4319 17.8412 23.2666 16.4097 23.2666Z" fill="#4C505E"/>
<path d="M59.7517 33.051C55.8638 33.051 52.6997 29.8869 52.6997 25.9978C52.6997 22.1099 55.8638 18.9458 59.7517 18.9458C63.6408 18.9458 66.8049 22.1099 66.8049 25.9978C66.8049 29.8869 63.6408 33.051 59.7517 33.051ZM59.7517 23.4021C58.3214 23.4021 57.1573 24.5662 57.1573 25.9978C57.1573 27.4293 58.3214 28.5935 59.7517 28.5935C61.1832 28.5935 62.3474 27.4293 62.3474 25.9978C62.3474 24.5662 61.1832 23.4021 59.7517 23.4021Z" fill="#4C505E"/>
</svg>
