<svg width="119" height="119" viewBox="0 0 119 119" fill="none" xmlns="http://www.w3.org/2000/svg">
<path d="M113.064 102.711H33.4892C30.2096 102.711 27.5514 100.052 27.5514 96.7728C27.5514 93.4931 30.2096 90.835 33.4892 90.835H113.062C116.342 90.835 119 93.4931 119 96.7728C119 100.052 116.344 102.711 113.064 102.711Z" fill="#414554"/>
<path d="M113.064 65.4389H33.4892C30.2096 65.4389 27.5514 62.7807 27.5514 59.5011C27.5514 56.2214 30.2096 53.5632 33.4892 53.5632H113.062C116.342 53.5632 119 56.2214 119 59.5011C119.002 62.7807 116.344 65.4389 113.064 65.4389Z" fill="#414554"/>
<path d="M113.064 28.1674H33.4892C30.2096 28.1674 27.5514 25.5092 27.5514 22.2296C27.5514 18.9499 30.2096 16.2917 33.4892 16.2917H113.062C116.342 16.2917 119 18.9499 119 22.2296C119 25.5092 116.344 28.1674 113.064 28.1674Z" fill="#414554"/>
<path d="M7.9745 30.6631C12.3787 30.6631 15.949 27.0928 15.949 22.6886C15.949 18.2844 12.3787 14.7141 7.9745 14.7141C3.57031 14.7141 0 18.2844 0 22.6886C0 27.0928 3.57031 30.6631 7.9745 30.6631Z" fill="#414554"/>
<path d="M7.9745 67.4756C12.3787 67.4756 15.949 63.9053 15.949 59.5011C15.949 55.0969 12.3787 51.5266 7.9745 51.5266C3.57031 51.5266 0 55.0969 0 59.5011C0 63.9053 3.57031 67.4756 7.9745 67.4756Z" fill="#414554"/>
<path d="M7.9745 104.288C12.3787 104.288 15.949 100.718 15.949 96.3136C15.949 91.9094 12.3787 88.3391 7.9745 88.3391C3.57031 88.3391 0 91.9094 0 96.3136C0 100.718 3.57031 104.288 7.9745 104.288Z" fill="#414554"/>
</svg>
