<svg width="119" height="119" viewBox="0 0 119 119" fill="none" xmlns="http://www.w3.org/2000/svg">
<g clip-path="url(#clip0)">
<path d="M109.368 30.6406C109.306 27.4277 109.248 24.3926 109.248 21.4564C109.248 19.156 107.384 17.2911 105.083 17.2911C87.2692 17.2911 73.7064 12.1716 62.4012 1.17965C60.784 -0.393169 58.2104 -0.392614 56.5937 1.17965C45.2896 12.1716 31.729 17.2911 13.9165 17.2911C11.6162 17.2911 9.75121 19.156 9.75121 21.4564C9.75121 24.3932 9.69345 27.4294 9.63181 30.6428C9.06088 60.5419 8.27892 101.49 58.1332 118.771C58.5753 118.924 59.0362 119.001 59.4972 119.001C59.9581 119.001 60.4197 118.924 60.8612 118.771C110.719 101.49 109.938 60.5403 109.368 30.6406ZM59.4977 110.415C16.7411 94.8829 17.3876 60.8579 17.9613 30.8016C17.9957 28.9978 18.0291 27.2495 18.0524 25.5356C34.7358 24.8314 48.077 19.7758 59.4977 9.82683C70.9196 19.7758 84.263 24.8319 100.948 25.5356C100.971 27.2489 101.004 28.9961 101.039 30.7989C101.612 60.8563 102.258 94.8824 59.4977 110.415Z" fill="#414554"/>
<path d="M73.8414 45.0308L53.7374 65.1337L45.1585 56.5548C43.5318 54.9287 40.8944 54.9287 39.2682 56.5548C37.6415 58.182 37.6415 60.819 39.2682 62.4456L50.7922 73.9697C51.6053 74.7827 52.6716 75.1893 53.7374 75.1893C54.8032 75.1893 55.8695 74.7827 56.6825 73.9697L79.7311 50.9216C81.3584 49.2949 81.3584 46.6575 79.7317 45.0313C78.1055 43.4046 75.4681 43.4041 73.8414 45.0308Z" fill="#414554"/>
</g>
<defs>
<clipPath id="clip0">
<rect width="119" height="119" fill="white"/>
</clipPath>
</defs>
</svg>
