<svg width="119" height="119" viewBox="0 0 119 119" fill="none" xmlns="http://www.w3.org/2000/svg">
<path d="M111.635 47.1569L111.634 47.1564C109.108 44.6307 105.853 42.9278 102.384 42.2494C100.722 19.9753 82.0754 2.35664 59.3838 2.35664C36.6922 2.35664 18.0456 19.9752 16.4064 42.2494C12.938 42.9279 9.68234 44.6307 7.15663 47.1564C3.8189 50.4942 1.8918 55.1237 1.8918 59.8486V77.8381C1.8918 87.7335 9.93017 95.7719 19.8256 95.7719H23.4281C26.2934 95.7719 28.9939 94.6585 31.0303 92.6221C33.0667 90.5857 34.1801 87.8852 34.1801 85.0199V52.6668C34.1801 49.8016 33.0667 47.101 31.0303 45.0646C29.0295 43.0638 26.3876 41.9541 23.5783 41.9159C25.3674 23.7367 40.7595 9.47363 59.407 9.47363C78.0543 9.47363 93.4006 23.7133 95.2123 41.9156C92.3944 41.948 89.7435 43.0584 87.7373 45.0646C85.7009 47.101 84.5875 49.8016 84.5875 52.6668V85.0199C84.5875 87.8852 85.7009 90.5857 87.7373 92.6221C89.7737 94.6585 92.4742 95.7719 95.3395 95.7719H95.3705C95.3275 98.8818 94.2811 102.453 91.8924 105.265C89.4994 108.082 85.7476 110.151 80.2659 110.222C80.6742 109.088 80.8969 107.859 80.8969 106.589C80.8969 100.668 76.0659 95.8367 70.1449 95.8367C64.2239 95.8367 59.393 100.668 59.393 106.589C59.393 112.51 64.2239 117.341 70.1449 117.341H80.9293C90.2278 117.341 102.376 110.31 102.465 95.411C110.681 93.7499 116.876 86.5025 116.876 77.8381V59.8486C116.876 55.1237 114.949 50.4945 111.635 47.1569ZM12.1809 52.2039L12.1822 52.2026C13.3254 51.0378 14.7356 50.1779 16.2787 49.6437V88.0428C12.0544 86.5734 9.00879 82.5556 9.00879 77.8381V59.8486C9.00879 56.9968 10.1728 54.212 12.1809 52.2039ZM27.0631 52.6668V85.0199C27.0631 85.2612 26.9695 86.1802 26.4369 87.0318C25.9333 87.837 25.0312 88.5943 23.3957 88.6514V49.0352C25.0427 49.092 25.9447 49.8498 26.4454 50.6545C26.9749 51.5056 27.0631 52.4244 27.0631 52.6668ZM66.5332 106.589C66.5332 104.584 68.1636 102.954 70.1682 102.954C72.1727 102.954 73.8031 104.584 73.8031 106.589C73.8031 108.593 72.1727 110.224 70.1682 110.224C68.1636 110.224 66.5332 108.593 66.5332 106.589ZM91.7045 85.0199V52.6668C91.7045 52.4256 91.798 51.5065 92.3307 50.6549C92.8342 49.8497 93.7364 49.0924 95.3719 49.0353V88.6515C93.7249 88.5947 92.8228 87.8369 92.3222 87.0322C91.7927 86.1812 91.7045 85.2624 91.7045 85.0199ZM109.759 77.8381C109.759 82.5561 106.713 86.5959 102.489 88.066V49.6207C104.031 50.1566 105.442 51.036 106.587 52.1807C108.595 54.1888 109.759 56.9735 109.759 59.8254V77.8381Z" fill="#414554" stroke="#414554" stroke-width="0.4" stroke-miterlimit="10"/>
</svg>
