<svg width="119" height="119" viewBox="0 0 119 119" fill="none" xmlns="http://www.w3.org/2000/svg">
<path d="M106.914 3.25391H11.6211C6.62402 3.25391 2.55664 7.32129 2.55664 12.3184V107.611C2.55664 112.608 6.62402 116.676 11.6211 116.676H106.914C111.911 116.676 115.979 112.608 115.979 107.611V12.3184C115.979 7.32129 111.911 3.25391 106.914 3.25391ZM109.331 12.3184V20.7553H55.7348V9.90117H106.914C108.239 9.90117 109.331 10.9936 109.331 12.3184ZM40.209 20.7553V9.90117H49.0643V20.7553H40.209ZM24.7064 20.7553V9.90117H33.5617V20.7553H24.7064ZM11.6211 9.90117H18.0592V20.7553H9.20391V12.3184C9.20391 10.9936 10.2963 9.90117 11.6211 9.90117ZM44.718 46.3914V51.5744C44.718 54.6889 45.9033 57.5941 48.1113 59.8021C50.3193 62.0102 53.2479 63.2188 56.3623 63.2188H62.3123H62.3588C65.45 63.2188 68.3553 62.0102 70.54 59.8254C72.748 57.6174 73.9566 54.6889 73.9566 51.5744V46.3914C76.9549 49.8545 78.6283 54.2705 78.6283 58.9887C78.6051 65.0549 75.8625 70.633 71.0746 74.3053C67.8904 76.7225 66.0078 80.5574 66.0078 84.5551V109.819L52.69 109.796V84.5783C52.69 80.5807 50.8074 76.7457 47.6232 74.3285C42.8354 70.6562 40.0695 65.0549 40.0463 59.0119C40.0463 54.2705 41.7197 49.8545 44.718 46.3914ZM106.914 110.029H72.6318V84.5783C72.6318 82.626 73.5383 80.7666 75.0955 79.6045C81.5336 74.6539 85.2523 67.1699 85.2523 59.0119C85.2523 50.8307 81.3244 43.0445 74.7469 38.1637C73.3291 37.1178 71.4697 36.9551 69.8893 37.7453C68.2856 38.5355 67.3094 40.1393 67.3094 41.9289V51.5977C67.3094 52.9457 66.798 54.2008 65.8451 55.1537C64.9154 56.0834 63.6604 56.5947 62.3355 56.5947C62.3355 56.5947 62.3355 56.5947 62.3123 56.5947H56.3623C55.0143 56.5947 53.7592 56.0834 52.8062 55.1305C51.8766 54.2008 51.3652 52.9457 51.3652 51.5977L51.342 41.9057C51.342 40.1393 50.3658 38.5588 48.8086 37.7686C47.2281 36.9551 45.3688 37.0945 43.9277 38.1404L43.8813 38.1637C37.3037 43.0445 33.3758 50.8307 33.3758 59.0352C33.399 67.1699 37.0945 74.6771 43.5559 79.6277C45.0898 80.7898 46.0195 82.6492 46.0195 84.6016V110.052H11.6211C10.2963 110.052 9.20391 108.959 9.20391 107.635V27.4025H109.331V107.611C109.331 108.936 108.239 110.029 106.914 110.029Z" fill="#414554" stroke="#414554" stroke-miterlimit="10"/>
</svg>
